<svg xmlns="http://www.w3.org/2000/svg" xmlns:xlink="http://www.w3.org/1999/xlink" xmlns:lucid="lucid" width="1920" height="1805.2"><g transform="translate(-2020 -80)" lucid:page-tab-id="lR2fqOq~ZdMc"><path d="M1915.47 0h2078.5v1956.23h-2078.5z" fill="#fff"/><path d="M3000 841a42.84 42.84 0 0 1 1.65-11.77l6.7-23.46a4.38 4.38 0 0 1 6.64-2.44l20 13.34a9 9 0 0 0 10 0l20-13.34a4.23 4.23 0 0 1 6.45 2.5l7.1 28.35A48.74 48.74 0 0 1 3080 846v48a6 6 0 0 1-6 6h-68a6 6 0 0 1-6-6z" stroke="#5e5e5e" stroke-width="3" fill="url(#a)"/><use xlink:href="#b" transform="matrix(1,0,0,1,3000,800) translate(4.29012345679012 64.44444444444446)"/><use xlink:href="#c" transform="matrix(1,0,0,1,3000,800) translate(3.05555555555555 91.11111111111111)"/><path d="M3088 320c17.67 0 32 17.9 32 40s-14.33 40-32 40h-96c-17.67 0-32-17.9-32-40s14.33-40 32-40z" stroke="#5a495b" stroke-width="2" fill="#b391b5"/><use xlink:href="#d" transform="matrix(1,0,0,1,2960,320) translate(57.165493827160496 45.27777777777778)"/><path d="M2535.2 483.6a8 8 0 0 1 9.6 0l70.4 52.8a4.5 4.5 0 0 1 0 7.2l-70.4 52.8a8 8 0 0 1-9.6 0l-70.4-52.8a4.5 4.5 0 0 1 0-7.2z" stroke="#000" stroke-width="4" fill="#8cbf3f"/><use xlink:href="#e" transform="matrix(1,0,0,1,2460,480) translate(44.29512345679012 62.77777777777778)"/><path d="M2961.77 506.85a8.6 8.6 0 0 1 3-9.37l70.46-53.84a7.85 7.85 0 0 1 9.54 0l70.46 53.84a8.6 8.6 0 0 1 3 9.37l-27.02 87.42a8.13 8.13 0 0 1-7.76 5.73h-86.88a8.13 8.13 0 0 1-7.77-5.73z" stroke="#5e5e5e" stroke-width="3" fill="url(#f)"/><use xlink:href="#g" transform="matrix(1,0,0,1,2960,440) translate(48.20172373631493 87.84067085953879)"/><path d="M3040 813.68V604.5" stroke="#c92d39" stroke-width="6" fill="none"/><path d="M3043 816.04l-.4.18-.85.25-.87.16-.88.05-.88-.05-.87-.16-.84-.25-.4-.18v-2.44h6zM3043 604.58h-6v-3.08h6z" stroke="#c92d39" stroke-width=".05" fill="#c92d39"/><path d="M2480 710a10 10 0 0 1 10-10h120a10 10 0 0 1 10 10v120a10 10 0 0 1-10 10h-120a10 10 0 0 1-10-10z" stroke="#000" stroke-width="3" fill="#c1e4f7"/><use xlink:href="#h" transform="matrix(1,0,0,1,2485,705) translate(15.18518518518519 70.59027777777777)"/><use xlink:href="#i" transform="matrix(1,0,0,1,2485,705) translate(64.38271604938272 70.59027777777777)"/><path d="M3300 610a10 10 0 0 1 10-10h120a10 10 0 0 1 10 10v120a10 10 0 0 1-10 10h-120a10 10 0 0 1-10-10z" stroke="#000" stroke-width="3" fill="#c1e4f7"/><use xlink:href="#j" transform="matrix(1,0,0,1,3305,605) translate(27.345679012345677 54.34027777777778)"/><use xlink:href="#i" transform="matrix(1,0,0,1,3305,605) translate(39.78395061728395 81.00694444444446)"/><path d="M3540 610a10 10 0 0 1 10-10h120a10 10 0 0 1 10 10v120a10 10 0 0 1-10 10h-120a10 10 0 0 1-10-10z" stroke="#000" stroke-width="3" fill="#c1e4f7"/><use xlink:href="#k" transform="matrix(1,0,0,1,3545,605) translate(11.481481481481481 70.59027777777777)"/><use xlink:href="#i" transform="matrix(1,0,0,1,3545,605) translate(68.08641975308642 70.59027777777777)"/><path d="M3780 610a10 10 0 0 1 10-10h120a10 10 0 0 1 10 10v120a10 10 0 0 1-10 10h-120a10 10 0 0 1-10-10z" stroke="#000" stroke-width="3" fill="#c1e4f7"/><use xlink:href="#l" transform="matrix(1,0,0,1,3785,605) translate(14.413580246913583 70.59027777777777)"/><use xlink:href="#m" transform="matrix(1,0,0,1,3785,605) translate(69.90740740740742 70.59027777777777)"/><path d="M2478.2 835.1h-148.42a50 50 0 0 0-50 50V1077" stroke="#19967d" stroke-width="3" fill="none"/><path d="M2479.75 835.22l.84 1.38h-2.44v-3h.9zM2281.28 1078.5h-3v-1.54h3z" stroke="#19967d" stroke-width=".05" fill="#19967d"/><path d="M2620.78 836.8H2790a50 50 0 0 1 50 50V1097" stroke="#19967d" stroke-width="3" fill="none"/><path d="M2620.82 838.3h-2.87l.2-.16 1.16-1.38.9-1.47h.62zM2841.5 1098.5h-3v-1.54h3z" stroke="#19967d" stroke-width=".05" fill="#19967d"/><path d="M2764.3 1143.2a5.85 5.85 0 0 1 0-8.4l31.4-30.6a14.75 14.75 0 0 1 10.3-4.2h68a14.75 14.75 0 0 1 10.3 4.2l31.4 30.6a5.85 5.85 0 0 1 0 8.4l-31.4 30.6a14.75 14.75 0 0 1-10.3 4.2h-68a14.75 14.75 0 0 1-10.3-4.2z" stroke="#fcc438" stroke-width="3" fill="#c7e8ac"/><use xlink:href="#h" transform="matrix(1,0,0,1,2765,1105) translate(25.190185185185182 24.15277777777778)"/><use xlink:href="#n" transform="matrix(1,0,0,1,2765,1105) translate(74.38771604938272 24.15277777777778)"/><use xlink:href="#o" transform="matrix(1,0,0,1,2765,1105) translate(49.14080246913581 50.81944444444445)"/><path d="M2900 1250a10 10 0 0 1 10-10h140a10 10 0 0 1 10 10v40a10 10 0 0 1-10 10h-140a10 10 0 0 1-10-10z" stroke="#000" stroke-width="3" fill="#ef8d22"/><use xlink:href="#p" transform="matrix(1,0,0,1,2905,1245) translate(25.679012345679013 30.27777777777778)"/><path d="M2660 1330a10 10 0 0 1 10-10h140a10 10 0 0 1 10 10v40a10 10 0 0 1-10 10h-140a10 10 0 0 1-10-10z" stroke="#000" stroke-width="3" fill="#ef8d22"/><use xlink:href="#q" transform="matrix(1,0,0,1,2665,1325) translate(37.160493827160494 30.27777777777778)"/><path d="M2620 1250a10 10 0 0 1 10-10h140a10 10 0 0 1 10 10v40a10 10 0 0 1-10 10h-140a10 10 0 0 1-10-10z" stroke="#000" stroke-width="3" fill="#ef8d22"/><use xlink:href="#r" transform="matrix(1,0,0,1,2625,1245) translate(2.34567901234567 30.27777777777778)"/><use xlink:href="#s" transform="matrix(1,0,0,1,2625,1245) translate(83.64197530864197 30.27777777777778)"/><path d="M2860 1330a10 10 0 0 1 10-10h140a10 10 0 0 1 10 10v40a10 10 0 0 1-10 10h-140a10 10 0 0 1-10-10z" stroke="#000" stroke-width="3" fill="#ef8d22"/><use xlink:href="#t" transform="matrix(1,0,0,1,2865,1325) translate(19.537037037037038 30.27777777777778)"/><use xlink:href="#u" transform="matrix(1,0,0,1,2865,1325) translate(71.32716049382717 30.27777777777778)"/><path d="M2759.53 1139H2750a50 50 0 0 0-50 50v48" stroke="#c92d39" stroke-width="3" fill="none"/><path d="M2761.12 1137.83l-.1 1.17.1 1.17.08.33h-1.7v-3h1.7zM2701.5 1238.5h-3v-1.54h3z" stroke="#c92d39" stroke-width=".05" fill="#c92d39"/><path d="M2799.75 1179.74v68.52a.12.12 0 0 0 .12.1.12.12 0 0 1 .1.13v68.5" stroke="#c92d39" stroke-width="3" fill="none"/><path d="M2798.73 1177.8l1.15.5 1.18.43.2.05v1h-3v-2.26zM2801.48 1318.5h-3v-1.54h3z" stroke="#c92d39" stroke-width=".05" fill="#c92d39"/><path d="M2864.94 1181v68.55a.07.07 0 0 1-.08.07.07.07 0 0 0-.07.08v68.54" stroke="#c92d39" stroke-width="3" fill="none"/><path d="M2866.44 1181.04h-3v-1.54h3zM2866.3 1319.12l-1.52.63-1.5.9v-2.44h3z" stroke="#c92d39" stroke-width=".05" fill="#c92d39"/><path d="M2920.47 1139h9.53a50 50 0 0 1 50 50v48" stroke="#c92d39" stroke-width="3" fill="none"/><path d="M2920.5 1140.5h-1.7l.08-.33.1-1.17-.1-1.17-.08-.33h1.7zM2981.5 1238.5h-3v-1.54h3z" stroke="#c92d39" stroke-width=".05" fill="#c92d39"/><path d="M2204.3 1123.2a5.85 5.85 0 0 1 0-8.4l31.4-30.6a14.75 14.75 0 0 1 10.3-4.2h68a14.75 14.75 0 0 1 10.3 4.2l31.4 30.6a5.85 5.85 0 0 1 0 8.4l-31.4 30.6a14.75 14.75 0 0 1-10.3 4.2h-68a14.75 14.75 0 0 1-10.3-4.2z" stroke="#fcc438" stroke-width="3" fill="#c7e8ac"/><use xlink:href="#v" transform="matrix(1,0,0,1,2205,1085) translate(32.81364197530864 24.15277777777778)"/><use xlink:href="#w" transform="matrix(1,0,0,1,2205,1085) translate(45.4370987654321 50.81944444444445)"/><path d="M2040 1230a10 10 0 0 1 10-10h140a10 10 0 0 1 10 10v40a10 10 0 0 1-10 10h-140a10 10 0 0 1-10-10z" stroke="#000" stroke-width="3" fill="#ef8d22"/><use xlink:href="#x" transform="matrix(1,0,0,1,2045,1225) translate(18.333333333333336 30.27777777777778)"/><use xlink:href="#y" transform="matrix(1,0,0,1,2045,1225) translate(93.58024691358025 30.27777777777778)"/><path d="M2080 1310a10 10 0 0 1 10-10h140a10 10 0 0 1 10 10v43.33a10 10 0 0 1-10 10h-140a10 10 0 0 1-10-10z" stroke="#000" stroke-width="3" fill="#ef8d22"/><use xlink:href="#z" transform="matrix(1,0,0,1,2085,1305) translate(40.46296296296296 21.15277777777778)"/><use xlink:href="#A" transform="matrix(1,0,0,1,2085,1305) translate(37.34567901234568 47.81944444444444)"/><path d="M2200 1390a10 10 0 0 1 10-10h140a10 10 0 0 1 10 10v40a10 10 0 0 1-10 10h-140a10 10 0 0 1-10-10z" stroke="#000" stroke-width="3" fill="#ef8d22"/><use xlink:href="#x" transform="matrix(1,0,0,1,2205,1385) translate(7.808641975308646 30.27777777777778)"/><use xlink:href="#B" transform="matrix(1,0,0,1,2205,1385) translate(83.05555555555556 30.27777777777778)"/><path d="M2320 1310a10 10 0 0 1 10-10h140a10 10 0 0 1 10 10v43.33a10 10 0 0 1-10 10h-140a10 10 0 0 1-10-10z" stroke="#000" stroke-width="3" fill="#ef8d22"/><use xlink:href="#z" transform="matrix(1,0,0,1,2325,1305) translate(40.46296296296296 21.15277777777778)"/><use xlink:href="#C" transform="matrix(1,0,0,1,2325,1305) translate(35.586419753086425 47.81944444444444)"/><path d="M2380 1230a10 10 0 0 1 10-10h140a10 10 0 0 1 10 10v40a10 10 0 0 1-10 10h-140a10 10 0 0 1-10-10z" stroke="#000" stroke-width="3" fill="#ef8d22"/><use xlink:href="#x" transform="matrix(1,0,0,1,2385,1225) translate(1.6049382716049365 30.27777777777778)"/><use xlink:href="#D" transform="matrix(1,0,0,1,2385,1225) translate(76.85185185185185 30.27777777777778)"/><path d="M2199.53 1119H2170a50 50 0 0 0-50 50v48" stroke="#c92d39" stroke-width="3" fill="none"/><path d="M2201.12 1117.83l-.1 1.17.1 1.17.08.33h-1.7v-3h1.7zM2121.5 1218.5h-3v-1.54h3z" stroke="#c92d39" stroke-width=".05" fill="#c92d39"/><path d="M2239.75 1159.74v55a13.64 13.64 0 0 1-13.64 13.63 13.64 13.64 0 0 0-13.63 13.64v55" stroke="#c92d39" stroke-width="3" fill="none"/><path d="M2238.73 1157.8l1.15.5 1.18.43.2.05v1h-3v-2.26zM2213.97 1298.5h-3v-1.54h3z" stroke="#c92d39" stroke-width=".05" fill="#c92d39"/><path d="M2280 1161v216" stroke="#c92d39" stroke-width="3" fill="none"/><path d="M2281.5 1161.04h-3v-1.54h3zM2281.5 1378.5h-3v-1.54h3z" stroke="#c92d39" stroke-width=".05" fill="#c92d39"/><path d="M2320.25 1159.74v52.2a16.43 16.43 0 0 0 16.43 16.43 16.43 16.43 0 0 1 16.43 16.43v52.2" stroke="#c92d39" stroke-width="3" fill="none"/><path d="M2321.75 1159.78h-3v-1l.2-.05 1.17-.43 1.15-.5.48-.28zM2354.6 1298.5h-3v-1.54h3z" stroke="#c92d39" stroke-width=".05" fill="#c92d39"/><path d="M2360.47 1119h48a50 50 0 0 1 50 50v48" stroke="#c92d39" stroke-width="3" fill="none"/><path d="M2360.5 1120.5h-1.7l.08-.33.1-1.17-.1-1.17-.08-.33h1.7zM2459.97 1218.5h-3v-1.54h3z" stroke="#c92d39" stroke-width=".05" fill="#c92d39"/><path d="M2224 1644c-13.26 0-24-10.74-24-24 0-10.6 6.5-19.55 16.58-22.83C2216 1566 2256 1560 2272 1572c8-18 48-12 48 6 24-6 48 18 32 48 16 24 0 54-32 42-8 15.6-40 15.6-48 0-16 12-48 6-48-24z" stroke="#5e5e5e" stroke-width="3" fill="#fff"/><use xlink:href="#E" transform="matrix(1,0,0,1,2205,1565) translate(16.154320987654323 59.02777777777778)"/><use xlink:href="#F" transform="matrix(1,0,0,1,2205,1565) translate(78.99382716049382 59.02777777777778)"/><path d="M2043.4 1280.9V1570a50 50 0 0 0 50 50H2197" stroke="#7ab648" stroke-width="3" fill="none"/><path d="M2043.24 1279.3l1.54.95.1.05v.64h-3v-2.78zM2198.5 1619.96l.08 1.54h-1.62v-3h1.7z" stroke="#7ab648" stroke-width=".05" fill="#7ab648"/><path d="M2160 1366.33v159.5a50 50 0 0 0 50 50h11.56" stroke="#7ab648" stroke-width="3" fill="none"/><path d="M2161.5 1366.37h-3v-1.54h3zM2223.65 1575.2l-1.8 1.93-.15.2h-.18v-3h3.1z" stroke="#7ab648" stroke-width=".05" fill="#7ab648"/><path d="M2280 1443v117.86" stroke="#7ab648" stroke-width="3" fill="none"/><path d="M2281.5 1443.04h-3v-1.54h3zM2281.5 1561.75l-1.3.5-1.7.88v-2.3h3z" stroke="#7ab648" stroke-width=".05" fill="#7ab648"/><path d="M2400 1366.33v81.56a26.07 26.07 0 0 1-26.07 26.06 26.07 26.07 0 0 0-26.06 26.07v81.56" stroke="#7ab648" stroke-width="3" fill="none"/><path d="M2401.5 1366.37h-3v-1.54h3zM2349.37 1584.47l-1.83-1.68-1.17-.9v-.35h3z" stroke="#7ab648" stroke-width=".05" fill="#7ab648"/><path d="M2529.62 1283v311.9a50 50 0 0 1-50 50h-118.4" stroke="#7ab648" stroke-width="3" fill="none"/><path d="M2531.12 1283.04h-3v-1.54h1.94l1.06-.08zM2361.26 1646.4h-1.52l.04-.5-.13-2.5h1.6z" stroke="#7ab648" stroke-width=".05" fill="#7ab648"/><path d="M2203.02 1860.02a3.45 3.45 0 0 0 2.98 5.18h157.4a3.45 3.45 0 0 0 2.98-5.18l-78.66-134.84a3.5 3.5 0 0 0-6.04 0z" stroke="#000" stroke-width="4" fill="#ffc374"/><use xlink:href="#G" transform="matrix(1,0,0,1,2200,1720) translate(42.313641975308634 102.78777777777779)"/><use xlink:href="#H" transform="matrix(1,0,0,1,2200,1720) translate(53.08524691358025 129.45444444444445)"/><path d="M2296.3 1682.65v12.05a6.78 6.78 0 0 1-6.77 6.78 6.78 6.78 0 0 0-6.8 6.78v12.06" stroke="#834187" stroke-width="3" fill="none"/><path d="M2297.8 1682.7h-3v-1.55h3zM2284.24 1721.48l-.68.08-1.1.35-1 .58-.22.2v-2.4h3z" stroke="#834187" stroke-width=".05" fill="#834187"/><path d="M2540 697v-95.5" stroke="#c92d39" stroke-width="3" fill="none"/><path d="M2541.5 698.5h-3v-1.54h3zM2538.72 599.92l1.28.08 1.28-.08.22-.04v1.66h-3v-1.66z" stroke="#c92d39" stroke-width=".05" fill="#c92d39"/><path d="M2997 870.25h-614.73a50 50 0 0 0-50 50v168.12" stroke="#ef8d22" stroke-width="3" fill="none"/><path d="M2998.5 871.75h-1.54v-3h1.54zM2333.77 1091.33l-3-2.92v-.07h3z" stroke="#ef8d22" stroke-width=".05" fill="#ef8d22"/><path d="M3040 903v47.63a50 50 0 0 1-50 50h-59.75a50 50 0 0 0-50 50v47.63" stroke="#ef8d22" stroke-width="3" fill="none"/><path d="M3041.5 903.04h-3v-1.54h3zM2881.75 1100.48l-.48-.27-1.15-.5-1.18-.43-.2-.05v-1h3z" stroke="#ef8d22" stroke-width=".05" fill="#ef8d22"/><path d="M3100 160c0 33.14-26.86 60-60 60s-60-26.86-60-60 26.86-60 60-60 60 26.86 60 60z" stroke="#000" stroke-width="4" fill="#ff8f80"/><g><use xlink:href="#I" transform="matrix(1,0,0,1,2980,100) translate(17.474135802469135 51.52777777777778)"/><use xlink:href="#J" transform="matrix(1,0,0,1,2980,100) translate(30.437098765432097 78.19444444444446)"/></g><path d="M3040 439.03V402.5" stroke="#c7e8ac" stroke-width="3" fill="none"/><path d="M3041.5 440.66l-.28-.05-1.22-.07-1.22.08-.28.06V439h3zM3041.5 402.54h-3V401h3z" stroke="#c7e8ac" stroke-width=".05" fill="#c7e8ac"/><path d="M3040 223.5v94" stroke="#000" stroke-width="3" fill="none"/><path d="M3040 222l1.5-.05v1.6h-3v-1.6zM3041.5 319h-3v-1.54h3z" stroke="#000" stroke-width=".05"/><defs><linearGradient gradientUnits="userSpaceOnUse" id="a" x1="3080" y1="800" x2="3000" y2="886.67"><stop offset="0%" stop-color="#fcc438"/><stop offset="26.09%" stop-color="#ffeca9"/><stop offset="100%" stop-color="#fcc438"/></linearGradient><path fill="#333" d="M212-179c-10-28-35-45-73-45-59 0-87 40-87 99 0 60 29 101 89 101 43 0 62-24 78-52l27 14C228-24 195 4 139 4 59 4 22-46 18-125c-6-104 99-153 187-111 19 9 31 26 39 46" id="K"/><path fill="#333" d="M24 0v-261h32V0H24" id="L"/><path fill="#333" d="M141-36C126-15 110 5 73 4 37 3 15-17 15-53c-1-64 63-63 125-63 3-35-9-54-41-54-24 1-41 7-42 31l-33-3c5-37 33-52 76-52 45 0 72 20 72 64v82c-1 20 7 32 28 27v20c-31 9-61-2-59-35zM48-53c0 20 12 33 32 33 41-3 63-29 60-74-43 2-92-5-92 41" id="M"/><path fill="#333" d="M135-143c-3-34-86-38-87 0 15 53 115 12 119 90S17 21 10-45l28-5c4 36 97 45 98 0-10-56-113-15-118-90-4-57 82-63 122-42 12 7 21 19 24 35" id="N"/><path fill="#333" d="M24-231v-30h32v30H24zM24 0v-190h32V0H24" id="O"/><path fill="#333" d="M96-169c-40 0-48 33-48 73s9 75 48 75c24 0 41-14 43-38l32 2c-6 37-31 61-74 61-59 0-76-41-82-99-10-93 101-131 147-64 4 7 5 14 7 22l-32 3c-4-21-16-35-41-35" id="P"/><g id="b"><use transform="matrix(0.06172839506172839,0,0,0.06172839506172839,0,0)" xlink:href="#K"/><use transform="matrix(0.06172839506172839,0,0,0.06172839506172839,15.987654320987653,0)" xlink:href="#L"/><use transform="matrix(0.06172839506172839,0,0,0.06172839506172839,20.864197530864196,0)" xlink:href="#M"/><use transform="matrix(0.06172839506172839,0,0,0.06172839506172839,33.20987654320987,0)" xlink:href="#N"/><use transform="matrix(0.06172839506172839,0,0,0.06172839506172839,44.32098765432099,0)" xlink:href="#N"/><use transform="matrix(0.06172839506172839,0,0,0.06172839506172839,55.4320987654321,0)" xlink:href="#O"/><use transform="matrix(0.06172839506172839,0,0,0.06172839506172839,60.308641975308646,0)" xlink:href="#P"/></g><path fill="#333" d="M84 4C-5 8 30-112 23-190h32v120c0 31 7 50 39 49 72-2 45-101 50-169h31l1 190h-30c-1-10 1-25-2-33-11 22-28 36-60 37" id="Q"/><path fill="#333" d="M114-163C36-179 61-72 57 0H25l-1-190h30c1 12-1 29 2 39 6-27 23-49 58-41v29" id="R"/><path fill="#333" d="M59-47c-2 24 18 29 38 22v24C64 9 27 4 27-40v-127H5v-23h24l9-43h21v43h35v23H59v120" id="S"/><path fill="#333" d="M100-194c62-1 85 37 85 99 1 63-27 99-86 99S16-35 15-95c0-66 28-99 85-99zM99-20c44 1 53-31 53-75 0-43-8-75-51-75s-53 32-53 75 10 74 51 75" id="T"/><g id="c"><use transform="matrix(0.06172839506172839,0,0,0.06172839506172839,0,0)" xlink:href="#K"/><use transform="matrix(0.06172839506172839,0,0,0.06172839506172839,15.987654320987653,0)" xlink:href="#Q"/><use transform="matrix(0.06172839506172839,0,0,0.06172839506172839,28.333333333333332,0)" xlink:href="#R"/><use transform="matrix(0.06172839506172839,0,0,0.06172839506172839,35.67901234567901,0)" xlink:href="#M"/><use transform="matrix(0.06172839506172839,0,0,0.06172839506172839,48.02469135802469,0)" xlink:href="#S"/><use transform="matrix(0.06172839506172839,0,0,0.06172839506172839,54.19753086419753,0)" xlink:href="#T"/><use transform="matrix(0.06172839506172839,0,0,0.06172839506172839,66.54320987654322,0)" xlink:href="#R"/></g><path fill="#333" d="M194 0L95-120 63-95V0H30v-248h33v124l119-124h40L117-140 236 0h-42" id="U"/><path fill="#333" d="M100-194c63 0 86 42 84 106H49c0 40 14 67 53 68 26 1 43-12 49-29l28 8c-11 28-37 45-77 45C44 4 14-33 15-96c1-61 26-98 85-98zm52 81c6-60-76-77-97-28-3 7-6 17-6 28h103" id="V"/><path fill="#333" d="M117-194c89-4 53 116 60 194h-32v-121c0-31-8-49-39-48C34-167 62-67 57 0H25l-1-190h30c1 10-1 24 2 32 11-22 29-35 61-36" id="W"/><g id="d"><use transform="matrix(0.06172839506172839,0,0,0.06172839506172839,0,0)" xlink:href="#U"/><use transform="matrix(0.06172839506172839,0,0,0.06172839506172839,14.814814814814813,0)" xlink:href="#V"/><use transform="matrix(0.06172839506172839,0,0,0.06172839506172839,27.160493827160494,0)" xlink:href="#W"/><use transform="matrix(0.06172839506172839,0,0,0.06172839506172839,39.50617283950617,0)" xlink:href="#S"/></g><g id="e"><use transform="matrix(0.06172839506172839,0,0,0.06172839506172839,0,0)" xlink:href="#K"/><use transform="matrix(0.06172839506172839,0,0,0.06172839506172839,15.987654320987653,0)" xlink:href="#L"/><use transform="matrix(0.06172839506172839,0,0,0.06172839506172839,20.864197530864196,0)" xlink:href="#M"/><use transform="matrix(0.06172839506172839,0,0,0.06172839506172839,33.20987654320987,0)" xlink:href="#N"/><use transform="matrix(0.06172839506172839,0,0,0.06172839506172839,44.32098765432099,0)" xlink:href="#N"/><use transform="matrix(0.06172839506172839,0,0,0.06172839506172839,55.4320987654321,0)" xlink:href="#O"/><use transform="matrix(0.06172839506172839,0,0,0.06172839506172839,60.308641975308646,0)" xlink:href="#P"/></g><radialGradient gradientUnits="userSpaceOnUse" id="f" fx="3044.21" fy="520" cx="3044.21" cy="520" r="50.4"><stop offset="0%" stop-color="#ffbbb1"/><stop offset="100%" stop-color="#ff8f80"/><stop offset="100%" stop-color="#ff8f80"/></radialGradient><path fill="#333" d="M127-220V0H93v-220H8v-28h204v28h-85" id="X"/><path fill="#333" d="M210-169c-67 3-38 105-44 169h-31v-121c0-29-5-50-35-48C34-165 62-65 56 0H25l-1-190h30c1 10-1 24 2 32 10-44 99-50 107 0 11-21 27-35 58-36 85-2 47 119 55 194h-31v-121c0-29-5-49-35-48" id="Y"/><g id="g"><use transform="matrix(0.1088982063824831,0,0,0.1088982063824831,0,0)" xlink:href="#X"/><use transform="matrix(0.1088982063824831,0,0,0.1088982063824831,22.43303051479152,0)" xlink:href="#O"/><use transform="matrix(0.1088982063824831,0,0,0.1088982063824831,31.035988819007684,0)" xlink:href="#Y"/></g><path fill="#333" d="M63-220v92h138v28H63V0H30v-248h175v28H63" id="Z"/><g id="h"><use transform="matrix(0.06172839506172839,0,0,0.06172839506172839,0,0)" xlink:href="#Z"/><use transform="matrix(0.06172839506172839,0,0,0.06172839506172839,13.518518518518517,0)" xlink:href="#O"/><use transform="matrix(0.06172839506172839,0,0,0.06172839506172839,18.39506172839506,0)" xlink:href="#R"/><use transform="matrix(0.06172839506172839,0,0,0.06172839506172839,25.74074074074074,0)" xlink:href="#N"/><use transform="matrix(0.06172839506172839,0,0,0.06172839506172839,36.85185185185185,0)" xlink:href="#S"/></g><g id="i"><use transform="matrix(0.06172839506172839,0,0,0.06172839506172839,0,0)" xlink:href="#Z"/><use transform="matrix(0.06172839506172839,0,0,0.06172839506172839,13.518518518518517,0)" xlink:href="#L"/><use transform="matrix(0.06172839506172839,0,0,0.06172839506172839,18.39506172839506,0)" xlink:href="#T"/><use transform="matrix(0.06172839506172839,0,0,0.06172839506172839,30.74074074074074,0)" xlink:href="#T"/><use transform="matrix(0.06172839506172839,0,0,0.06172839506172839,43.08641975308642,0)" xlink:href="#R"/></g><path fill="#333" d="M185-189c-5-48-123-54-124 2 14 75 158 14 163 119 3 78-121 87-175 55-17-10-28-26-33-46l33-7c5 56 141 63 141-1 0-78-155-14-162-118-5-82 145-84 179-34 5 7 8 16 11 25" id="aa"/><path fill="#333" d="M85-194c31 0 48 13 60 33l-1-100h32l1 261h-30c-2-10 0-23-3-31C134-8 116 4 85 4 32 4 16-35 15-94c0-66 23-100 70-100zm9 24c-40 0-46 34-46 75 0 40 6 74 45 74 42 0 51-32 51-76 0-42-9-74-50-73" id="ab"/><g id="j"><use transform="matrix(0.06172839506172839,0,0,0.06172839506172839,0,0)" xlink:href="#aa"/><use transform="matrix(0.06172839506172839,0,0,0.06172839506172839,14.814814814814813,0)" xlink:href="#V"/><use transform="matrix(0.06172839506172839,0,0,0.06172839506172839,27.160493827160494,0)" xlink:href="#P"/><use transform="matrix(0.06172839506172839,0,0,0.06172839506172839,38.27160493827161,0)" xlink:href="#T"/><use transform="matrix(0.06172839506172839,0,0,0.06172839506172839,50.617283950617285,0)" xlink:href="#W"/><use transform="matrix(0.06172839506172839,0,0,0.06172839506172839,62.96296296296296,0)" xlink:href="#ab"/></g><path fill="#333" d="M106-169C34-169 62-67 57 0H25v-261h32l-1 103c12-21 28-36 61-36 89 0 53 116 60 194h-32v-121c2-32-8-49-39-48" id="ac"/><g id="k"><use transform="matrix(0.06172839506172839,0,0,0.06172839506172839,0,0)" xlink:href="#X"/><use transform="matrix(0.06172839506172839,0,0,0.06172839506172839,13.518518518518517,0)" xlink:href="#ac"/><use transform="matrix(0.06172839506172839,0,0,0.06172839506172839,25.864197530864196,0)" xlink:href="#O"/><use transform="matrix(0.06172839506172839,0,0,0.06172839506172839,30.74074074074074,0)" xlink:href="#R"/><use transform="matrix(0.06172839506172839,0,0,0.06172839506172839,38.08641975308642,0)" xlink:href="#ab"/></g><path fill="#333" d="M240 0l2-218c-23 76-54 145-80 218h-23L58-218 59 0H30v-248h44l77 211c21-75 51-140 76-211h43V0h-30" id="ad"/><g id="l"><use transform="matrix(0.06172839506172839,0,0,0.06172839506172839,0,0)" xlink:href="#ad"/><use transform="matrix(0.06172839506172839,0,0,0.06172839506172839,18.456790123456788,0)" xlink:href="#M"/><use transform="matrix(0.06172839506172839,0,0,0.06172839506172839,30.80246913580247,0)" xlink:href="#S"/><use transform="matrix(0.06172839506172839,0,0,0.06172839506172839,36.97530864197531,0)" xlink:href="#ac"/></g><path fill="#333" d="M30-248c87 1 191-15 191 75 0 78-77 80-158 76V0H30v-248zm33 125c57 0 124 11 124-50 0-59-68-47-124-48v98" id="ae"/><g id="m"><use transform="matrix(0.06172839506172839,0,0,0.06172839506172839,0,0)" xlink:href="#ae"/><use transform="matrix(0.06172839506172839,0,0,0.06172839506172839,14.814814814814813,0)" xlink:href="#M"/><use transform="matrix(0.06172839506172839,0,0,0.06172839506172839,27.160493827160494,0)" xlink:href="#S"/><use transform="matrix(0.06172839506172839,0,0,0.06172839506172839,33.333333333333336,0)" xlink:href="#ac"/></g><g id="n"><use transform="matrix(0.06172839506172839,0,0,0.06172839506172839,0,0)" xlink:href="#Z"/><use transform="matrix(0.06172839506172839,0,0,0.06172839506172839,13.518518518518517,0)" xlink:href="#L"/><use transform="matrix(0.06172839506172839,0,0,0.06172839506172839,18.39506172839506,0)" xlink:href="#T"/><use transform="matrix(0.06172839506172839,0,0,0.06172839506172839,30.74074074074074,0)" xlink:href="#T"/><use transform="matrix(0.06172839506172839,0,0,0.06172839506172839,43.08641975308642,0)" xlink:href="#R"/></g><path fill="#333" d="M68-38c1 34 0 65-14 84H32c9-13 17-26 17-46H33v-38h35" id="af"/><g id="o"><use transform="matrix(0.06172839506172839,0,0,0.06172839506172839,0,0)" xlink:href="#ad"/><use transform="matrix(0.06172839506172839,0,0,0.06172839506172839,18.456790123456788,0)" xlink:href="#O"/><use transform="matrix(0.06172839506172839,0,0,0.06172839506172839,23.33333333333333,0)" xlink:href="#N"/><use transform="matrix(0.06172839506172839,0,0,0.06172839506172839,34.44444444444444,0)" xlink:href="#P"/><use transform="matrix(0.06172839506172839,0,0,0.06172839506172839,45.55555555555556,0)" xlink:href="#af"/></g><g id="p"><use transform="matrix(0.06172839506172839,0,0,0.06172839506172839,0,0)" xlink:href="#ae"/><use transform="matrix(0.06172839506172839,0,0,0.06172839506172839,14.814814814814813,0)" xlink:href="#O"/><use transform="matrix(0.06172839506172839,0,0,0.06172839506172839,19.691358024691354,0)" xlink:href="#W"/><use transform="matrix(0.06172839506172839,0,0,0.06172839506172839,32.03703703703703,0)" xlink:href="#N"/><use transform="matrix(0.06172839506172839,0,0,0.06172839506172839,43.14814814814814,0)" xlink:href="#P"/><use transform="matrix(0.06172839506172839,0,0,0.06172839506172839,54.25925925925925,0)" xlink:href="#R"/><use transform="matrix(0.06172839506172839,0,0,0.06172839506172839,61.60493827160493,0)" xlink:href="#V"/><use transform="matrix(0.06172839506172839,0,0,0.06172839506172839,73.9506172839506,0)" xlink:href="#V"/><use transform="matrix(0.06172839506172839,0,0,0.06172839506172839,86.29629629629629,0)" xlink:href="#W"/></g><path fill="#333" d="M179-190L93 31C79 59 56 82 12 73V49c39 6 53-20 64-50L1-190h34L92-34l54-156h33" id="ag"/><path fill="#333" d="M47-170H22l-4-78h33" id="ah"/><g id="q"><use transform="matrix(0.06172839506172839,0,0,0.06172839506172839,0,0)" xlink:href="#ae"/><use transform="matrix(0.06172839506172839,0,0,0.06172839506172839,14.814814814814813,0)" xlink:href="#Q"/><use transform="matrix(0.06172839506172839,0,0,0.06172839506172839,27.160493827160494,0)" xlink:href="#L"/><use transform="matrix(0.06172839506172839,0,0,0.06172839506172839,32.03703703703704,0)" xlink:href="#L"/><use transform="matrix(0.06172839506172839,0,0,0.06172839506172839,36.91358024691358,0)" xlink:href="#V"/><use transform="matrix(0.06172839506172839,0,0,0.06172839506172839,49.25925925925926,0)" xlink:href="#ag"/><use transform="matrix(0.06172839506172839,0,0,0.06172839506172839,60.37037037037037,0)" xlink:href="#ah"/><use transform="matrix(0.06172839506172839,0,0,0.06172839506172839,64.5679012345679,0)" xlink:href="#N"/></g><g id="r"><use transform="matrix(0.06172839506172839,0,0,0.06172839506172839,0,0)" xlink:href="#ad"/><use transform="matrix(0.06172839506172839,0,0,0.06172839506172839,18.456790123456788,0)" xlink:href="#Q"/><use transform="matrix(0.06172839506172839,0,0,0.06172839506172839,30.80246913580247,0)" xlink:href="#N"/><use transform="matrix(0.06172839506172839,0,0,0.06172839506172839,41.91358024691358,0)" xlink:href="#O"/><use transform="matrix(0.06172839506172839,0,0,0.06172839506172839,46.79012345679013,0)" xlink:href="#P"/><use transform="matrix(0.06172839506172839,0,0,0.06172839506172839,57.90123456790124,0)" xlink:href="#M"/><use transform="matrix(0.06172839506172839,0,0,0.06172839506172839,70.24691358024693,0)" xlink:href="#L"/></g><g id="s"><use transform="matrix(0.06172839506172839,0,0,0.06172839506172839,0,0)" xlink:href="#K"/><use transform="matrix(0.06172839506172839,0,0,0.06172839506172839,15.987654320987653,0)" xlink:href="#ac"/><use transform="matrix(0.06172839506172839,0,0,0.06172839506172839,28.333333333333332,0)" xlink:href="#M"/><use transform="matrix(0.06172839506172839,0,0,0.06172839506172839,40.67901234567901,0)" xlink:href="#O"/><use transform="matrix(0.06172839506172839,0,0,0.06172839506172839,45.55555555555556,0)" xlink:href="#R"/><use transform="matrix(0.06172839506172839,0,0,0.06172839506172839,52.901234567901234,0)" xlink:href="#N"/></g><path fill="#333" d="M205 0l-28-72H64L36 0H1l101-248h38L239 0h-34zm-38-99l-47-123c-12 45-31 82-46 123h93" id="ai"/><path fill="#333" d="M160-131c35 5 61 23 61 61C221 17 115-2 30 0v-248c76 3 177-17 177 60 0 33-19 50-47 57zm-97-11c50-1 110 9 110-42 0-47-63-36-110-37v79zm0 115c55-2 124 14 124-45 0-56-70-42-124-44v89" id="aj"/><g id="t"><use transform="matrix(0.06172839506172839,0,0,0.06172839506172839,0,0)" xlink:href="#ai"/><use transform="matrix(0.06172839506172839,0,0,0.06172839506172839,14.814814814814813,0)" xlink:href="#aj"/><use transform="matrix(0.06172839506172839,0,0,0.06172839506172839,29.629629629629626,0)" xlink:href="#K"/></g><path fill="#333" d="M30-248c118-7 216 8 213 122C240-48 200 0 122 0H30v-248zM63-27c89 8 146-16 146-99s-60-101-146-95v194" id="ak"/><g id="u"><use transform="matrix(0.06172839506172839,0,0,0.06172839506172839,0,0)" xlink:href="#ak"/><use transform="matrix(0.06172839506172839,0,0,0.06172839506172839,15.987654320987653,0)" xlink:href="#T"/><use transform="matrix(0.06172839506172839,0,0,0.06172839506172839,28.333333333333332,0)" xlink:href="#T"/><use transform="matrix(0.06172839506172839,0,0,0.06172839506172839,40.67901234567901,0)" xlink:href="#R"/><use transform="matrix(0.06172839506172839,0,0,0.06172839506172839,48.02469135802469,0)" xlink:href="#N"/></g><path fill="#333" d="M115-194c53 0 69 39 70 98 0 66-23 100-70 100C84 3 66-7 56-30L54 0H23l1-261h32v101c10-23 28-34 59-34zm-8 174c40 0 45-34 45-75 0-40-5-75-45-74-42 0-51 32-51 76 0 43 10 73 51 73" id="al"/><g id="v"><use transform="matrix(0.06172839506172839,0,0,0.06172839506172839,0,0)" xlink:href="#aj"/><use transform="matrix(0.06172839506172839,0,0,0.06172839506172839,14.814814814814813,0)" xlink:href="#Q"/><use transform="matrix(0.06172839506172839,0,0,0.06172839506172839,27.160493827160494,0)" xlink:href="#al"/><use transform="matrix(0.06172839506172839,0,0,0.06172839506172839,39.50617283950617,0)" xlink:href="#al"/><use transform="matrix(0.06172839506172839,0,0,0.06172839506172839,51.85185185185185,0)" xlink:href="#L"/><use transform="matrix(0.06172839506172839,0,0,0.06172839506172839,56.72839506172839,0)" xlink:href="#V"/><use transform="matrix(0.06172839506172839,0,0,0.06172839506172839,69.07407407407408,0)" xlink:href="#ah"/><use transform="matrix(0.06172839506172839,0,0,0.06172839506172839,73.27160493827161,0)" xlink:href="#N"/></g><path fill="#333" d="M233-177c-1 41-23 64-60 70L243 0h-38l-65-103H63V0H30v-248c88 3 205-21 203 71zM63-129c60-2 137 13 137-47 0-61-80-42-137-45v92" id="am"/><g id="w"><use transform="matrix(0.06172839506172839,0,0,0.06172839506172839,0,0)" xlink:href="#am"/><use transform="matrix(0.06172839506172839,0,0,0.06172839506172839,15.987654320987653,0)" xlink:href="#T"/><use transform="matrix(0.06172839506172839,0,0,0.06172839506172839,28.333333333333332,0)" xlink:href="#T"/><use transform="matrix(0.06172839506172839,0,0,0.06172839506172839,40.67901234567901,0)" xlink:href="#Y"/></g><g id="x"><use transform="matrix(0.06172839506172839,0,0,0.06172839506172839,0,0)" xlink:href="#aj"/><use transform="matrix(0.06172839506172839,0,0,0.06172839506172839,14.814814814814813,0)" xlink:href="#Q"/><use transform="matrix(0.06172839506172839,0,0,0.06172839506172839,27.160493827160494,0)" xlink:href="#al"/><use transform="matrix(0.06172839506172839,0,0,0.06172839506172839,39.50617283950617,0)" xlink:href="#al"/><use transform="matrix(0.06172839506172839,0,0,0.06172839506172839,51.85185185185185,0)" xlink:href="#L"/><use transform="matrix(0.06172839506172839,0,0,0.06172839506172839,56.72839506172839,0)" xlink:href="#V"/></g><g id="y"><use transform="matrix(0.06172839506172839,0,0,0.06172839506172839,0,0)" xlink:href="#K"/><use transform="matrix(0.06172839506172839,0,0,0.06172839506172839,15.987654320987653,0)" xlink:href="#V"/><use transform="matrix(0.06172839506172839,0,0,0.06172839506172839,28.333333333333332,0)" xlink:href="#L"/><use transform="matrix(0.06172839506172839,0,0,0.06172839506172839,33.20987654320987,0)" xlink:href="#L"/></g><g id="z"><use transform="matrix(0.06172839506172839,0,0,0.06172839506172839,0,0)" xlink:href="#aj"/><use transform="matrix(0.06172839506172839,0,0,0.06172839506172839,14.814814814814813,0)" xlink:href="#Q"/><use transform="matrix(0.06172839506172839,0,0,0.06172839506172839,27.160493827160494,0)" xlink:href="#al"/><use transform="matrix(0.06172839506172839,0,0,0.06172839506172839,39.50617283950617,0)" xlink:href="#al"/><use transform="matrix(0.06172839506172839,0,0,0.06172839506172839,51.85185185185185,0)" xlink:href="#L"/><use transform="matrix(0.06172839506172839,0,0,0.06172839506172839,56.72839506172839,0)" xlink:href="#V"/></g><path fill="#333" d="M115-194c55 1 70 41 70 98S169 2 115 4C84 4 66-9 55-30l1 105H24l-1-265h31l2 30c10-21 28-34 59-34zm-8 174c40 0 45-34 45-75s-6-73-45-74c-42 0-51 32-51 76 0 43 10 73 51 73" id="an"/><g id="A"><use transform="matrix(0.06172839506172839,0,0,0.06172839506172839,0,0)" xlink:href="#aa"/><use transform="matrix(0.06172839506172839,0,0,0.06172839506172839,14.814814814814813,0)" xlink:href="#ac"/><use transform="matrix(0.06172839506172839,0,0,0.06172839506172839,27.160493827160494,0)" xlink:href="#M"/><use transform="matrix(0.06172839506172839,0,0,0.06172839506172839,39.50617283950617,0)" xlink:href="#an"/><use transform="matrix(0.06172839506172839,0,0,0.06172839506172839,51.85185185185185,0)" xlink:href="#V"/><use transform="matrix(0.06172839506172839,0,0,0.06172839506172839,64.19753086419753,0)" xlink:href="#N"/></g><g id="B"><use transform="matrix(0.06172839506172839,0,0,0.06172839506172839,0,0)" xlink:href="#ak"/><use transform="matrix(0.06172839506172839,0,0,0.06172839506172839,15.987654320987653,0)" xlink:href="#T"/><use transform="matrix(0.06172839506172839,0,0,0.06172839506172839,28.333333333333332,0)" xlink:href="#Y"/><use transform="matrix(0.06172839506172839,0,0,0.06172839506172839,46.79012345679012,0)" xlink:href="#V"/></g><path fill="#333" d="M266 0h-40l-56-210L115 0H75L2-248h35L96-30l15-64 43-154h32l59 218 59-218h35" id="ao"/><path fill="#333" d="M206 0h-36l-40-164L89 0H53L-1-190h32L70-26l43-164h34l41 164 42-164h31" id="ap"/><g id="C"><use transform="matrix(0.06172839506172839,0,0,0.06172839506172839,0,0)" xlink:href="#ao"/><use transform="matrix(0.06172839506172839,0,0,0.06172839506172839,20.925925925925924,0)" xlink:href="#O"/><use transform="matrix(0.06172839506172839,0,0,0.06172839506172839,25.80246913580247,0)" xlink:href="#W"/><use transform="matrix(0.06172839506172839,0,0,0.06172839506172839,38.148148148148145,0)" xlink:href="#ab"/><use transform="matrix(0.06172839506172839,0,0,0.06172839506172839,50.49382716049382,0)" xlink:href="#T"/><use transform="matrix(0.06172839506172839,0,0,0.06172839506172839,62.8395061728395,0)" xlink:href="#ap"/></g><g id="D"><use transform="matrix(0.06172839506172839,0,0,0.06172839506172839,0,0)" xlink:href="#ai"/><use transform="matrix(0.06172839506172839,0,0,0.06172839506172839,14.814814814814813,0)" xlink:href="#R"/><use transform="matrix(0.06172839506172839,0,0,0.06172839506172839,22.160493827160494,0)" xlink:href="#T"/><use transform="matrix(0.06172839506172839,0,0,0.06172839506172839,34.50617283950617,0)" xlink:href="#Q"/><use transform="matrix(0.06172839506172839,0,0,0.06172839506172839,46.85185185185185,0)" xlink:href="#W"/><use transform="matrix(0.06172839506172839,0,0,0.06172839506172839,59.197530864197525,0)" xlink:href="#ab"/></g><g id="E"><use transform="matrix(0.06172839506172839,0,0,0.06172839506172839,0,0)" xlink:href="#ak"/><use transform="matrix(0.06172839506172839,0,0,0.06172839506172839,15.987654320987653,0)" xlink:href="#M"/><use transform="matrix(0.06172839506172839,0,0,0.06172839506172839,28.333333333333332,0)" xlink:href="#ap"/><use transform="matrix(0.06172839506172839,0,0,0.06172839506172839,44.32098765432099,0)" xlink:href="#W"/></g><g id="F"><use transform="matrix(0.06172839506172839,0,0,0.06172839506172839,0,0)" xlink:href="#aa"/><use transform="matrix(0.06172839506172839,0,0,0.06172839506172839,14.814814814814813,0)" xlink:href="#T"/><use transform="matrix(0.06172839506172839,0,0,0.06172839506172839,27.160493827160494,0)" xlink:href="#M"/><use transform="matrix(0.06172839506172839,0,0,0.06172839506172839,39.50617283950617,0)" xlink:href="#an"/></g><g id="G"><use transform="matrix(0.06172839506172839,0,0,0.06172839506172839,0,0)" xlink:href="#aj"/><use transform="matrix(0.06172839506172839,0,0,0.06172839506172839,14.814814814814813,0)" xlink:href="#Q"/><use transform="matrix(0.06172839506172839,0,0,0.06172839506172839,27.160493827160494,0)" xlink:href="#al"/><use transform="matrix(0.06172839506172839,0,0,0.06172839506172839,39.50617283950617,0)" xlink:href="#al"/><use transform="matrix(0.06172839506172839,0,0,0.06172839506172839,51.85185185185185,0)" xlink:href="#L"/><use transform="matrix(0.06172839506172839,0,0,0.06172839506172839,56.72839506172839,0)" xlink:href="#V"/><use transform="matrix(0.06172839506172839,0,0,0.06172839506172839,69.07407407407408,0)" xlink:href="#ah"/><use transform="matrix(0.06172839506172839,0,0,0.06172839506172839,73.27160493827161,0)" xlink:href="#N"/></g><g id="H"><use transform="matrix(0.06172839506172839,0,0,0.06172839506172839,0,0)" xlink:href="#K"/><use transform="matrix(0.06172839506172839,0,0,0.06172839506172839,15.987654320987653,0)" xlink:href="#L"/><use transform="matrix(0.06172839506172839,0,0,0.06172839506172839,20.864197530864196,0)" xlink:href="#T"/><use transform="matrix(0.06172839506172839,0,0,0.06172839506172839,33.20987654320987,0)" xlink:href="#N"/><use transform="matrix(0.06172839506172839,0,0,0.06172839506172839,44.32098765432099,0)" xlink:href="#V"/><use transform="matrix(0.06172839506172839,0,0,0.06172839506172839,56.666666666666664,0)" xlink:href="#S"/></g><g id="I"><use transform="matrix(0.06172839506172839,0,0,0.06172839506172839,0,0)" xlink:href="#ad"/><use transform="matrix(0.06172839506172839,0,0,0.06172839506172839,18.456790123456788,0)" xlink:href="#Q"/><use transform="matrix(0.06172839506172839,0,0,0.06172839506172839,30.80246913580247,0)" xlink:href="#N"/><use transform="matrix(0.06172839506172839,0,0,0.06172839506172839,41.91358024691358,0)" xlink:href="#V"/><use transform="matrix(0.06172839506172839,0,0,0.06172839506172839,54.25925925925926,0)" xlink:href="#Q"/><use transform="matrix(0.06172839506172839,0,0,0.06172839506172839,66.60493827160494,0)" xlink:href="#Y"/></g><path fill="#333" d="M190 0L58-211 59 0H30v-248h39L202-35l-2-213h31V0h-41" id="aq"/><g id="J"><use transform="matrix(0.06172839506172839,0,0,0.06172839506172839,0,0)" xlink:href="#aq"/><use transform="matrix(0.06172839506172839,0,0,0.06172839506172839,15.987654320987653,0)" xlink:href="#M"/><use transform="matrix(0.06172839506172839,0,0,0.06172839506172839,28.333333333333332,0)" xlink:href="#Y"/><use transform="matrix(0.06172839506172839,0,0,0.06172839506172839,46.79012345679012,0)" xlink:href="#V"/></g></defs></g></svg>