<svg xmlns="http://www.w3.org/2000/svg" xmlns:xlink="http://www.w3.org/1999/xlink" xmlns:lucid="lucid" width="1275.87" height="5380"><g transform="translate(-106.0666666666666 -60)" lucid:page-tab-id="HggfOnHwZgwb"><path d="M0 0h1488v5504H0z" fill="#fff"/><path d="M184 5420h-49.93a8 8 0 0 1-8-8V88a8 8 0 0 1 8-8H184z" stroke="#333" fill="#f9d2de"/><path d="M184 80h1169.93a8 8 0 0 1 8 8v312H184zM184 400h1177.93v320H184zM184 720h1177.93v320H184zM184 1040h1177.93v320H184zM184 1360h1177.93v320H184zM184 1680h1177.93v520H184zM184 2200h1177.93v320H184zM184 2520h1177.93v640H184zM184 3160h1177.93v1120H184zM1361.93 4280v1132a8 8 0 0 1-8 8H184V4280z" stroke="#333" fill="none"/><use xlink:href="#a" transform="matrix(-1.8369701987210297e-16,-1,1,-1.8369701987210297e-16,126.06666666666706,5420) translate(2634.2719135802467 36.15555555555555)"/><use xlink:href="#b" transform="matrix(-1.8369701987210297e-16,-1,1,-1.8369701987210297e-16,183.99999999999997,400) translate(125.26574074074075 36.15555555555555)"/><use xlink:href="#c" transform="matrix(-1.8369701987210297e-16,-1,1,-1.8369701987210297e-16,183.99999999999994,720) translate(80.59320987654324 36.15555555555555)"/><use xlink:href="#d" transform="matrix(-1.8369701987210297e-16,-1,1,-1.8369701987210297e-16,184,1040.0000000000002) translate(100.51944444444447 36.15555555555555)"/><use xlink:href="#e" transform="matrix(-1.8369701987210297e-16,-1,1,-1.8369701987210297e-16,184,1360) translate(44.86512345679017 36.15555555555555)"/><use xlink:href="#f" transform="matrix(-1.8369701987210297e-16,-1,1,-1.8369701987210297e-16,184,1360) translate(173.7645061728395 36.15555555555555)"/><use xlink:href="#g" transform="matrix(-1.8369701987210297e-16,-1,1,-1.8369701987210297e-16,184,1680) translate(120.24691358024694 36.15555555555555)"/><use xlink:href="#g" transform="matrix(-1.8369701987210297e-16,-1,1,-1.8369701987210297e-16,184,2200) translate(220.24691358024694 36.15555555555555)"/><use xlink:href="#g" transform="matrix(-1.8369701987210297e-16,-1,1,-1.8369701987210297e-16,184,2520) translate(120.24691358024694 36.15555555555555)"/><use xlink:href="#g" transform="matrix(-1.8369701987210297e-16,-1,1,-1.8369701987210297e-16,184,3160) translate(280.24691358024694 36.15555555555555)"/><use xlink:href="#g" transform="matrix(-1.8369701987210297e-16,-1,1,-1.8369701987210297e-16,184,4280) translate(520.2469135802469 36.15555555555555)"/><use xlink:href="#g" transform="matrix(-1.8369701987210297e-16,-1,1,-1.8369701987210297e-16,183.9999999999991,5420) translate(530.2469135802469 36.15555555555555)"/><path d="M1026.07 168a8 8 0 0 1 8-8h224a8 8 0 0 1 8 8v104a8 8 0 0 1-8 8h-224a8 8 0 0 1-8-8z" stroke="#333" fill="#f9d2de"/><use xlink:href="#b" transform="matrix(1,0,0,1,1031.0666666666666,165) translate(80.26574074074075 62.99722222222221)"/><path d="M1026.07 508a8 8 0 0 1 8-8h224a8 8 0 0 1 8 8v104a8 8 0 0 1-8 8h-224a8 8 0 0 1-8-8z" stroke="#333" fill="#f9d2de"/><use xlink:href="#c" transform="matrix(1,0,0,1,1031.0666666666666,505) translate(35.59320987654324 62.99722222222221)"/><path d="M1025.42 828a8 8 0 0 1 8-8h224a8 8 0 0 1 8 8v104a8 8 0 0 1-8 8h-224a8 8 0 0 1-8-8z" stroke="#333" fill="#f9d2de"/><use xlink:href="#d" transform="matrix(1,0,0,1,1030.4166666666665,825) translate(55.519444444444474 62.99722222222221)"/><path d="M586.07 748a8 8 0 0 1 8-8h224a8 8 0 0 1 8 8v104a8 8 0 0 1-8 8h-224a8 8 0 0 1-8-8z" stroke="#333" fill="#f9d2de"/><use xlink:href="#e" transform="matrix(1,0,0,1,591.0666666666666,745) translate(4.933641975308689 62.99722222222221)"/><use xlink:href="#h" transform="matrix(1,0,0,1,591.0666666666666,745) translate(133.83302469135802 62.99722222222221)"/><path d="M586.07 888a8 8 0 0 1 8-8h224a8 8 0 0 1 8 8v104a8 8 0 0 1-8 8h-224a8 8 0 0 1-8-8z" stroke="#333" fill="#f9d2de"/><use xlink:href="#c" transform="matrix(1,0,0,1,591.0666666666666,885) translate(35.59320987654324 62.99722222222221)"/><path d="M827.07 800l6.85.15 6.7.42 6.17.65 5.73.85 5.4 1.02 5.1 1.2 4.9 1.36 4.75 1.54 4.65 1.73 4.6 1.93 4.64 2.2 4.76 2.48 5.02 2.9 5.52 3.5 6.58 4.6 10.3 7.86 24.3 19.07 6.57 4.58 5.5 3.5 5.03 2.9 4.76 2.5 4.65 2.2 4.6 1.92 4.65 1.73 4.75 1.54 4.9 1.37 5.1 1.2 5.4 1.03 5.74.85 3.86.4" stroke="#333" stroke-linejoin="round" fill="none"/><path d="M827.1 799.5l-.03 1h-.5v-1z" stroke="#333" stroke-width=".05" fill="#333"/><path d="M1023.3 879.92l-14.48 3.92.46-9.26z" stroke="#333" fill="#333"/><path d="M827.07 940l9.14-.2 8.55-.53 7.7-.8 7-1.04 6.5-1.24 6.14-1.45 5.86-1.63 5.7-1.86 5.72-2.13 5.88-2.47 6.36-3 7.6-3.98 40.64-23.34 6.36-3 5.88-2.47 5.7-2.13 5.73-1.86 5.86-1.63 6.12-1.44 6.5-1.23 7.02-1.03 7.7-.8 1.8-.12" stroke="#333" stroke-linejoin="round" fill="none"/><path d="M827.1 940.5h-.53v-1h.5z" stroke="#333" stroke-width=".05" fill="#333"/><path d="M1023.3 880.06l-14.08 5.17-.35-9.26z" stroke="#333" fill="#333"/><path d="M1025.42 1148a8 8 0 0 1 8-8h224a8 8 0 0 1 8 8v104a8 8 0 0 1-8 8h-224a8 8 0 0 1-8-8z" stroke="#333" fill="#f9d2de"/><use xlink:href="#i" transform="matrix(1,0,0,1,1030.4166666666665,1145) translate(55.519444444444474 42.37222222222221)"/><use xlink:href="#f" transform="matrix(1,0,0,1,1030.4166666666665,1145) translate(64.31481481481484 85.30555555555554)"/><path d="M1019.5 1486.6a8 8 0 0 1 8-8h224a8 8 0 0 1 8 8v104a8 8 0 0 1-8 8h-224a8 8 0 0 1-8-8z" stroke="#333" fill="#f9d2de"/><use xlink:href="#j" transform="matrix(1,0,0,1,1024.4904207208967,1483.5874605831727) translate(5.778395061728446 62.99722222222221)"/><use xlink:href="#f" transform="matrix(1,0,0,1,1024.4904207208967,1483.5874605831727) translate(122.85123456790122 62.99722222222221)"/><path d="M1019.5 1888a8 8 0 0 1 8-8h224a8 8 0 0 1 8 8v104a8 8 0 0 1-8 8h-224a8 8 0 0 1-8-8z" stroke="#333" fill="#f9d2de"/><use xlink:href="#k" transform="matrix(1,0,0,1,1024.4904207208967,1885) translate(61.43271604938275 62.99722222222221)"/><path d="M1019.5 2289.4a8 8 0 0 1 8-8h224a8 8 0 0 1 8 8v104a8 8 0 0 1-8 8h-224a8 8 0 0 1-8-8z" stroke="#333" fill="#f9d2de"/><use xlink:href="#l" transform="matrix(1,0,0,1,1024.4904207208967,2286.4125394168273) translate(52.43858024691362 62.99722222222221)"/><path d="M586.07 1486.6a8 8 0 0 1 8-8h224a8 8 0 0 1 8 8v104a8 8 0 0 1-8 8h-224a8 8 0 0 1-8-8z" stroke="#333" fill="#f9d2de"/><use xlink:href="#i" transform="matrix(1,0,0,1,591.0666666666666,1483.5874605831727) translate(55.519444444444474 42.37222222222221)"/><use xlink:href="#f" transform="matrix(1,0,0,1,591.0666666666666,1483.5874605831727) translate(64.31481481481484 85.30555555555554)"/><path d="M827.07 1538.6h175.54" stroke="#333" fill="none"/><path d="M827.08 1539.1h-.5v-1h.5z" stroke="#333" stroke-width=".05" fill="#333"/><path d="M1017.37 1538.6l-14.26 4.62v-9.27z" stroke="#333" fill="#333"/><path d="M586.07 1768a8 8 0 0 1 8-8h224a8 8 0 0 1 8 8v104a8 8 0 0 1-8 8h-224a8 8 0 0 1-8-8z" stroke="#333" fill="#f9d2de"/><use xlink:href="#i" transform="matrix(1,0,0,1,591.0666666666666,1765) translate(55.519444444444474 42.37222222222221)"/><use xlink:href="#f" transform="matrix(1,0,0,1,591.0666666666666,1765) translate(64.31481481481484 85.30555555555554)"/><path d="M586.07 1988a8 8 0 0 1 8-8h224a8 8 0 0 1 8 8v104a8 8 0 0 1-8 8h-224a8 8 0 0 1-8-8z" stroke="#333" fill="#f9d2de"/><use xlink:href="#j" transform="matrix(1,0,0,1,591.0666666666666,1985) translate(5.778395061728446 62.99722222222221)"/><use xlink:href="#f" transform="matrix(1,0,0,1,591.0666666666666,1985) translate(122.85123456790122 62.99722222222221)"/><path d="M827.07 2040l5.1-.12 5.2-.32 4.88-.5 4.6-.7 4.38-.83 4.2-.98 4.04-1.13 3.93-1.28 3.85-1.43 3.8-1.58 3.77-1.78 3.8-2 3.85-2.2 3.98-2.54 4.17-2.9 4.5-3.4 5.02-4.18 6.12-5.52 9.72-9.58 23.32-23.62 6.1-5.52 5.05-4.17 4.5-3.4 4.16-2.9 4-2.53 3.84-2.22 3.8-2 3.77-1.77 3.8-1.6 3.86-1.42 3.93-1.28 4.03-1.13 4.2-.98 4.38-.84 3.95-.58" stroke="#333" stroke-linejoin="round" fill="none"/><path d="M827.1 2040.5h-.53v-1h.5z" stroke="#333" stroke-width=".05" fill="#333"/><path d="M1017.38 1940.1l-13.94 5.55-.6-9.26z" stroke="#333" fill="#333"/><path d="M827.07 1820l4.2.1 4.4.28 4.2.43 3.98.6 3.83.73 3.7.87 3.57 1 3.5 1.13 3.42 1.28 3.4 1.43 3.36 1.6 3.38 1.75 3.42 1.97 3.47 2.2 3.56 2.5 3.72 2.82 3.95 3.27 4.3 3.86 4.82 4.73 5.83 6.23 8.63 10.05 26.78 32.44 5.83 6.23 4.84 4.73 4.3 3.86 3.93 3.27 3.73 2.83 3.57 2.48 3.47 2.2 3.4 1.98 3.38 1.76 3.38 1.6 3.38 1.4 3.44 1.3 3.5 1.12 3.57 1 3.68.87 3.83.73.97.14" stroke="#333" stroke-linejoin="round" fill="none"/><path d="M827.1 1819.5l-.03 1h-.5v-1z" stroke="#333" stroke-width=".05" fill="#333"/><path d="M1017.38 1939.88l-14.58 3.52.7-9.24z" stroke="#333" fill="#333"/><path d="M706.07 1881v82.12" stroke="#333" fill="none"/><path d="M706.57 1881h-1v-.5h1z" stroke="#333" stroke-width=".05" fill="#333"/><path d="M706.07 1977.88l-4.64-14.26h9.27z" stroke="#333" fill="#333"/><path d="M1025.42 2788a8 8 0 0 1 8-8h224a8 8 0 0 1 8 8v104a8 8 0 0 1-8 8h-224a8 8 0 0 1-8-8z" stroke="#333" fill="#f9d2de"/><use xlink:href="#m" transform="matrix(1,0,0,1,1030.4166666666665,2785) translate(60.38919753086422 42.37222222222221)"/><use xlink:href="#n" transform="matrix(1,0,0,1,1030.4166666666665,2785) translate(139.79598765432098 42.37222222222221)"/><use xlink:href="#o" transform="matrix(1,0,0,1,1030.4166666666665,2785) translate(52.43858024691362 85.30555555555554)"/><path d="M586.07 2588a8 8 0 0 1 8-8h224a8 8 0 0 1 8 8v104a8 8 0 0 1-8 8h-224a8 8 0 0 1-8-8z" stroke="#333" fill="#f9d2de"/><use xlink:href="#b" transform="matrix(1,0,0,1,591.0666666666666,2585) translate(80.26574074074075 62.99722222222221)"/><path d="M586.07 2788a8 8 0 0 1 8-8h224a8 8 0 0 1 8 8v104a8 8 0 0 1-8 8h-224a8 8 0 0 1-8-8z" stroke="#333" fill="#f9d2de"/><use xlink:href="#i" transform="matrix(1,0,0,1,591.0666666666666,2785) translate(55.519444444444474 42.37222222222221)"/><use xlink:href="#f" transform="matrix(1,0,0,1,591.0666666666666,2785) translate(64.31481481481484 85.30555555555554)"/><path d="M586.07 2988a8 8 0 0 1 8-8h224a8 8 0 0 1 8 8v104a8 8 0 0 1-8 8h-224a8 8 0 0 1-8-8z" stroke="#333" fill="#f9d2de"/><use xlink:href="#l" transform="matrix(1,0,0,1,591.0666666666666,2985) translate(52.43858024691362 62.99722222222221)"/><path d="M827.07 3040l2.55-.06 2.95-.2 2.84-.3 2.78-.4 2.7-.5 2.66-.63 2.6-.72 2.6-.84 2.56-.96 2.56-1.08 2.57-1.2 2.58-1.36 2.63-1.5 2.65-1.7 2.72-1.88 2.8-2.12 2.87-2.4 3-2.7 3.16-3.1 3.35-3.55 3.6-4.18 3.9-4.95 4.38-6.03 5.05-7.6 6.24-10.32 9.23-16.88 31.57-60.9 6.23-10.32 5.05-7.6 4.37-6.04 3.9-4.95 3.6-4.17 3.35-3.56 3.15-3.1 3-2.7 2.9-2.4 2.8-2.1 2.7-1.9 2.66-1.7 2.6-1.5 2.6-1.35 2.56-1.2 2.56-1.08 2.57-.96 2.58-.83 2.62-.73.74-.17" stroke="#333" stroke-linejoin="round" fill="none"/><path d="M827.1 3040.5h-.53v-1h.5z" stroke="#333" stroke-width=".05" fill="#333"/><path d="M1023.3 2841.84l-13.6 6.28-1.1-9.2z" stroke="#333" fill="#333"/><path d="M827.07 2840h181.46" stroke="#333" stroke-linejoin="round" fill="none"/><path d="M827.08 2840.5h-.5v-1h.5z" stroke="#333" stroke-width=".05" fill="#333"/><path d="M1023.3 2840l-14.27 4.64v-9.28z" stroke="#333" fill="#333"/><path d="M827.07 2640l2.55.06 2.95.2 2.84.3 2.78.4 2.7.5 2.66.63 2.6.72 2.6.84 2.56.96 2.56 1.08 2.57 1.2 2.58 1.36 2.63 1.5 2.65 1.7 2.72 1.88 2.8 2.12 2.87 2.4 3 2.7 3.16 3.1 3.35 3.55 3.6 4.18 3.9 4.95 4.38 6.03 5.05 7.6 6.24 10.32 9.23 16.88 31.57 60.9 6.23 10.32 5.05 7.6 4.37 6.04 3.9 4.95 3.6 4.17 3.35 3.56 3.15 3.1 3 2.7 2.9 2.4 2.8 2.1 2.7 1.9 2.66 1.7 2.6 1.5 2.6 1.35 2.56 1.2 2.56 1.08 2.57.96 2.58.83 2.62.73.74.17" stroke="#333" stroke-linejoin="round" fill="none"/><path d="M827.1 2639.5l-.03 1h-.5v-1z" stroke="#333" stroke-width=".05" fill="#333"/><path d="M1023.3 2838.16l-14.7 2.93 1.1-9.22z" stroke="#333" fill="#333"/><path d="M1044.77 3668a8 8 0 0 1 8-8h224a8 8 0 0 1 8 8v104a8 8 0 0 1-8 8h-224a8 8 0 0 1-8-8z" stroke="#333" fill="#b391b5"/><use xlink:href="#j" transform="matrix(1,0,0,1,1049.7666666666664,3665) translate(1.8527777777778311 42.37222222222221)"/><use xlink:href="#p" transform="matrix(1,0,0,1,1049.7666666666664,3665) translate(118.9256172839506 42.37222222222221)"/><use xlink:href="#n" transform="matrix(1,0,0,1,1049.7666666666664,3665) translate(198.33240740740735 42.37222222222221)"/><use xlink:href="#o" transform="matrix(1,0,0,1,1049.7666666666664,3665) translate(52.43858024691362 85.30555555555554)"/><path d="M626.57 3348a8 8 0 0 1 8-8h224a8 8 0 0 1 8 8v104a8 8 0 0 1-8 8h-224a8 8 0 0 1-8-8z" stroke="#333" fill="#f9d2de"/><use xlink:href="#k" transform="matrix(1,0,0,1,631.5666666666665,3345) translate(61.43271604938275 62.99722222222221)"/><path d="M266.57 3228a8 8 0 0 1 8-8h224a8 8 0 0 1 8 8v104a8 8 0 0 1-8 8h-224a8 8 0 0 1-8-8z" stroke="#333" fill="#f9d2de"/><use xlink:href="#i" transform="matrix(1,0,0,1,271.5666666666666,3225) translate(55.519444444444474 42.37222222222221)"/><use xlink:href="#f" transform="matrix(1,0,0,1,271.5666666666666,3225) translate(64.31481481481484 85.30555555555554)"/><path d="M266.57 3448a8 8 0 0 1 8-8h224a8 8 0 0 1 8 8v104a8 8 0 0 1-8 8h-224a8 8 0 0 1-8-8z" stroke="#333" fill="#f9d2de"/><use xlink:href="#j" transform="matrix(1,0,0,1,271.5666666666666,3445) translate(5.778395061728446 62.99722222222221)"/><use xlink:href="#f" transform="matrix(1,0,0,1,271.5666666666666,3445) translate(122.85123456790122 62.99722222222221)"/><path d="M507.57 3500l1.68-.05 2.08-.13 2-.2 1.93-.3 1.88-.35 1.83-.43 1.8-.5 1.76-.58 1.75-.65 1.73-.73 1.75-.8 1.74-.93 1.74-1.02 1.78-1.13 1.83-1.28 1.87-1.43 1.94-1.63 2.04-1.84 2.16-2.13 2.32-2.48 2.55-2.97 2.9-3.68 3.47-4.83 4.83-7.34 20.1-32.54 3.48-4.83 2.9-3.68 2.56-2.97 2.32-2.5 2.15-2.1 2.04-1.85 1.94-1.62 1.9-1.42 1.8-1.27 1.8-1.13 1.75-1 1.74-.93 1.72-.8 1.74-.75 1.14-.43" stroke="#333" stroke-linejoin="round" fill="none"/><path d="M507.6 3500.5h-.53v-1h.5z" stroke="#333" stroke-width=".05" fill="#333"/><path d="M624.47 3400.27l-13.27 7-1.57-9.14z" stroke="#333" fill="#333"/><path d="M507.57 3280l1.3.04 1.77.1 1.7.2 1.64.23 1.6.3 1.6.38 1.55.43 1.54.5 1.53.57 1.53.64 1.53.7 1.54.82 1.56.9 1.6 1 1.6 1.13 1.67 1.27 1.72 1.43 1.8 1.6 1.88 1.86 2 2.14 2.14 2.48 2.33 2.95 2.6 3.58 3 4.5 3.66 6.08 5.3 9.67 19.9 38.67 3.68 6.07 3 4.5 2.6 3.6 2.32 2.94 2.15 2.48 2 2.13 1.9 1.84 1.78 1.6 1.72 1.44 1.67 1.26 1.62 1.13 1.57 1 1.56.9 1.54.82 1.53.7.33.14" stroke="#333" stroke-linejoin="round" fill="none"/><path d="M507.6 3279.5l-.03 1h-.5v-1z" stroke="#333" stroke-width=".05" fill="#333"/><path d="M624.48 3399.68l-14.9 1.68 1.85-9.08z" stroke="#333" fill="#333"/><path d="M386.57 3341v82.12" stroke="#333" fill="none"/><path d="M387.07 3341h-1v-.5h1z" stroke="#333" stroke-width=".05" fill="#333"/><path d="M386.57 3437.88l-4.64-14.26h9.27z" stroke="#333" fill="#333"/><path d="M867.57 3400l.95.03 1.43.1 1.4.14 1.4.2 1.38.27 1.37.32 1.38.4 1.38.43 1.4.5 1.4.6 1.43.68 1.45.76 1.5.86 1.53.98 1.58 1.1 1.64 1.24 1.7 1.42 1.8 1.6 1.88 1.85 2 2.1 2.1 2.47 2.28 2.87 2.46 3.4 2.68 4.02 2.95 4.9 3.3 6 3.74 7.56 4.35 9.8 5.25 13.33 6.8 19.64 10.86 36.3 33.47 120.5 6.8 19.65 5.26 13.32 4.34 9.8 3.75 7.57 3.3 6 2.94 4.9 2.68 4.03 2.45 3.4 2.28 2.86 2.12 2.46 2 2.1 1.87 1.85 1.8 1.6 1.7 1.43 1.63 1.24 1.6 1.1 1.52.98 1.48.86 1.12.6" stroke="#333" stroke-linejoin="round" fill="none"/><path d="M867.6 3399.5l-.03 1h-.5v-1z" stroke="#333" stroke-width=".05" fill="#333"/><path d="M1042.7 3735.62l-14.96 1.1 2.2-9z" stroke="#333" fill="#333"/><path d="M626.57 4018a8 8 0 0 1 8-8h224a8 8 0 0 1 8 8v104a8 8 0 0 1-8 8h-224a8 8 0 0 1-8-8z" stroke="#333" fill="#f9d2de"/><use xlink:href="#d" transform="matrix(1,0,0,1,631.5666666666665,4015.0000000000005) translate(55.519444444444474 62.99722222222221)"/><path d="M266.57 3938a8 8 0 0 1 8-8h224a8 8 0 0 1 8 8v104a8 8 0 0 1-8 8h-224a8 8 0 0 1-8-8z" stroke="#333" fill="#f9d2de"/><use xlink:href="#e" transform="matrix(1,0,0,1,271.5666666666666,3935) translate(4.933641975308689 62.99722222222221)"/><use xlink:href="#h" transform="matrix(1,0,0,1,271.5666666666666,3935) translate(133.83302469135802 62.99722222222221)"/><path d="M266.57 4078a8 8 0 0 1 8-8h224a8 8 0 0 1 8 8v104a8 8 0 0 1-8 8h-224a8 8 0 0 1-8-8z" stroke="#333" fill="#f9d2de"/><use xlink:href="#c" transform="matrix(1,0,0,1,271.5666666666666,4075) translate(35.59320987654324 62.99722222222221)"/><path d="M507.57 3990l2.2.06 2.56.16 2.44.25 2.32.35 2.23.43 2.17.5 2.1.6 2.07.67 2.02.75 2 .85 2 .94 2 1.05 2 1.18 2.06 1.3 2.1 1.48 2.2 1.66 2.28 1.9 2.45 2.23 2.68 2.65 3.08 3.3 3.82 4.46 6.4 8.16 13.97 18.32 3.82 4.46 3.08 3.3 2.7 2.65 2.44 2.22 2.3 1.9 2.17 1.67 2.1 1.47 2.05 1.32 2.02 1.17 2 1.04 2 .94 2 .85 2.03.75 2.06.67.36.1" stroke="#333" stroke-linejoin="round" fill="none"/><path d="M507.6 3989.5l-.03 1h-.5v-1z" stroke="#333" stroke-width=".05" fill="#333"/><path d="M624.46 4069.78l-14.76 2.63 1.27-9.17z" stroke="#333" fill="#333"/><path d="M507.57 4130l3.07-.07 3.32-.2 3.1-.34 2.92-.44 2.77-.53 2.66-.63 2.57-.7 2.48-.82 2.43-.9 2.4-1.02 2.4-1.13 2.4-1.26 2.44-1.42 2.53-1.62 2.7-1.87 2.9-2.23 3.36-2.8 4.34-3.9 20.8-20.17 3.34-2.8 2.92-2.22 2.68-1.87 2.53-1.62 2.46-1.42 2.4-1.26 2.4-1.13 2.4-1 2.42-.92 2.5-.8 2.55-.72 2.07-.5" stroke="#333" stroke-linejoin="round" fill="none"/><path d="M507.6 4130.5h-.53v-1h.5z" stroke="#333" stroke-width=".05" fill="#333"/><path d="M624.46 4070.17l-13.7 6.1-.97-9.22z" stroke="#333" fill="#333"/><path d="M867.57 4070l.9-.03 1.37-.1 1.35-.13 1.33-.2 1.33-.25 1.32-.32 1.33-.37 1.35-.43 1.35-.5 1.36-.57 1.38-.65 1.4-.74 1.46-.83 1.5-.94 1.52-1.07 1.6-1.2 1.66-1.38 1.74-1.57 1.83-1.78 1.94-2.07 2.05-2.4 2.22-2.8 2.4-3.3 2.6-3.93 2.88-4.76 3.2-5.85 3.65-7.35 4.22-9.5 5.06-12.8 6.42-18.52 9.45-31.58 39.3-145.68 6.4-18.5 5.06-12.82 4.23-9.5 3.64-7.36 3.2-5.86 2.9-4.76 2.6-3.93 2.4-3.3 2.2-2.8 2.08-2.4 1.94-2.07 1.82-1.8 1.74-1.56 1.66-1.37 1.6-1.2 1.53-1.08 1.48-.94 1.45-.84.57-.3" stroke="#333" stroke-linejoin="round" fill="none"/><path d="M867.6 4070.5h-.53v-1h.5z" stroke="#333" stroke-width=".05" fill="#333"/><path d="M1042.7 3720.4l-12.7 8-2.27-8.98z" stroke="#333" fill="#333"/><path d="M546.07 3568a8 8 0 0 1 8-8h224a8 8 0 0 1 8 8v104a8 8 0 0 1-8 8h-224a8 8 0 0 1-8-8z" stroke="#333" fill="#f9d2de"/><g><use xlink:href="#l" transform="matrix(1,0,0,1,551.0666666666666,3564.9999999999995) translate(52.43858024691362 62.99722222222221)"/></g><path d="M787.07 3620l9.4.2 9 .57 8.27.86 7.67 1.13 7.2 1.38 6.8 1.6 6.53 1.8 6.3 2.06 6.2 2.3 6.15 2.6 6.2 2.9 6.44 3.38 6.86 3.96 7.73 4.92 9.88 6.87 45.34 33.8 7.73 4.93 6.87 3.96 6.42 3.37 6.22 2.9 6.14 2.6 6.2 2.3 6.3 2.05 6.52 1.82 6.82 1.6 7.2 1.37 7.66 1.13 8.26.86 2.54.16" stroke="#333" stroke-linejoin="round" fill="none"/><path d="M787.1 3619.5l-.03 1h-.5v-1z" stroke="#333" stroke-width=".05" fill="#333"/><path d="M1042.65 3719.94l-14.43 4.1.35-9.26z" stroke="#333" fill="#333"/><path d="M546.07 3808a8 8 0 0 1 8-8h224a8 8 0 0 1 8 8v104a8 8 0 0 1-8 8h-224a8 8 0 0 1-8-8z" stroke="#333" fill="#f9d2de"/><g><use xlink:href="#b" transform="matrix(1,0,0,1,551.0666666666666,3804.9999999999995) translate(80.26574074074075 62.99722222222221)"/></g><path d="M787.07 3860l6.68-.15 6.7-.42 6.3-.66 5.95-.88 5.68-1.1 5.45-1.27 5.26-1.47 5.1-1.66 5.02-1.86 4.94-2.08 4.92-2.32 4.94-2.58 5-2.9 5.14-3.25 5.35-3.7 5.7-4.34 6.26-5.18 7.25-6.54 9.53-9.35 43.9-45.94 7.24-6.54 6.26-5.18 5.7-4.33 5.35-3.7 5.13-3.27 5.02-2.9 4.93-2.57 4.92-2.32 4.95-2.08 5-1.86 5.12-1.66 5.26-1.47 5.45-1.28 5.68-1.1 5.96-.87 3.8-.4" stroke="#333" stroke-linejoin="round" fill="none"/><path d="M787.1 3860.5h-.53v-1h.5z" stroke="#333" stroke-width=".05" fill="#333"/><path d="M1042.65 3720.08l-14 5.35-.48-9.26z" stroke="#333" fill="#333"/><path d="M626.57 4748a8 8 0 0 1 8-8h224a8 8 0 0 1 8 8v104a8 8 0 0 1-8 8h-224a8 8 0 0 1-8-8z" stroke="#333" fill="#b391b5"/><g><use xlink:href="#i" transform="matrix(1,0,0,1,631.5666666666665,4745) translate(55.519444444444474 42.37222222222221)"/><use xlink:href="#q" transform="matrix(1,0,0,1,631.5666666666665,4745) translate(12.73518518518523 85.30555555555554)"/></g><defs><path fill="#333" d="M30-248c87 1 191-15 191 75 0 78-77 80-158 76V0H30v-248zm33 125c57 0 124 11 124-50 0-59-68-47-124-48v98" id="r"/><path fill="#333" d="M100-194c62-1 85 37 85 99 1 63-27 99-86 99S16-35 15-95c0-66 28-99 85-99zM99-20c44 1 53-31 53-75 0-43-8-75-51-75s-53 32-53 75 10 74 51 75" id="s"/><path fill="#333" d="M24 0v-261h32V0H24" id="t"/><g id="a"><use transform="matrix(0.09938271604938267,0,0,0.09938271604938267,0,0)" xlink:href="#r"/><use transform="matrix(0.09938271604938267,0,0,0.09938271604938267,23.85185185185184,0)" xlink:href="#s"/><use transform="matrix(0.09938271604938267,0,0,0.09938271604938267,43.72839506172838,0)" xlink:href="#s"/><use transform="matrix(0.09938271604938267,0,0,0.09938271604938267,63.60493827160491,0)" xlink:href="#t"/></g><path fill="#333" d="M33 0v-248h34V0H33" id="u"/><path fill="#333" d="M59-47c-2 24 18 29 38 22v24C64 9 27 4 27-40v-127H5v-23h24l9-43h21v43h35v23H59v120" id="v"/><path fill="#333" d="M100-194c63 0 86 42 84 106H49c0 40 14 67 53 68 26 1 43-12 49-29l28 8c-11 28-37 45-77 45C44 4 14-33 15-96c1-61 26-98 85-98zm52 81c6-60-76-77-97-28-3 7-6 17-6 28h103" id="w"/><path fill="#333" d="M210-169c-67 3-38 105-44 169h-31v-121c0-29-5-50-35-48C34-165 62-65 56 0H25l-1-190h30c1 10-1 24 2 32 10-44 99-50 107 0 11-21 27-35 58-36 85-2 47 119 55 194h-31v-121c0-29-5-49-35-48" id="x"/><g id="b"><use transform="matrix(0.09938271604938267,0,0,0.09938271604938267,0,0)" xlink:href="#u"/><use transform="matrix(0.09938271604938267,0,0,0.09938271604938267,9.938271604938267,0)" xlink:href="#v"/><use transform="matrix(0.09938271604938267,0,0,0.09938271604938267,19.876543209876534,0)" xlink:href="#w"/><use transform="matrix(0.09938271604938267,0,0,0.09938271604938267,39.75308641975307,0)" xlink:href="#x"/></g><path fill="#333" d="M30 0v-248h187v28H63v79h144v27H63v87h162V0H30" id="y"/><path fill="#333" d="M115-194c55 1 70 41 70 98S169 2 115 4C84 4 66-9 55-30l1 105H24l-1-265h31l2 30c10-21 28-34 59-34zm-8 174c40 0 45-34 45-75s-6-73-45-74c-42 0-51 32-51 76 0 43 10 73 51 73" id="z"/><path fill="#333" d="M179-190L93 31C79 59 56 82 12 73V49c39 6 53-20 64-50L1-190h34L92-34l54-156h33" id="A"/><g id="c"><use transform="matrix(0.09938271604938267,0,0,0.09938271604938267,0,0)" xlink:href="#y"/><use transform="matrix(0.09938271604938267,0,0,0.09938271604938267,23.85185185185184,0)" xlink:href="#x"/><use transform="matrix(0.09938271604938267,0,0,0.09938271604938267,53.56728395061726,0)" xlink:href="#z"/><use transform="matrix(0.09938271604938267,0,0,0.09938271604938267,73.4438271604938,0)" xlink:href="#t"/><use transform="matrix(0.09938271604938267,0,0,0.09938271604938267,81.29506172839503,0)" xlink:href="#s"/><use transform="matrix(0.09938271604938267,0,0,0.09938271604938267,101.17160493827156,0)" xlink:href="#A"/><use transform="matrix(0.09938271604938267,0,0,0.09938271604938267,119.06049382716044,0)" xlink:href="#w"/><use transform="matrix(0.09938271604938267,0,0,0.09938271604938267,138.937037037037,0)" xlink:href="#w"/></g><path fill="#333" d="M212-179c-10-28-35-45-73-45-59 0-87 40-87 99 0 60 29 101 89 101 43 0 62-24 78-52l27 14C228-24 195 4 139 4 59 4 22-46 18-125c-6-104 99-153 187-111 19 9 31 26 39 46" id="B"/><path fill="#333" d="M84 4C-5 8 30-112 23-190h32v120c0 31 7 50 39 49 72-2 45-101 50-169h31l1 190h-30c-1-10 1-25-2-33-11 22-28 36-60 37" id="C"/><path fill="#333" d="M114-163C36-179 61-72 57 0H25l-1-190h30c1 12-1 29 2 39 6-27 23-49 58-41v29" id="D"/><path fill="#333" d="M141-36C126-15 110 5 73 4 37 3 15-17 15-53c-1-64 63-63 125-63 3-35-9-54-41-54-24 1-41 7-42 31l-33-3c5-37 33-52 76-52 45 0 72 20 72 64v82c-1 20 7 32 28 27v20c-31 9-61-2-59-35zM48-53c0 20 12 33 32 33 41-3 63-29 60-74-43 2-92-5-92 41" id="E"/><g id="d"><use transform="matrix(0.09938271604938267,0,0,0.09938271604938267,0,0)" xlink:href="#B"/><use transform="matrix(0.09938271604938267,0,0,0.09938271604938267,25.740123456790112,0)" xlink:href="#C"/><use transform="matrix(0.09938271604938267,0,0,0.09938271604938267,45.616666666666646,0)" xlink:href="#D"/><use transform="matrix(0.09938271604938267,0,0,0.09938271604938267,57.443209876543186,0)" xlink:href="#E"/><use transform="matrix(0.09938271604938267,0,0,0.09938271604938267,77.31975308641972,0)" xlink:href="#v"/><use transform="matrix(0.09938271604938267,0,0,0.09938271604938267,87.25802469135799,0)" xlink:href="#s"/><use transform="matrix(0.09938271604938267,0,0,0.09938271604938267,107.13456790123452,0)" xlink:href="#D"/></g><g id="e"><use transform="matrix(0.09938271604938267,0,0,0.09938271604938267,0,0)" xlink:href="#B"/><use transform="matrix(0.09938271604938267,0,0,0.09938271604938267,25.740123456790112,0)" xlink:href="#C"/><use transform="matrix(0.09938271604938267,0,0,0.09938271604938267,45.616666666666646,0)" xlink:href="#D"/><use transform="matrix(0.09938271604938267,0,0,0.09938271604938267,57.443209876543186,0)" xlink:href="#E"/><use transform="matrix(0.09938271604938267,0,0,0.09938271604938267,77.31975308641972,0)" xlink:href="#v"/><use transform="matrix(0.09938271604938267,0,0,0.09938271604938267,87.25802469135799,0)" xlink:href="#s"/><use transform="matrix(0.09938271604938267,0,0,0.09938271604938267,107.13456790123452,0)" xlink:href="#D"/></g><path fill="#333" d="M185-189c-5-48-123-54-124 2 14 75 158 14 163 119 3 78-121 87-175 55-17-10-28-26-33-46l33-7c5 56 141 63 141-1 0-78-155-14-162-118-5-82 145-84 179-34 5 7 8 16 11 25" id="F"/><path fill="#333" d="M96-169c-40 0-48 33-48 73s9 75 48 75c24 0 41-14 43-38l32 2c-6 37-31 61-74 61-59 0-76-41-82-99-10-93 101-131 147-64 4 7 5 14 7 22l-32 3c-4-21-16-35-41-35" id="G"/><g id="f"><use transform="matrix(0.09938271604938267,0,0,0.09938271604938267,0,0)" xlink:href="#F"/><use transform="matrix(0.09938271604938267,0,0,0.09938271604938267,23.85185185185184,0)" xlink:href="#z"/><use transform="matrix(0.09938271604938267,0,0,0.09938271604938267,43.72839506172838,0)" xlink:href="#E"/><use transform="matrix(0.09938271604938267,0,0,0.09938271604938267,63.60493827160491,0)" xlink:href="#G"/><use transform="matrix(0.09938271604938267,0,0,0.09938271604938267,81.4938271604938,0)" xlink:href="#w"/></g><path fill="#333" d="M30 0v-248h33v221h125V0H30" id="H"/><path fill="#333" d="M117-194c89-4 53 116 60 194h-32v-121c0-31-8-49-39-48C34-167 62-67 57 0H25l-1-190h30c1 10-1 24 2 32 11-22 29-35 61-36" id="I"/><g id="g"><use transform="matrix(0.09938271604938267,0,0,0.09938271604938267,0,0)" xlink:href="#H"/><use transform="matrix(0.09938271604938267,0,0,0.09938271604938267,19.876543209876534,0)" xlink:href="#E"/><use transform="matrix(0.09938271604938267,0,0,0.09938271604938267,39.75308641975307,0)" xlink:href="#I"/><use transform="matrix(0.09938271604938267,0,0,0.09938271604938267,59.629629629629605,0)" xlink:href="#w"/></g><path fill="#333" d="M233-177c-1 41-23 64-60 70L243 0h-38l-65-103H63V0H30v-248c88 3 205-21 203 71zM63-129c60-2 137 13 137-47 0-61-80-42-137-45v92" id="J"/><path fill="#333" d="M135-143c-3-34-86-38-87 0 15 53 115 12 119 90S17 21 10-45l28-5c4 36 97 45 98 0-10-56-113-15-118-90-4-57 82-63 122-42 12 7 21 19 24 35" id="K"/><g id="h"><use transform="matrix(0.09938271604938267,0,0,0.09938271604938267,0,0)" xlink:href="#J"/><use transform="matrix(0.09938271604938267,0,0,0.09938271604938267,25.740123456790112,0)" xlink:href="#s"/><use transform="matrix(0.09938271604938267,0,0,0.09938271604938267,45.616666666666646,0)" xlink:href="#t"/><use transform="matrix(0.09938271604938267,0,0,0.09938271604938267,53.467901234567876,0)" xlink:href="#w"/><use transform="matrix(0.09938271604938267,0,0,0.09938271604938267,73.3444444444444,0)" xlink:href="#K"/></g><g id="i"><use transform="matrix(0.09938271604938267,0,0,0.09938271604938267,0,0)" xlink:href="#B"/><use transform="matrix(0.09938271604938267,0,0,0.09938271604938267,25.740123456790112,0)" xlink:href="#C"/><use transform="matrix(0.09938271604938267,0,0,0.09938271604938267,45.616666666666646,0)" xlink:href="#D"/><use transform="matrix(0.09938271604938267,0,0,0.09938271604938267,57.443209876543186,0)" xlink:href="#E"/><use transform="matrix(0.09938271604938267,0,0,0.09938271604938267,77.31975308641972,0)" xlink:href="#v"/><use transform="matrix(0.09938271604938267,0,0,0.09938271604938267,87.25802469135799,0)" xlink:href="#s"/><use transform="matrix(0.09938271604938267,0,0,0.09938271604938267,107.13456790123452,0)" xlink:href="#D"/></g><path fill="#333" d="M141 0L90-78 38 0H4l68-98-65-92h35l48 74 47-74h35l-64 92 68 98h-35" id="L"/><path fill="#333" d="M106-169C34-169 62-67 57 0H25v-261h32l-1 103c12-21 28-36 61-36 89 0 53 116 60 194h-32v-121c2-32-8-49-39-48" id="M"/><path fill="#333" d="M24-231v-30h32v30H24zM24 0v-190h32V0H24" id="N"/><path fill="#333" d="M115-194c53 0 69 39 70 98 0 66-23 100-70 100C84 3 66-7 56-30L54 0H23l1-261h32v101c10-23 28-34 59-34zm-8 174c40 0 45-34 45-75 0-40-5-75-45-74-42 0-51 32-51 76 0 43 10 73 51 73" id="O"/><g id="j"><use transform="matrix(0.09938271604938267,0,0,0.09938271604938267,0,0)" xlink:href="#y"/><use transform="matrix(0.09938271604938267,0,0,0.09938271604938267,23.85185185185184,0)" xlink:href="#L"/><use transform="matrix(0.09938271604938267,0,0,0.09938271604938267,41.74074074074072,0)" xlink:href="#M"/><use transform="matrix(0.09938271604938267,0,0,0.09938271604938267,61.61728395061725,0)" xlink:href="#N"/><use transform="matrix(0.09938271604938267,0,0,0.09938271604938267,69.46851851851848,0)" xlink:href="#O"/><use transform="matrix(0.09938271604938267,0,0,0.09938271604938267,89.34506172839501,0)" xlink:href="#N"/><use transform="matrix(0.09938271604938267,0,0,0.09938271604938267,97.19629629629624,0)" xlink:href="#v"/></g><g id="k"><use transform="matrix(0.09938271604938267,0,0,0.09938271604938267,0,0)" xlink:href="#y"/><use transform="matrix(0.09938271604938267,0,0,0.09938271604938267,23.85185185185184,0)" xlink:href="#L"/><use transform="matrix(0.09938271604938267,0,0,0.09938271604938267,41.74074074074072,0)" xlink:href="#M"/><use transform="matrix(0.09938271604938267,0,0,0.09938271604938267,61.61728395061725,0)" xlink:href="#N"/><use transform="matrix(0.09938271604938267,0,0,0.09938271604938267,69.46851851851848,0)" xlink:href="#O"/><use transform="matrix(0.09938271604938267,0,0,0.09938271604938267,89.34506172839501,0)" xlink:href="#N"/><use transform="matrix(0.09938271604938267,0,0,0.09938271604938267,97.19629629629624,0)" xlink:href="#v"/></g><path fill="#333" d="M177-190C167-65 218 103 67 71c-23-6-38-20-44-43l32-5c15 47 100 32 89-28v-30C133-14 115 1 83 1 29 1 15-40 15-95c0-56 16-97 71-98 29-1 48 16 59 35 1-10 0-23 2-32h30zM94-22c36 0 50-32 50-73 0-42-14-75-50-75-39 0-46 34-46 75s6 73 46 73" id="P"/><g id="l"><use transform="matrix(0.09938271604938267,0,0,0.09938271604938267,0,0)" xlink:href="#F"/><use transform="matrix(0.09938271604938267,0,0,0.09938271604938267,23.85185185185184,0)" xlink:href="#v"/><use transform="matrix(0.09938271604938267,0,0,0.09938271604938267,33.790123456790106,0)" xlink:href="#s"/><use transform="matrix(0.09938271604938267,0,0,0.09938271604938267,53.66666666666664,0)" xlink:href="#D"/><use transform="matrix(0.09938271604938267,0,0,0.09938271604938267,65.49320987654318,0)" xlink:href="#E"/><use transform="matrix(0.09938271604938267,0,0,0.09938271604938267,85.3697530864197,0)" xlink:href="#P"/><use transform="matrix(0.09938271604938267,0,0,0.09938271604938267,105.24629629629624,0)" xlink:href="#w"/></g><g id="m"><use transform="matrix(0.09938271604938267,0,0,0.09938271604938267,0,0)" xlink:href="#u"/><use transform="matrix(0.09938271604938267,0,0,0.09938271604938267,9.938271604938267,0)" xlink:href="#v"/><use transform="matrix(0.09938271604938267,0,0,0.09938271604938267,19.876543209876534,0)" xlink:href="#w"/><use transform="matrix(0.09938271604938267,0,0,0.09938271604938267,39.75308641975307,0)" xlink:href="#x"/></g><g id="n"><use transform="matrix(0.09938271604938267,0,0,0.09938271604938267,0,0)" xlink:href="#u"/><use transform="matrix(0.09938271604938267,0,0,0.09938271604938267,9.938271604938267,0)" xlink:href="#I"/></g><g id="o"><use transform="matrix(0.09938271604938267,0,0,0.09938271604938267,0,0)" xlink:href="#F"/><use transform="matrix(0.09938271604938267,0,0,0.09938271604938267,23.85185185185184,0)" xlink:href="#v"/><use transform="matrix(0.09938271604938267,0,0,0.09938271604938267,33.790123456790106,0)" xlink:href="#s"/><use transform="matrix(0.09938271604938267,0,0,0.09938271604938267,53.66666666666664,0)" xlink:href="#D"/><use transform="matrix(0.09938271604938267,0,0,0.09938271604938267,65.49320987654318,0)" xlink:href="#E"/><use transform="matrix(0.09938271604938267,0,0,0.09938271604938267,85.3697530864197,0)" xlink:href="#P"/><use transform="matrix(0.09938271604938267,0,0,0.09938271604938267,105.24629629629624,0)" xlink:href="#w"/></g><g id="p"><use transform="matrix(0.09938271604938267,0,0,0.09938271604938267,0,0)" xlink:href="#u"/><use transform="matrix(0.09938271604938267,0,0,0.09938271604938267,9.938271604938267,0)" xlink:href="#v"/><use transform="matrix(0.09938271604938267,0,0,0.09938271604938267,19.876543209876534,0)" xlink:href="#w"/><use transform="matrix(0.09938271604938267,0,0,0.09938271604938267,39.75308641975307,0)" xlink:href="#x"/></g><path fill="#333" d="M205 0l-28-72H64L36 0H1l101-248h38L239 0h-34zm-38-99l-47-123c-12 45-31 82-46 123h93" id="Q"/><g id="q"><use transform="matrix(0.09938271604938267,0,0,0.09938271604938267,0,0)" xlink:href="#Q"/><use transform="matrix(0.09938271604938267,0,0,0.09938271604938267,23.85185185185184,0)" xlink:href="#K"/><use transform="matrix(0.09938271604938267,0,0,0.09938271604938267,41.74074074074072,0)" xlink:href="#K"/><use transform="matrix(0.09938271604938267,0,0,0.09938271604938267,59.629629629629605,0)" xlink:href="#N"/><use transform="matrix(0.09938271604938267,0,0,0.09938271604938267,67.48086419753083,0)" xlink:href="#P"/><use transform="matrix(0.09938271604938267,0,0,0.09938271604938267,87.35740740740736,0)" xlink:href="#I"/><use transform="matrix(0.09938271604938267,0,0,0.09938271604938267,107.23395061728391,0)" xlink:href="#x"/><use transform="matrix(0.09938271604938267,0,0,0.09938271604938267,136.9493827160493,0)" xlink:href="#w"/><use transform="matrix(0.09938271604938267,0,0,0.09938271604938267,156.82592592592584,0)" xlink:href="#I"/><use transform="matrix(0.09938271604938267,0,0,0.09938271604938267,176.70246913580237,0)" xlink:href="#v"/><use transform="matrix(0.09938271604938267,0,0,0.09938271604938267,186.64074074074065,0)" xlink:href="#K"/></g></defs></g></svg>