<svg xmlns="http://www.w3.org/2000/svg" xmlns:xlink="http://www.w3.org/1999/xlink" xmlns:lucid="lucid" width="1569.8" height="512"><g transform="translate(-140 -544)" lucid:page-tab-id="xa7xy8i8VBhN"><path d="M0 0h1760v1360H0z" fill="#fff"/><path d="M1460 788a8 8 0 0 1 8-8h213.8a8 8 0 0 1 8 8v216a8 8 0 0 1-8 8H1468a8 8 0 0 1-8-8z" fill="#f9d2de"/><path d="M1460 788a8 8 0 0 1 8-8h213.8a8 8 0 0 1 8 8v216a8 8 0 0 1-8 8H1468a8 8 0 0 1-8-8zM1460 820h229.8M1502.95 820v192M1650.85 820v192" stroke="#333" fill="none"/><use xlink:href="#a" transform="matrix(1,0,0,1,1470,780) translate(44.05 23.6)"/><use xlink:href="#b" transform="matrix(1,0,0,1,1465,822.5) translate(4.5 17.1)"/><use xlink:href="#c" transform="matrix(1,0,0,1,1507.95,822.5) translate(0 17.1)"/><use xlink:href="#d" transform="matrix(1,0,0,1,1655.85,822.5) translate(0 17.1)"/><use xlink:href="#e" transform="matrix(1,0,0,1,1507.95,854.5) translate(0 17.1)"/><use xlink:href="#d" transform="matrix(1,0,0,1,1655.85,854.5) translate(0 17.1)"/><use xlink:href="#f" transform="matrix(1,0,0,1,1465,886.5) translate(5.024999999999999 17.1)"/><use xlink:href="#g" transform="matrix(1,0,0,1,1507.95,886.5) translate(0 17.1)"/><use xlink:href="#d" transform="matrix(1,0,0,1,1655.85,886.5) translate(0 17.1)"/><use xlink:href="#f" transform="matrix(1,0,0,1,1465,918.5) translate(5.024999999999999 17.1)"/><use xlink:href="#h" transform="matrix(1,0,0,1,1507.95,918.5) translate(0 17.1)"/><use xlink:href="#d" transform="matrix(1,0,0,1,1655.85,918.5) translate(0 17.1)"/><use xlink:href="#f" transform="matrix(1,0,0,1,1465,950.5) translate(5.024999999999999 17.1)"/><use xlink:href="#i" transform="matrix(1,0,0,1,1507.95,950.5) translate(0 17.1)"/><use xlink:href="#d" transform="matrix(1,0,0,1,1655.85,950.5) translate(0 17.1)"/><use xlink:href="#f" transform="matrix(1,0,0,1,1465,982.5) translate(5.024999999999999 17.1)"/><use xlink:href="#d" transform="matrix(1,0,0,1,1655.85,982.5) translate(0 17.1)"/><path d="M580 908a8 8 0 0 1 8-8h231.75a8 8 0 0 1 8 8v120a8 8 0 0 1-8 8H588a8 8 0 0 1-8-8z" fill="#3aa6dd"/><path d="M580 908a8 8 0 0 1 8-8h231.75a8 8 0 0 1 8 8v120a8 8 0 0 1-8 8H588a8 8 0 0 1-8-8zM580 940h247.75M622.95 940v96M737.85 940v96" stroke="#333" fill="none"/><use xlink:href="#j" transform="matrix(1,0,0,1,590,900) translate(79.57499999999999 23.6)"/><use xlink:href="#b" transform="matrix(1,0,0,1,585,942.5) translate(4.5 17.1)"/><use xlink:href="#k" transform="matrix(1,0,0,1,627.95,942.5) translate(0 17.1)"/><use xlink:href="#d" transform="matrix(1,0,0,1,742.85,942.5) translate(0 17.1)"/><use xlink:href="#l" transform="matrix(1,0,0,1,627.95,974.5) translate(0 17.1)"/><use xlink:href="#m" transform="matrix(1,0,0,1,742.85,974.5) translate(0 17.1)"/><use xlink:href="#f" transform="matrix(1,0,0,1,585,1006.5) translate(5.024999999999999 17.1)"/><use xlink:href="#n" transform="matrix(1,0,0,1,627.95,1006.5) translate(0 17.1)"/><use xlink:href="#d" transform="matrix(1,0,0,1,742.85,1006.5) translate(0 17.1)"/><path d="M160 708a8 8 0 0 1 8-8h244a8 8 0 0 1 8 8v120a8 8 0 0 1-8 8H168a8 8 0 0 1-8-8z" fill="#c1e4f7"/><path d="M160 708a8 8 0 0 1 8-8h244a8 8 0 0 1 8 8v120a8 8 0 0 1-8 8H168a8 8 0 0 1-8-8zM160 740h260M202.95 740v96M343.5 740v96" stroke="#333" fill="none"/><use xlink:href="#o" transform="matrix(1,0,0,1,170,700) translate(67.125 23.6)"/><use xlink:href="#b" transform="matrix(1,0,0,1,165,742.5) translate(4.5 17.1)"/><use xlink:href="#p" transform="matrix(1,0,0,1,207.95,742.5) translate(0 17.1)"/><use xlink:href="#d" transform="matrix(1,0,0,1,348.5030190849036,742.5) translate(0 17.1)"/><use xlink:href="#q" transform="matrix(1,0,0,1,207.95,774.5) translate(0 17.1)"/><use xlink:href="#m" transform="matrix(1,0,0,1,348.5030190849036,774.5) translate(0 17.1)"/><path d="M440.5 788H488a12 12 0 0 1 12 12v176a12 12 0 0 0 12 12h48.1" stroke="#333" fill="none"/><path d="M440.5 798v-20M420.5 788h20" stroke="#333" fill="#fff"/><path d="M579.28 998l-20-10 20-10" stroke="#333" fill="#fff" fill-opacity="0"/><path d="M579.28 988h-20" stroke="#333" fill="#fff"/><path d="M1200 572a8 8 0 0 1 8-8h263.75a8 8 0 0 1 8 8v88a8 8 0 0 1-8 8H1208a8 8 0 0 1-8-8z" fill="#f9d2de"/><path d="M1200 572a8 8 0 0 1 8-8h263.75a8 8 0 0 1 8 8v88a8 8 0 0 1-8 8H1208a8 8 0 0 1-8-8zM1200 604h279.75M1244 604v64M1389.85 604v64" stroke="#333" fill="none"/><use xlink:href="#r" transform="matrix(1,0,0,1,1210,564) translate(70.07499999999999 23.6)"/><use xlink:href="#b" transform="matrix(1,0,0,1,1205,606.5) translate(5 17.1)"/><use xlink:href="#i" transform="matrix(1,0,0,1,1249,606.5) translate(0 17.1)"/><use xlink:href="#d" transform="matrix(1,0,0,1,1394.85,606.5) translate(0 17.1)"/><use xlink:href="#l" transform="matrix(1,0,0,1,1249,638.5) translate(0 17.1)"/><use xlink:href="#m" transform="matrix(1,0,0,1,1394.85,638.5) translate(0 17.1)"/><path d="M1500.25 620h8a12 12 0 0 1 12 12v80a12 12 0 0 1-12 12h-76.75a12 12 0 0 0-12 12v216a12 12 0 0 0 12 12h8.6" stroke="#333" fill="none"/><path d="M1500.25 630v-20M1480.25 620h20" stroke="#333" fill="#fff"/><path d="M1459.28 974l-20-10 20-10" stroke="#333" fill="#fff" fill-opacity="0"/><path d="M1459.28 964h-20" stroke="#333" fill="#fff"/><path d="M800 588a8 8 0 0 1 8-8h254.65a8 8 0 0 1 8 8v120a8 8 0 0 1-8 8H808a8 8 0 0 1-8-8z" fill="#f9d2de"/><path d="M800 588a8 8 0 0 1 8-8h254.65a8 8 0 0 1 8 8v120a8 8 0 0 1-8 8H808a8 8 0 0 1-8-8zM800 620h270.65M842.95 620v96M1031.7 620v96" stroke="#333" fill="none"/><use xlink:href="#s" transform="matrix(1,0,0,1,810,580) translate(44.125 23.6)"/><use xlink:href="#b" transform="matrix(1,0,0,1,805,622.5) translate(4.5 17.1)"/><use xlink:href="#t" transform="matrix(1,0,0,1,847.95,622.5) translate(0 17.1)"/><use xlink:href="#d" transform="matrix(1,0,0,1,1036.7,622.5) translate(0 17.1)"/><use xlink:href="#f" transform="matrix(1,0,0,1,805,654.5) translate(5.024999999999999 17.1)"/><use xlink:href="#k" transform="matrix(1,0,0,1,847.95,654.5) translate(0 17.1)"/><use xlink:href="#d" transform="matrix(1,0,0,1,1036.7,654.5) translate(0 17.1)"/><use xlink:href="#f" transform="matrix(1,0,0,1,805,686.5) translate(5.024999999999999 17.1)"/><use xlink:href="#i" transform="matrix(1,0,0,1,847.95,686.5) translate(0 17.1)"/><use xlink:href="#d" transform="matrix(1,0,0,1,1036.7,686.5) translate(0 17.1)"/><path d="M440.5 756H598a12 12 0 0 0 12-12v-63.93a12 12 0 0 1 12-12h158.1" stroke="#333" fill="none"/><path d="M440.5 766v-20M420.5 756h20" stroke="#333" fill="#fff"/><path d="M799.28 678.07l-20-10 20-10" stroke="#333" fill="#fff" fill-opacity="0"/><path d="M799.28 668.07h-20" stroke="#333" fill="#fff"/><path d="M848.25 956h8a12 12 0 0 0 12-12V820a12 12 0 0 0-12-12H771.5a12 12 0 0 1-12-12V680.07a12 12 0 0 1 12-12h8.6" stroke="#333" fill="none"/><path d="M848.25 966v-20M828.25 956h20" stroke="#333" fill="#fff"/><path d="M799.28 678.07l-20-10 20-10" stroke="#333" fill="#fff" fill-opacity="0"/><path d="M799.28 668.07h-20" stroke="#333" fill="#fff"/><path d="M1179.5 620h-32.17a12 12 0 0 0-12 12v56.2a12 12 0 0 1-12 12h-32.77" stroke="#333" fill="none"/><path d="M1179.5 610v20M1199.5 620h-20" stroke="#333" fill="#fff"/><path d="M1071.37 690.2l20 10-20 10" stroke="#333" fill="#fff" fill-opacity="0"/><path d="M1071.37 700.2h20" stroke="#333" fill="#fff"/><defs><path d="M33 0v-248h34V0H33" id="u"/><path d="M59-47c-2 24 18 29 38 22v24C64 9 27 4 27-40v-127H5v-23h24l9-43h21v43h35v23H59v120" id="v"/><path d="M100-194c63 0 86 42 84 106H49c0 40 14 67 53 68 26 1 43-12 49-29l28 8c-11 28-37 45-77 45C44 4 14-33 15-96c1-61 26-98 85-98zm52 81c6-60-76-77-97-28-3 7-6 17-6 28h103" id="w"/><path d="M210-169c-67 3-38 105-44 169h-31v-121c0-29-5-50-35-48C34-165 62-65 56 0H25l-1-190h30c1 10-1 24 2 32 10-44 99-50 107 0 11-21 27-35 58-36 85-2 47 119 55 194h-31v-121c0-29-5-49-35-48" id="x"/><path d="M117-194c89-4 53 116 60 194h-32v-121c0-31-8-49-39-48C34-167 62-67 57 0H25l-1-190h30c1 10-1 24 2 32 11-22 29-35 61-36" id="y"/><path d="M185-189c-5-48-123-54-124 2 14 75 158 14 163 119 3 78-121 87-175 55-17-10-28-26-33-46l33-7c5 56 141 63 141-1 0-78-155-14-162-118-5-82 145-84 179-34 5 7 8 16 11 25" id="z"/><path d="M100-194c62-1 85 37 85 99 1 63-27 99-86 99S16-35 15-95c0-66 28-99 85-99zM99-20c44 1 53-31 53-75 0-43-8-75-51-75s-53 32-53 75 10 74 51 75" id="A"/><path d="M114-163C36-179 61-72 57 0H25l-1-190h30c1 12-1 29 2 39 6-27 23-49 58-41v29" id="B"/><path d="M141-36C126-15 110 5 73 4 37 3 15-17 15-53c-1-64 63-63 125-63 3-35-9-54-41-54-24 1-41 7-42 31l-33-3c5-37 33-52 76-52 45 0 72 20 72 64v82c-1 20 7 32 28 27v20c-31 9-61-2-59-35zM48-53c0 20 12 33 32 33 41-3 63-29 60-74-43 2-92-5-92 41" id="C"/><path d="M177-190C167-65 218 103 67 71c-23-6-38-20-44-43l32-5c15 47 100 32 89-28v-30C133-14 115 1 83 1 29 1 15-40 15-95c0-56 16-97 71-98 29-1 48 16 59 35 1-10 0-23 2-32h30zM94-22c36 0 50-32 50-73 0-42-14-75-50-75-39 0-46 34-46 75s6 73 46 73" id="D"/><path d="M135-143c-3-34-86-38-87 0 15 53 115 12 119 90S17 21 10-45l28-5c4 36 97 45 98 0-10-56-113-15-118-90-4-57 82-63 122-42 12 7 21 19 24 35" id="E"/><g id="a"><use transform="matrix(0.05,0,0,0.05,0,0)" xlink:href="#u"/><use transform="matrix(0.05,0,0,0.05,5,0)" xlink:href="#v"/><use transform="matrix(0.05,0,0,0.05,10,0)" xlink:href="#w"/><use transform="matrix(0.05,0,0,0.05,20,0)" xlink:href="#x"/><use transform="matrix(0.05,0,0,0.05,34.95,0)" xlink:href="#u"/><use transform="matrix(0.05,0,0,0.05,39.95,0)" xlink:href="#y"/><use transform="matrix(0.05,0,0,0.05,49.95,0)" xlink:href="#z"/><use transform="matrix(0.05,0,0,0.05,61.95,0)" xlink:href="#v"/><use transform="matrix(0.05,0,0,0.05,66.95,0)" xlink:href="#A"/><use transform="matrix(0.05,0,0,0.05,76.95,0)" xlink:href="#B"/><use transform="matrix(0.05,0,0,0.05,82.9,0)" xlink:href="#C"/><use transform="matrix(0.05,0,0,0.05,92.9,0)" xlink:href="#D"/><use transform="matrix(0.05,0,0,0.05,102.9,0)" xlink:href="#w"/><use transform="matrix(0.05,0,0,0.05,112.9,0)" xlink:href="#E"/></g><path d="M30-248c87 1 191-15 191 75 0 78-77 80-158 76V0H30v-248zm33 125c57 0 124 11 124-50 0-59-68-47-124-48v98" id="F"/><path d="M194 0L95-120 63-95V0H30v-248h33v124l119-124h40L117-140 236 0h-42" id="G"/><g id="b"><use transform="matrix(0.05,0,0,0.05,0,0)" xlink:href="#F"/><use transform="matrix(0.05,0,0,0.05,12,0)" xlink:href="#G"/></g><path d="M85-194c31 0 48 13 60 33l-1-100h32l1 261h-30c-2-10 0-23-3-31C134-8 116 4 85 4 32 4 16-35 15-94c0-66 23-100 70-100zm9 24c-40 0-46 34-46 75 0 40 6 74 45 74 42 0 51-32 51-76 0-42-9-74-50-73" id="H"/><g id="c"><use transform="matrix(0.05,0,0,0.05,0,0)" xlink:href="#u"/><use transform="matrix(0.05,0,0,0.05,5,0)" xlink:href="#v"/><use transform="matrix(0.05,0,0,0.05,10,0)" xlink:href="#w"/><use transform="matrix(0.05,0,0,0.05,20,0)" xlink:href="#x"/><use transform="matrix(0.05,0,0,0.05,34.95,0)" xlink:href="#u"/><use transform="matrix(0.05,0,0,0.05,39.95,0)" xlink:href="#y"/><use transform="matrix(0.05,0,0,0.05,49.95,0)" xlink:href="#z"/><use transform="matrix(0.05,0,0,0.05,61.95,0)" xlink:href="#v"/><use transform="matrix(0.05,0,0,0.05,66.95,0)" xlink:href="#A"/><use transform="matrix(0.05,0,0,0.05,76.95,0)" xlink:href="#B"/><use transform="matrix(0.05,0,0,0.05,82.9,0)" xlink:href="#C"/><use transform="matrix(0.05,0,0,0.05,92.9,0)" xlink:href="#D"/><use transform="matrix(0.05,0,0,0.05,102.9,0)" xlink:href="#w"/><use transform="matrix(0.05,0,0,0.05,112.9,0)" xlink:href="#u"/><use transform="matrix(0.05,0,0,0.05,117.9,0)" xlink:href="#H"/></g><path d="M24-231v-30h32v30H24zM24 0v-190h32V0H24" id="I"/><g id="d"><use transform="matrix(0.05,0,0,0.05,0,0)" xlink:href="#I"/><use transform="matrix(0.05,0,0,0.05,3.95,0)" xlink:href="#y"/><use transform="matrix(0.05,0,0,0.05,13.949999999999998,0)" xlink:href="#v"/></g><path d="M212-179c-10-28-35-45-73-45-59 0-87 40-87 99 0 60 29 101 89 101 43 0 62-24 78-52l27 14C228-24 195 4 139 4 59 4 22-46 18-125c-6-104 99-153 187-111 19 9 31 26 39 46" id="J"/><path d="M84 4C-5 8 30-112 23-190h32v120c0 31 7 50 39 49 72-2 45-101 50-169h31l1 190h-30c-1-10 1-25-2-33-11 22-28 36-60 37" id="K"/><g id="e"><use transform="matrix(0.05,0,0,0.05,0,0)" xlink:href="#z"/><use transform="matrix(0.05,0,0,0.05,12,0)" xlink:href="#v"/><use transform="matrix(0.05,0,0,0.05,17,0)" xlink:href="#A"/><use transform="matrix(0.05,0,0,0.05,27,0)" xlink:href="#B"/><use transform="matrix(0.05,0,0,0.05,32.95,0)" xlink:href="#C"/><use transform="matrix(0.05,0,0,0.05,42.95,0)" xlink:href="#D"/><use transform="matrix(0.05,0,0,0.05,52.95,0)" xlink:href="#w"/><use transform="matrix(0.05,0,0,0.05,62.95,0)" xlink:href="#J"/><use transform="matrix(0.05,0,0,0.05,75.9,0)" xlink:href="#A"/><use transform="matrix(0.05,0,0,0.05,85.9,0)" xlink:href="#K"/><use transform="matrix(0.05,0,0,0.05,95.9,0)" xlink:href="#y"/><use transform="matrix(0.05,0,0,0.05,105.9,0)" xlink:href="#v"/></g><path d="M63-220v92h138v28H63V0H30v-248h175v28H63" id="L"/><g id="f"><use transform="matrix(0.05,0,0,0.05,0,0)" xlink:href="#L"/><use transform="matrix(0.05,0,0,0.05,10.950000000000001,0)" xlink:href="#G"/></g><g id="g"><use transform="matrix(0.05,0,0,0.05,0,0)" xlink:href="#u"/><use transform="matrix(0.05,0,0,0.05,5,0)" xlink:href="#v"/><use transform="matrix(0.05,0,0,0.05,10,0)" xlink:href="#w"/><use transform="matrix(0.05,0,0,0.05,20,0)" xlink:href="#x"/><use transform="matrix(0.05,0,0,0.05,34.95,0)" xlink:href="#u"/><use transform="matrix(0.05,0,0,0.05,39.95,0)" xlink:href="#H"/></g><g id="h"><use transform="matrix(0.05,0,0,0.05,0,0)" xlink:href="#z"/><use transform="matrix(0.05,0,0,0.05,12,0)" xlink:href="#v"/><use transform="matrix(0.05,0,0,0.05,17,0)" xlink:href="#A"/><use transform="matrix(0.05,0,0,0.05,27,0)" xlink:href="#B"/><use transform="matrix(0.05,0,0,0.05,32.95,0)" xlink:href="#C"/><use transform="matrix(0.05,0,0,0.05,42.95,0)" xlink:href="#D"/><use transform="matrix(0.05,0,0,0.05,52.95,0)" xlink:href="#w"/><use transform="matrix(0.05,0,0,0.05,62.95,0)" xlink:href="#u"/><use transform="matrix(0.05,0,0,0.05,67.95,0)" xlink:href="#H"/></g><path d="M115-194c55 1 70 41 70 98S169 2 115 4C84 4 66-9 55-30l1 105H24l-1-265h31l2 30c10-21 28-34 59-34zm-8 174c40 0 45-34 45-75s-6-73-45-74c-42 0-51 32-51 76 0 43 10 73 51 73" id="M"/><path d="M96-169c-40 0-48 33-48 73s9 75 48 75c24 0 41-14 43-38l32 2c-6 37-31 61-74 61-59 0-76-41-82-99-10-93 101-131 147-64 4 7 5 14 7 22l-32 3c-4-21-16-35-41-35" id="N"/><g id="i"><use transform="matrix(0.05,0,0,0.05,0,0)" xlink:href="#J"/><use transform="matrix(0.05,0,0,0.05,12.950000000000001,0)" xlink:href="#K"/><use transform="matrix(0.05,0,0,0.05,22.950000000000003,0)" xlink:href="#B"/><use transform="matrix(0.05,0,0,0.05,28.900000000000002,0)" xlink:href="#C"/><use transform="matrix(0.05,0,0,0.05,38.900000000000006,0)" xlink:href="#v"/><use transform="matrix(0.05,0,0,0.05,43.900000000000006,0)" xlink:href="#A"/><use transform="matrix(0.05,0,0,0.05,53.900000000000006,0)" xlink:href="#B"/><use transform="matrix(0.05,0,0,0.05,59.85,0)" xlink:href="#z"/><use transform="matrix(0.05,0,0,0.05,71.85000000000001,0)" xlink:href="#M"/><use transform="matrix(0.05,0,0,0.05,81.85000000000001,0)" xlink:href="#C"/><use transform="matrix(0.05,0,0,0.05,91.85000000000001,0)" xlink:href="#N"/><use transform="matrix(0.05,0,0,0.05,100.85000000000001,0)" xlink:href="#w"/><use transform="matrix(0.05,0,0,0.05,110.85000000000001,0)" xlink:href="#u"/><use transform="matrix(0.05,0,0,0.05,115.85000000000001,0)" xlink:href="#H"/></g><g id="j"><use transform="matrix(0.05,0,0,0.05,0,0)" xlink:href="#J"/><use transform="matrix(0.05,0,0,0.05,12.950000000000001,0)" xlink:href="#K"/><use transform="matrix(0.05,0,0,0.05,22.950000000000003,0)" xlink:href="#B"/><use transform="matrix(0.05,0,0,0.05,28.900000000000002,0)" xlink:href="#C"/><use transform="matrix(0.05,0,0,0.05,38.900000000000006,0)" xlink:href="#v"/><use transform="matrix(0.05,0,0,0.05,43.900000000000006,0)" xlink:href="#A"/><use transform="matrix(0.05,0,0,0.05,53.900000000000006,0)" xlink:href="#B"/><use transform="matrix(0.05,0,0,0.05,59.85,0)" xlink:href="#E"/></g><g id="k"><use transform="matrix(0.05,0,0,0.05,0,0)" xlink:href="#J"/><use transform="matrix(0.05,0,0,0.05,12.950000000000001,0)" xlink:href="#K"/><use transform="matrix(0.05,0,0,0.05,22.950000000000003,0)" xlink:href="#B"/><use transform="matrix(0.05,0,0,0.05,28.900000000000002,0)" xlink:href="#C"/><use transform="matrix(0.05,0,0,0.05,38.900000000000006,0)" xlink:href="#v"/><use transform="matrix(0.05,0,0,0.05,43.900000000000006,0)" xlink:href="#A"/><use transform="matrix(0.05,0,0,0.05,53.900000000000006,0)" xlink:href="#B"/><use transform="matrix(0.05,0,0,0.05,59.85,0)" xlink:href="#u"/><use transform="matrix(0.05,0,0,0.05,64.85000000000001,0)" xlink:href="#H"/></g><path d="M190 0L58-211 59 0H30v-248h39L202-35l-2-213h31V0h-41" id="O"/><g id="l"><use transform="matrix(0.05,0,0,0.05,0,0)" xlink:href="#O"/><use transform="matrix(0.05,0,0,0.05,12.950000000000001,0)" xlink:href="#C"/><use transform="matrix(0.05,0,0,0.05,22.950000000000003,0)" xlink:href="#x"/><use transform="matrix(0.05,0,0,0.05,37.900000000000006,0)" xlink:href="#w"/></g><path d="M108 0H70L1-190h34L89-25l56-165h34" id="P"/><path d="M106-169C34-169 62-67 57 0H25v-261h32l-1 103c12-21 28-36 61-36 89 0 53 116 60 194h-32v-121c2-32-8-49-39-48" id="Q"/><g id="m"><use transform="matrix(0.05,0,0,0.05,0,0)" xlink:href="#y"/><use transform="matrix(0.05,0,0,0.05,10,0)" xlink:href="#P"/><use transform="matrix(0.05,0,0,0.05,19,0)" xlink:href="#C"/><use transform="matrix(0.05,0,0,0.05,29,0)" xlink:href="#B"/><use transform="matrix(0.05,0,0,0.05,34.95,0)" xlink:href="#N"/><use transform="matrix(0.05,0,0,0.05,43.95,0)" xlink:href="#Q"/><use transform="matrix(0.05,0,0,0.05,53.95,0)" xlink:href="#C"/><use transform="matrix(0.05,0,0,0.05,63.95,0)" xlink:href="#B"/></g><path d="M30 0v-248h187v28H63v79h144v27H63v87h162V0H30" id="R"/><path d="M24 0v-261h32V0H24" id="S"/><path d="M179-190L93 31C79 59 56 82 12 73V49c39 6 53-20 64-50L1-190h34L92-34l54-156h33" id="T"/><g id="n"><use transform="matrix(0.05,0,0,0.05,0,0)" xlink:href="#R"/><use transform="matrix(0.05,0,0,0.05,12,0)" xlink:href="#x"/><use transform="matrix(0.05,0,0,0.05,26.950000000000003,0)" xlink:href="#M"/><use transform="matrix(0.05,0,0,0.05,36.95,0)" xlink:href="#S"/><use transform="matrix(0.05,0,0,0.05,40.900000000000006,0)" xlink:href="#A"/><use transform="matrix(0.05,0,0,0.05,50.900000000000006,0)" xlink:href="#T"/><use transform="matrix(0.05,0,0,0.05,59.900000000000006,0)" xlink:href="#w"/><use transform="matrix(0.05,0,0,0.05,69.9,0)" xlink:href="#w"/><use transform="matrix(0.05,0,0,0.05,79.9,0)" xlink:href="#u"/><use transform="matrix(0.05,0,0,0.05,84.9,0)" xlink:href="#H"/></g><path d="M233-177c-1 41-23 64-60 70L243 0h-38l-65-103H63V0H30v-248c88 3 205-21 203 71zM63-129c60-2 137 13 137-47 0-61-80-42-137-45v92" id="U"/><g id="o"><use transform="matrix(0.05,0,0,0.05,0,0)" xlink:href="#J"/><use transform="matrix(0.05,0,0,0.05,12.950000000000001,0)" xlink:href="#K"/><use transform="matrix(0.05,0,0,0.05,22.950000000000003,0)" xlink:href="#B"/><use transform="matrix(0.05,0,0,0.05,28.900000000000002,0)" xlink:href="#C"/><use transform="matrix(0.05,0,0,0.05,38.900000000000006,0)" xlink:href="#v"/><use transform="matrix(0.05,0,0,0.05,43.900000000000006,0)" xlink:href="#A"/><use transform="matrix(0.05,0,0,0.05,53.900000000000006,0)" xlink:href="#B"/><use transform="matrix(0.05,0,0,0.05,59.85,0)" xlink:href="#U"/><use transform="matrix(0.05,0,0,0.05,72.80000000000001,0)" xlink:href="#A"/><use transform="matrix(0.05,0,0,0.05,82.80000000000001,0)" xlink:href="#S"/><use transform="matrix(0.05,0,0,0.05,86.75000000000001,0)" xlink:href="#w"/><use transform="matrix(0.05,0,0,0.05,96.75000000000001,0)" xlink:href="#E"/></g><g id="p"><use transform="matrix(0.05,0,0,0.05,0,0)" xlink:href="#J"/><use transform="matrix(0.05,0,0,0.05,12.950000000000001,0)" xlink:href="#K"/><use transform="matrix(0.05,0,0,0.05,22.950000000000003,0)" xlink:href="#B"/><use transform="matrix(0.05,0,0,0.05,28.900000000000002,0)" xlink:href="#C"/><use transform="matrix(0.05,0,0,0.05,38.900000000000006,0)" xlink:href="#v"/><use transform="matrix(0.05,0,0,0.05,43.900000000000006,0)" xlink:href="#A"/><use transform="matrix(0.05,0,0,0.05,53.900000000000006,0)" xlink:href="#B"/><use transform="matrix(0.05,0,0,0.05,59.85,0)" xlink:href="#U"/><use transform="matrix(0.05,0,0,0.05,72.80000000000001,0)" xlink:href="#A"/><use transform="matrix(0.05,0,0,0.05,82.80000000000001,0)" xlink:href="#S"/><use transform="matrix(0.05,0,0,0.05,86.75000000000001,0)" xlink:href="#w"/><use transform="matrix(0.05,0,0,0.05,96.75000000000001,0)" xlink:href="#u"/><use transform="matrix(0.05,0,0,0.05,101.75000000000001,0)" xlink:href="#H"/></g><path d="M140-251c81 0 123 46 123 126C263-46 219 4 140 4 59 4 17-45 17-125s42-126 123-126zm0 227c63 0 89-41 89-101s-29-99-89-99c-61 0-89 39-89 99S79-25 140-24" id="V"/><path d="M101-234c-31-9-42 10-38 44h38v23H63V0H32v-167H5v-23h27c-7-52 17-82 69-68v24" id="W"/><g id="q"><use transform="matrix(0.05,0,0,0.05,0,0)" xlink:href="#O"/><use transform="matrix(0.05,0,0,0.05,12.950000000000001,0)" xlink:href="#C"/><use transform="matrix(0.05,0,0,0.05,22.950000000000003,0)" xlink:href="#x"/><use transform="matrix(0.05,0,0,0.05,37.900000000000006,0)" xlink:href="#w"/><use transform="matrix(0.05,0,0,0.05,47.900000000000006,0)" xlink:href="#V"/><use transform="matrix(0.05,0,0,0.05,61.900000000000006,0)" xlink:href="#W"/><use transform="matrix(0.05,0,0,0.05,66.9,0)" xlink:href="#U"/><use transform="matrix(0.05,0,0,0.05,79.85000000000001,0)" xlink:href="#A"/><use transform="matrix(0.05,0,0,0.05,89.85000000000001,0)" xlink:href="#S"/><use transform="matrix(0.05,0,0,0.05,93.80000000000001,0)" xlink:href="#w"/></g><g id="r"><use transform="matrix(0.05,0,0,0.05,0,0)" xlink:href="#J"/><use transform="matrix(0.05,0,0,0.05,12.950000000000001,0)" xlink:href="#K"/><use transform="matrix(0.05,0,0,0.05,22.950000000000003,0)" xlink:href="#B"/><use transform="matrix(0.05,0,0,0.05,28.900000000000002,0)" xlink:href="#C"/><use transform="matrix(0.05,0,0,0.05,38.900000000000006,0)" xlink:href="#v"/><use transform="matrix(0.05,0,0,0.05,43.900000000000006,0)" xlink:href="#A"/><use transform="matrix(0.05,0,0,0.05,53.900000000000006,0)" xlink:href="#B"/><use transform="matrix(0.05,0,0,0.05,59.85,0)" xlink:href="#z"/><use transform="matrix(0.05,0,0,0.05,71.85000000000001,0)" xlink:href="#M"/><use transform="matrix(0.05,0,0,0.05,81.85000000000001,0)" xlink:href="#C"/><use transform="matrix(0.05,0,0,0.05,91.85000000000001,0)" xlink:href="#N"/><use transform="matrix(0.05,0,0,0.05,100.85000000000001,0)" xlink:href="#w"/><use transform="matrix(0.05,0,0,0.05,110.85000000000001,0)" xlink:href="#E"/></g><path d="M205 0l-28-72H64L36 0H1l101-248h38L239 0h-34zm-38-99l-47-123c-12 45-31 82-46 123h93" id="X"/><g id="s"><use transform="matrix(0.05,0,0,0.05,0,0)" xlink:href="#J"/><use transform="matrix(0.05,0,0,0.05,12.950000000000001,0)" xlink:href="#K"/><use transform="matrix(0.05,0,0,0.05,22.950000000000003,0)" xlink:href="#B"/><use transform="matrix(0.05,0,0,0.05,28.900000000000002,0)" xlink:href="#C"/><use transform="matrix(0.05,0,0,0.05,38.900000000000006,0)" xlink:href="#v"/><use transform="matrix(0.05,0,0,0.05,43.900000000000006,0)" xlink:href="#A"/><use transform="matrix(0.05,0,0,0.05,53.900000000000006,0)" xlink:href="#B"/><use transform="matrix(0.05,0,0,0.05,59.85,0)" xlink:href="#X"/><use transform="matrix(0.05,0,0,0.05,71.85000000000001,0)" xlink:href="#E"/><use transform="matrix(0.05,0,0,0.05,80.85000000000001,0)" xlink:href="#E"/><use transform="matrix(0.05,0,0,0.05,89.85000000000001,0)" xlink:href="#I"/><use transform="matrix(0.05,0,0,0.05,93.80000000000001,0)" xlink:href="#D"/><use transform="matrix(0.05,0,0,0.05,103.80000000000001,0)" xlink:href="#y"/><use transform="matrix(0.05,0,0,0.05,113.80000000000001,0)" xlink:href="#x"/><use transform="matrix(0.05,0,0,0.05,128.75,0)" xlink:href="#w"/><use transform="matrix(0.05,0,0,0.05,138.75,0)" xlink:href="#y"/><use transform="matrix(0.05,0,0,0.05,148.75,0)" xlink:href="#v"/><use transform="matrix(0.05,0,0,0.05,153.75,0)" xlink:href="#E"/></g><g id="t"><use transform="matrix(0.05,0,0,0.05,0,0)" xlink:href="#J"/><use transform="matrix(0.05,0,0,0.05,12.950000000000001,0)" xlink:href="#K"/><use transform="matrix(0.05,0,0,0.05,22.950000000000003,0)" xlink:href="#B"/><use transform="matrix(0.05,0,0,0.05,28.900000000000002,0)" xlink:href="#C"/><use transform="matrix(0.05,0,0,0.05,38.900000000000006,0)" xlink:href="#v"/><use transform="matrix(0.05,0,0,0.05,43.900000000000006,0)" xlink:href="#A"/><use transform="matrix(0.05,0,0,0.05,53.900000000000006,0)" xlink:href="#B"/><use transform="matrix(0.05,0,0,0.05,59.85,0)" xlink:href="#X"/><use transform="matrix(0.05,0,0,0.05,71.85000000000001,0)" xlink:href="#E"/><use transform="matrix(0.05,0,0,0.05,80.85000000000001,0)" xlink:href="#E"/><use transform="matrix(0.05,0,0,0.05,89.85000000000001,0)" xlink:href="#I"/><use transform="matrix(0.05,0,0,0.05,93.80000000000001,0)" xlink:href="#D"/><use transform="matrix(0.05,0,0,0.05,103.80000000000001,0)" xlink:href="#y"/><use transform="matrix(0.05,0,0,0.05,113.80000000000001,0)" xlink:href="#x"/><use transform="matrix(0.05,0,0,0.05,128.75,0)" xlink:href="#w"/><use transform="matrix(0.05,0,0,0.05,138.75,0)" xlink:href="#y"/><use transform="matrix(0.05,0,0,0.05,148.75,0)" xlink:href="#v"/><use transform="matrix(0.05,0,0,0.05,153.75,0)" xlink:href="#u"/><use transform="matrix(0.05,0,0,0.05,158.75,0)" xlink:href="#H"/></g></defs></g></svg>