<svg xmlns="http://www.w3.org/2000/svg" xmlns:xlink="http://www.w3.org/1999/xlink" xmlns:lucid="lucid" width="1420" height="336"><g transform="translate(-60 -180)" lucid:page-tab-id="Oha.BTACNn9v"><path d="M0 0h1760v1360H0z" fill="#fff"/><path d="M80 208a8 8 0 0 1 8-8h524a8 8 0 0 1 8 8v280a8 8 0 0 1-8 8H88a8 8 0 0 1-8-8z" fill="#f9d2de"/><path d="M80 208a8 8 0 0 1 8-8h524a8 8 0 0 1 8 8v280a8 8 0 0 1-8 8H88a8 8 0 0 1-8-8zM80 240h540M140 240v256M380 240v256" stroke="#333" fill="none"/><use xlink:href="#a" transform="matrix(1,0,0,1,90,200) translate(220.05000000000007 23.599999999999994)"/><use xlink:href="#b" transform="matrix(1,0,0,1,145,242.5) translate(103.02500000000002 17.099999999999994)"/><use xlink:href="#c" transform="matrix(1,0,0,1,385,242.5) translate(79.02500000000006 17.099999999999994)"/><use xlink:href="#d" transform="matrix(1,0,0,1,385,242.5) translate(135.97499999999997 17.099999999999994)"/><use xlink:href="#e" transform="matrix(1,0,0,1,145,274.5) translate(73.07500000000007 17.099999999999994)"/><use xlink:href="#f" transform="matrix(1,0,0,1,385,274.5) translate(93.05000000000004 17.099999999999994)"/><use xlink:href="#g" transform="matrix(1,0,0,1,145,306.5) translate(73.55000000000007 17.099999999999994)"/><use xlink:href="#f" transform="matrix(1,0,0,1,385,306.5) translate(93.05000000000004 17.099999999999994)"/><use xlink:href="#h" transform="matrix(1,0,0,1,145,338.5) translate(93.57499999999999 17.1)"/><use xlink:href="#i" transform="matrix(1,0,0,1,385,338.5) translate(93.05 17.1)"/><use xlink:href="#j" transform="matrix(1,0,0,1,145,370.5) translate(101.05 17.1)"/><use xlink:href="#i" transform="matrix(1,0,0,1,385,370.5) translate(93.05 17.1)"/><use xlink:href="#k" transform="matrix(1,0,0,1,145,402.5) translate(71.07499999999999 17.1)"/><use xlink:href="#l" transform="matrix(1,0,0,1,385,402.5) translate(66.65 17.1)"/><use xlink:href="#m" transform="matrix(1,0,0,1,85,434.5) translate(14.525 17.1)"/><use xlink:href="#n" transform="matrix(1,0,0,1,145,434.5) translate(50.625 17.1)"/><use xlink:href="#o" transform="matrix(1,0,0,1,385,434.5) translate(49.150000000000006 17.1)"/><use xlink:href="#p" transform="matrix(1,0,0,1,385,434.5) translate(151.95 17.1)"/><use xlink:href="#q" transform="matrix(1,0,0,1,145,466.5) translate(63.574999999999996 17.1)"/><use xlink:href="#r" transform="matrix(1,0,0,1,385,466.5) translate(98.025 17.1)"/><path d="M780 208a8 8 0 0 1 8-8h664a8 8 0 0 1 8 8v184a8 8 0 0 1-8 8H788a8 8 0 0 1-8-8z" fill="#f9d2de"/><path d="M780 208a8 8 0 0 1 8-8h664a8 8 0 0 1 8 8v184a8 8 0 0 1-8 8H788a8 8 0 0 1-8-8zM780 240h680M840 240v160M1150 240v160" stroke="#333" fill="none"/><use xlink:href="#s" transform="matrix(1,0,0,1,789.9999999999998,200) translate(277.6250000000001 23.599999999999994)"/><use xlink:href="#b" transform="matrix(1,0,0,1,844.9999999999998,242.5) translate(138.52500000000003 17.099999999999994)"/><use xlink:href="#c" transform="matrix(1,0,0,1,1155,242.5) translate(114.52500000000006 17.099999999999994)"/><use xlink:href="#d" transform="matrix(1,0,0,1,1155,242.5) translate(171.47499999999997 17.099999999999994)"/><use xlink:href="#t" transform="matrix(1,0,0,1,844.9999999999998,274.5) translate(128.02500000000003 17.099999999999994)"/><use xlink:href="#f" transform="matrix(1,0,0,1,1155,274.5) translate(128.55000000000004 17.099999999999994)"/><use xlink:href="#u" transform="matrix(1,0,0,1,844.9999999999998,306.5) translate(85.10000000000011 17.099999999999994)"/><use xlink:href="#v" transform="matrix(1,0,0,1,1155,306.5) translate(131.02500000000003 17.099999999999994)"/><use xlink:href="#w" transform="matrix(1,0,0,1,844.9999999999998,338.5) translate(75.05 17.1)"/><use xlink:href="#x" transform="matrix(1,0,0,1,1155,338.5) translate(131.025 17.1)"/><g><use xlink:href="#y" transform="matrix(1,0,0,1,844.9999999999998,370.5) translate(95.07499999999999 17.1)"/></g><g><use xlink:href="#x" transform="matrix(1,0,0,1,1155,370.5) translate(131.025 17.1)"/></g><defs><path fill="#333" d="M30 0v-248h187v28H63v79h144v27H63v87h162V0H30" id="z"/><path fill="#333" d="M210-169c-67 3-38 105-44 169h-31v-121c0-29-5-50-35-48C34-165 62-65 56 0H25l-1-190h30c1 10-1 24 2 32 10-44 99-50 107 0 11-21 27-35 58-36 85-2 47 119 55 194h-31v-121c0-29-5-49-35-48" id="A"/><path fill="#333" d="M115-194c55 1 70 41 70 98S169 2 115 4C84 4 66-9 55-30l1 105H24l-1-265h31l2 30c10-21 28-34 59-34zm-8 174c40 0 45-34 45-75s-6-73-45-74c-42 0-51 32-51 76 0 43 10 73 51 73" id="B"/><path fill="#333" d="M24 0v-261h32V0H24" id="C"/><path fill="#333" d="M100-194c62-1 85 37 85 99 1 63-27 99-86 99S16-35 15-95c0-66 28-99 85-99zM99-20c44 1 53-31 53-75 0-43-8-75-51-75s-53 32-53 75 10 74 51 75" id="D"/><path fill="#333" d="M179-190L93 31C79 59 56 82 12 73V49c39 6 53-20 64-50L1-190h34L92-34l54-156h33" id="E"/><path fill="#333" d="M100-194c63 0 86 42 84 106H49c0 40 14 67 53 68 26 1 43-12 49-29l28 8c-11 28-37 45-77 45C44 4 14-33 15-96c1-61 26-98 85-98zm52 81c6-60-76-77-97-28-3 7-6 17-6 28h103" id="F"/><g id="a"><use transform="matrix(0.04999999999999991,0,0,0.04999999999999991,0,0)" xlink:href="#z"/><use transform="matrix(0.04999999999999991,0,0,0.04999999999999991,11.999999999999979,0)" xlink:href="#A"/><use transform="matrix(0.04999999999999991,0,0,0.04999999999999991,26.949999999999953,0)" xlink:href="#B"/><use transform="matrix(0.04999999999999991,0,0,0.04999999999999991,36.94999999999993,0)" xlink:href="#C"/><use transform="matrix(0.04999999999999991,0,0,0.04999999999999991,40.89999999999993,0)" xlink:href="#D"/><use transform="matrix(0.04999999999999991,0,0,0.04999999999999991,50.899999999999906,0)" xlink:href="#E"/><use transform="matrix(0.04999999999999991,0,0,0.04999999999999991,59.89999999999989,0)" xlink:href="#F"/><use transform="matrix(0.04999999999999991,0,0,0.04999999999999991,69.89999999999988,0)" xlink:href="#F"/></g><path fill="#333" d="M-5 72V49h209v23H-5" id="G"/><path fill="#333" d="M24-231v-30h32v30H24zM24 0v-190h32V0H24" id="H"/><path fill="#333" d="M85-194c31 0 48 13 60 33l-1-100h32l1 261h-30c-2-10 0-23-3-31C134-8 116 4 85 4 32 4 16-35 15-94c0-66 23-100 70-100zm9 24c-40 0-46 34-46 75 0 40 6 74 45 74 42 0 51-32 51-76 0-42-9-74-50-73" id="I"/><g id="b"><use transform="matrix(0.04999999999999991,0,0,0.04999999999999991,0,0)" xlink:href="#G"/><use transform="matrix(0.04999999999999991,0,0,0.04999999999999991,9.999999999999982,0)" xlink:href="#H"/><use transform="matrix(0.04999999999999991,0,0,0.04999999999999991,13.949999999999976,0)" xlink:href="#I"/></g><path fill="#333" d="M140-251c81 0 123 46 123 126C263-46 219 4 140 4 59 4 17-45 17-125s42-126 123-126zm0 227c63 0 89-41 89-101s-29-99-89-99c-61 0-89 39-89 99S79-25 140-24" id="J"/><path fill="#333" d="M115-194c53 0 69 39 70 98 0 66-23 100-70 100C84 3 66-7 56-30L54 0H23l1-261h32v101c10-23 28-34 59-34zm-8 174c40 0 45-34 45-75 0-40-5-75-45-74-42 0-51 32-51 76 0 43 10 73 51 73" id="K"/><path fill="#333" d="M24-231v-30h32v30H24zM-9 49c24 4 33-6 33-30v-209h32V24c2 40-23 58-65 49V49" id="L"/><path fill="#333" d="M96-169c-40 0-48 33-48 73s9 75 48 75c24 0 41-14 43-38l32 2c-6 37-31 61-74 61-59 0-76-41-82-99-10-93 101-131 147-64 4 7 5 14 7 22l-32 3c-4-21-16-35-41-35" id="M"/><path fill="#333" d="M59-47c-2 24 18 29 38 22v24C64 9 27 4 27-40v-127H5v-23h24l9-43h21v43h35v23H59v120" id="N"/><g id="c"><use transform="matrix(0.04999999999999991,0,0,0.04999999999999991,0,0)" xlink:href="#J"/><use transform="matrix(0.04999999999999991,0,0,0.04999999999999991,13.999999999999975,0)" xlink:href="#K"/><use transform="matrix(0.04999999999999991,0,0,0.04999999999999991,23.999999999999957,0)" xlink:href="#L"/><use transform="matrix(0.04999999999999991,0,0,0.04999999999999991,27.94999999999995,0)" xlink:href="#F"/><use transform="matrix(0.04999999999999991,0,0,0.04999999999999991,37.94999999999993,0)" xlink:href="#M"/><use transform="matrix(0.04999999999999991,0,0,0.04999999999999991,46.94999999999992,0)" xlink:href="#N"/></g><path fill="#333" d="M33 0v-248h34V0H33" id="O"/><g id="d"><use transform="matrix(0.04999999999999991,0,0,0.04999999999999991,0,0)" xlink:href="#O"/><use transform="matrix(0.04999999999999991,0,0,0.04999999999999991,4.999999999999991,0)" xlink:href="#I"/></g><path fill="#333" d="M101-234c-31-9-42 10-38 44h38v23H63V0H32v-167H5v-23h27c-7-52 17-82 69-68v24" id="P"/><path fill="#333" d="M114-163C36-179 61-72 57 0H25l-1-190h30c1 12-1 29 2 39 6-27 23-49 58-41v29" id="Q"/><path fill="#333" d="M135-143c-3-34-86-38-87 0 15 53 115 12 119 90S17 21 10-45l28-5c4 36 97 45 98 0-10-56-113-15-118-90-4-57 82-63 122-42 12 7 21 19 24 35" id="R"/><path fill="#333" d="M117-194c89-4 53 116 60 194h-32v-121c0-31-8-49-39-48C34-167 62-67 57 0H25l-1-190h30c1 10-1 24 2 32 11-22 29-35 61-36" id="S"/><path fill="#333" d="M141-36C126-15 110 5 73 4 37 3 15-17 15-53c-1-64 63-63 125-63 3-35-9-54-41-54-24 1-41 7-42 31l-33-3c5-37 33-52 76-52 45 0 72 20 72 64v82c-1 20 7 32 28 27v20c-31 9-61-2-59-35zM48-53c0 20 12 33 32 33 41-3 63-29 60-74-43 2-92-5-92 41" id="T"/><g id="e"><use transform="matrix(0.04999999999999991,0,0,0.04999999999999991,0,0)" xlink:href="#P"/><use transform="matrix(0.04999999999999991,0,0,0.04999999999999991,4.999999999999991,0)" xlink:href="#H"/><use transform="matrix(0.04999999999999991,0,0,0.04999999999999991,8.949999999999985,0)" xlink:href="#Q"/><use transform="matrix(0.04999999999999991,0,0,0.04999999999999991,14.899999999999974,0)" xlink:href="#R"/><use transform="matrix(0.04999999999999991,0,0,0.04999999999999991,23.899999999999956,0)" xlink:href="#N"/><use transform="matrix(0.04999999999999991,0,0,0.04999999999999991,28.89999999999995,0)" xlink:href="#G"/><use transform="matrix(0.04999999999999991,0,0,0.04999999999999991,38.899999999999935,0)" xlink:href="#S"/><use transform="matrix(0.04999999999999991,0,0,0.04999999999999991,48.89999999999992,0)" xlink:href="#T"/><use transform="matrix(0.04999999999999991,0,0,0.04999999999999991,58.899999999999906,0)" xlink:href="#A"/><use transform="matrix(0.04999999999999991,0,0,0.04999999999999991,73.84999999999988,0)" xlink:href="#F"/></g><path fill="#333" d="M177-190C167-65 218 103 67 71c-23-6-38-20-44-43l32-5c15 47 100 32 89-28v-30C133-14 115 1 83 1 29 1 15-40 15-95c0-56 16-97 71-98 29-1 48 16 59 35 1-10 0-23 2-32h30zM94-22c36 0 50-32 50-73 0-42-14-75-50-75-39 0-46 34-46 75s6 73 46 73" id="U"/><g id="f"><use transform="matrix(0.04999999999999991,0,0,0.04999999999999991,0,0)" xlink:href="#R"/><use transform="matrix(0.04999999999999991,0,0,0.04999999999999991,8.999999999999984,0)" xlink:href="#N"/><use transform="matrix(0.04999999999999991,0,0,0.04999999999999991,13.999999999999975,0)" xlink:href="#Q"/><use transform="matrix(0.04999999999999991,0,0,0.04999999999999991,19.949999999999964,0)" xlink:href="#H"/><use transform="matrix(0.04999999999999991,0,0,0.04999999999999991,23.899999999999956,0)" xlink:href="#S"/><use transform="matrix(0.04999999999999991,0,0,0.04999999999999991,33.899999999999935,0)" xlink:href="#U"/></g><g id="g"><use transform="matrix(0.04999999999999991,0,0,0.04999999999999991,0,0)" xlink:href="#C"/><use transform="matrix(0.04999999999999991,0,0,0.04999999999999991,3.949999999999993,0)" xlink:href="#T"/><use transform="matrix(0.04999999999999991,0,0,0.04999999999999991,13.949999999999976,0)" xlink:href="#R"/><use transform="matrix(0.04999999999999991,0,0,0.04999999999999991,22.94999999999996,0)" xlink:href="#N"/><use transform="matrix(0.04999999999999991,0,0,0.04999999999999991,27.94999999999995,0)" xlink:href="#G"/><use transform="matrix(0.04999999999999991,0,0,0.04999999999999991,37.94999999999993,0)" xlink:href="#S"/><use transform="matrix(0.04999999999999991,0,0,0.04999999999999991,47.94999999999992,0)" xlink:href="#T"/><use transform="matrix(0.04999999999999991,0,0,0.04999999999999991,57.949999999999896,0)" xlink:href="#A"/><use transform="matrix(0.04999999999999991,0,0,0.04999999999999991,72.89999999999988,0)" xlink:href="#F"/></g><path d="M100-194c63 0 86 42 84 106H49c0 40 14 67 53 68 26 1 43-12 49-29l28 8c-11 28-37 45-77 45C44 4 14-33 15-96c1-61 26-98 85-98zm52 81c6-60-76-77-97-28-3 7-6 17-6 28h103" id="V"/><path d="M210-169c-67 3-38 105-44 169h-31v-121c0-29-5-50-35-48C34-165 62-65 56 0H25l-1-190h30c1 10-1 24 2 32 10-44 99-50 107 0 11-21 27-35 58-36 85-2 47 119 55 194h-31v-121c0-29-5-49-35-48" id="W"/><path d="M141-36C126-15 110 5 73 4 37 3 15-17 15-53c-1-64 63-63 125-63 3-35-9-54-41-54-24 1-41 7-42 31l-33-3c5-37 33-52 76-52 45 0 72 20 72 64v82c-1 20 7 32 28 27v20c-31 9-61-2-59-35zM48-53c0 20 12 33 32 33 41-3 63-29 60-74-43 2-92-5-92 41" id="X"/><path d="M24-231v-30h32v30H24zM24 0v-190h32V0H24" id="Y"/><path d="M24 0v-261h32V0H24" id="Z"/><g id="h"><use transform="matrix(0.05,0,0,0.05,0,0)" xlink:href="#V"/><use transform="matrix(0.05,0,0,0.05,10,0)" xlink:href="#W"/><use transform="matrix(0.05,0,0,0.05,24.950000000000003,0)" xlink:href="#X"/><use transform="matrix(0.05,0,0,0.05,34.95,0)" xlink:href="#Y"/><use transform="matrix(0.05,0,0,0.05,38.900000000000006,0)" xlink:href="#Z"/></g><path d="M135-143c-3-34-86-38-87 0 15 53 115 12 119 90S17 21 10-45l28-5c4 36 97 45 98 0-10-56-113-15-118-90-4-57 82-63 122-42 12 7 21 19 24 35" id="aa"/><path d="M59-47c-2 24 18 29 38 22v24C64 9 27 4 27-40v-127H5v-23h24l9-43h21v43h35v23H59v120" id="ab"/><path d="M114-163C36-179 61-72 57 0H25l-1-190h30c1 12-1 29 2 39 6-27 23-49 58-41v29" id="ac"/><path d="M117-194c89-4 53 116 60 194h-32v-121c0-31-8-49-39-48C34-167 62-67 57 0H25l-1-190h30c1 10-1 24 2 32 11-22 29-35 61-36" id="ad"/><path d="M177-190C167-65 218 103 67 71c-23-6-38-20-44-43l32-5c15 47 100 32 89-28v-30C133-14 115 1 83 1 29 1 15-40 15-95c0-56 16-97 71-98 29-1 48 16 59 35 1-10 0-23 2-32h30zM94-22c36 0 50-32 50-73 0-42-14-75-50-75-39 0-46 34-46 75s6 73 46 73" id="ae"/><g id="i"><use transform="matrix(0.05,0,0,0.05,0,0)" xlink:href="#aa"/><use transform="matrix(0.05,0,0,0.05,9,0)" xlink:href="#ab"/><use transform="matrix(0.05,0,0,0.05,14,0)" xlink:href="#ac"/><use transform="matrix(0.05,0,0,0.05,19.95,0)" xlink:href="#Y"/><use transform="matrix(0.05,0,0,0.05,23.9,0)" xlink:href="#ad"/><use transform="matrix(0.05,0,0,0.05,33.9,0)" xlink:href="#ae"/></g><g id="j"><use transform="matrix(0.05,0,0,0.05,0,0)" xlink:href="#ab"/><use transform="matrix(0.05,0,0,0.05,5,0)" xlink:href="#Y"/><use transform="matrix(0.05,0,0,0.05,8.95,0)" xlink:href="#ab"/><use transform="matrix(0.05,0,0,0.05,13.949999999999998,0)" xlink:href="#Z"/><use transform="matrix(0.05,0,0,0.05,17.9,0)" xlink:href="#V"/></g><path d="M100-194c62-1 85 37 85 99 1 63-27 99-86 99S16-35 15-95c0-66 28-99 85-99zM99-20c44 1 53-31 53-75 0-43-8-75-51-75s-53 32-53 75 10 74 51 75" id="af"/><path d="M106-169C34-169 62-67 57 0H25v-261h32l-1 103c12-21 28-36 61-36 89 0 53 116 60 194h-32v-121c2-32-8-49-39-48" id="ag"/><path d="M-5 72V49h209v23H-5" id="ah"/><g id="k"><use transform="matrix(0.05,0,0,0.05,0,0)" xlink:href="#af"/><use transform="matrix(0.05,0,0,0.05,10,0)" xlink:href="#ab"/><use transform="matrix(0.05,0,0,0.05,15,0)" xlink:href="#ag"/><use transform="matrix(0.05,0,0,0.05,25,0)" xlink:href="#V"/><use transform="matrix(0.05,0,0,0.05,35,0)" xlink:href="#ac"/><use transform="matrix(0.05,0,0,0.05,40.95,0)" xlink:href="#ah"/><use transform="matrix(0.05,0,0,0.05,50.95,0)" xlink:href="#ab"/><use transform="matrix(0.05,0,0,0.05,55.95,0)" xlink:href="#Y"/><use transform="matrix(0.05,0,0,0.05,59.900000000000006,0)" xlink:href="#ab"/><use transform="matrix(0.05,0,0,0.05,64.9,0)" xlink:href="#Z"/><use transform="matrix(0.05,0,0,0.05,68.85000000000001,0)" xlink:href="#V"/><use transform="matrix(0.05,0,0,0.05,78.85000000000001,0)" xlink:href="#aa"/></g><path d="M179-190L93 31C79 59 56 82 12 73V49c39 6 53-20 64-50L1-190h34L92-34l54-156h33" id="ai"/><path d="M87 75C49 33 22-17 22-94c0-76 28-126 65-167h31c-38 41-64 92-64 168S80 34 118 75H87" id="aj"/><path d="M33-261c38 41 65 92 65 168S71 34 33 75H2C39 34 66-17 66-93S39-220 2-261h31" id="ak"/><g id="l"><use transform="matrix(0.05,0,0,0.05,0,0)" xlink:href="#X"/><use transform="matrix(0.05,0,0,0.05,10,0)" xlink:href="#ac"/><use transform="matrix(0.05,0,0,0.05,15.949999999999998,0)" xlink:href="#ac"/><use transform="matrix(0.05,0,0,0.05,21.9,0)" xlink:href="#X"/><use transform="matrix(0.05,0,0,0.05,31.899999999999995,0)" xlink:href="#ai"/><use transform="matrix(0.05,0,0,0.05,40.9,0)" xlink:href="#aj"/><use transform="matrix(0.05,0,0,0.05,46.85,0)" xlink:href="#aa"/><use transform="matrix(0.05,0,0,0.05,55.85,0)" xlink:href="#ab"/><use transform="matrix(0.05,0,0,0.05,60.85,0)" xlink:href="#ac"/><use transform="matrix(0.05,0,0,0.05,66.8,0)" xlink:href="#Y"/><use transform="matrix(0.05,0,0,0.05,70.75,0)" xlink:href="#ad"/><use transform="matrix(0.05,0,0,0.05,80.75,0)" xlink:href="#ae"/><use transform="matrix(0.05,0,0,0.05,90.75,0)" xlink:href="#ak"/></g><path d="M101-234c-31-9-42 10-38 44h38v23H63V0H32v-167H5v-23h27c-7-52 17-82 69-68v24" id="al"/><g id="m"><use transform="matrix(0.05,0,0,0.05,0,0)" xlink:href="#ac"/><use transform="matrix(0.05,0,0,0.05,5.95,0)" xlink:href="#V"/><use transform="matrix(0.05,0,0,0.05,15.949999999999998,0)" xlink:href="#al"/></g><path d="M96-169c-40 0-48 33-48 73s9 75 48 75c24 0 41-14 43-38l32 2c-6 37-31 61-74 61-59 0-76-41-82-99-10-93 101-131 147-64 4 7 5 14 7 22l-32 3c-4-21-16-35-41-35" id="am"/><path d="M84 4C-5 8 30-112 23-190h32v120c0 31 7 50 39 49 72-2 45-101 50-169h31l1 190h-30c-1-10 1-25-2-33-11 22-28 36-60 37" id="an"/><path d="M85-194c31 0 48 13 60 33l-1-100h32l1 261h-30c-2-10 0-23-3-31C134-8 116 4 85 4 32 4 16-35 15-94c0-66 23-100 70-100zm9 24c-40 0-46 34-46 75 0 40 6 74 45 74 42 0 51-32 51-76 0-42-9-74-50-73" id="ao"/><g id="n"><use transform="matrix(0.05,0,0,0.05,0,0)" xlink:href="#am"/><use transform="matrix(0.05,0,0,0.05,9,0)" xlink:href="#an"/><use transform="matrix(0.05,0,0,0.05,19,0)" xlink:href="#ac"/><use transform="matrix(0.05,0,0,0.05,24.95,0)" xlink:href="#X"/><use transform="matrix(0.05,0,0,0.05,34.95,0)" xlink:href="#ab"/><use transform="matrix(0.05,0,0,0.05,39.95,0)" xlink:href="#af"/><use transform="matrix(0.05,0,0,0.05,49.95,0)" xlink:href="#ac"/><use transform="matrix(0.05,0,0,0.05,55.900000000000006,0)" xlink:href="#ah"/><use transform="matrix(0.05,0,0,0.05,65.9,0)" xlink:href="#ac"/><use transform="matrix(0.05,0,0,0.05,71.85000000000001,0)" xlink:href="#af"/><use transform="matrix(0.05,0,0,0.05,81.85000000000001,0)" xlink:href="#Z"/><use transform="matrix(0.05,0,0,0.05,85.80000000000001,0)" xlink:href="#V"/><use transform="matrix(0.05,0,0,0.05,95.80000000000001,0)" xlink:href="#ah"/><use transform="matrix(0.05,0,0,0.05,105.80000000000001,0)" xlink:href="#Y"/><use transform="matrix(0.05,0,0,0.05,109.75,0)" xlink:href="#ao"/><use transform="matrix(0.05,0,0,0.05,119.75,0)" xlink:href="#aa"/></g><path d="M115-194c53 0 69 39 70 98 0 66-23 100-70 100C84 3 66-7 56-30L54 0H23l1-261h32v101c10-23 28-34 59-34zm-8 174c40 0 45-34 45-75 0-40-5-75-45-74-42 0-51 32-51 76 0 43 10 73 51 73" id="ap"/><path d="M24-231v-30h32v30H24zM-9 49c24 4 33-6 33-30v-209h32V24c2 40-23 58-65 49V49" id="aq"/><g id="o"><use transform="matrix(0.05,0,0,0.05,0,0)" xlink:href="#aa"/><use transform="matrix(0.05,0,0,0.05,9,0)" xlink:href="#ab"/><use transform="matrix(0.05,0,0,0.05,14,0)" xlink:href="#ac"/><use transform="matrix(0.05,0,0,0.05,19.95,0)" xlink:href="#Y"/><use transform="matrix(0.05,0,0,0.05,23.9,0)" xlink:href="#ad"/><use transform="matrix(0.05,0,0,0.05,33.9,0)" xlink:href="#ae"/><use transform="matrix(0.05,0,0,0.05,43.9,0)" xlink:href="#aj"/><use transform="matrix(0.05,0,0,0.05,49.85,0)" xlink:href="#af"/><use transform="matrix(0.05,0,0,0.05,59.85,0)" xlink:href="#ap"/><use transform="matrix(0.05,0,0,0.05,69.85,0)" xlink:href="#aq"/><use transform="matrix(0.05,0,0,0.05,73.8,0)" xlink:href="#V"/><use transform="matrix(0.05,0,0,0.05,83.8,0)" xlink:href="#am"/><use transform="matrix(0.05,0,0,0.05,92.8,0)" xlink:href="#ab"/></g><g id="p"><use transform="matrix(0.05,0,0,0.05,0,0)" xlink:href="#Y"/><use transform="matrix(0.05,0,0,0.05,3.95,0)" xlink:href="#ao"/><use transform="matrix(0.05,0,0,0.05,13.949999999999998,0)" xlink:href="#aa"/><use transform="matrix(0.05,0,0,0.05,22.95,0)" xlink:href="#ak"/></g><path d="M115-194c55 1 70 41 70 98S169 2 115 4C84 4 66-9 55-30l1 105H24l-1-265h31l2 30c10-21 28-34 59-34zm-8 174c40 0 45-34 45-75s-6-73-45-74c-42 0-51 32-51 76 0 43 10 73 51 73" id="ar"/><g id="q"><use transform="matrix(0.05,0,0,0.05,0,0)" xlink:href="#Y"/><use transform="matrix(0.05,0,0,0.05,3.95,0)" xlink:href="#aa"/><use transform="matrix(0.05,0,0,0.05,12.949999999999998,0)" xlink:href="#ah"/><use transform="matrix(0.05,0,0,0.05,22.95,0)" xlink:href="#ar"/><use transform="matrix(0.05,0,0,0.05,32.95,0)" xlink:href="#an"/><use transform="matrix(0.05,0,0,0.05,42.95,0)" xlink:href="#ac"/><use transform="matrix(0.05,0,0,0.05,48.900000000000006,0)" xlink:href="#am"/><use transform="matrix(0.05,0,0,0.05,57.900000000000006,0)" xlink:href="#ag"/><use transform="matrix(0.05,0,0,0.05,67.9,0)" xlink:href="#X"/><use transform="matrix(0.05,0,0,0.05,77.9,0)" xlink:href="#aa"/><use transform="matrix(0.05,0,0,0.05,86.9,0)" xlink:href="#V"/><use transform="matrix(0.05,0,0,0.05,96.9,0)" xlink:href="#ac"/></g><g id="r"><use transform="matrix(0.05,0,0,0.05,0,0)" xlink:href="#ap"/><use transform="matrix(0.05,0,0,0.05,10,0)" xlink:href="#af"/><use transform="matrix(0.05,0,0,0.05,20,0)" xlink:href="#af"/><use transform="matrix(0.05,0,0,0.05,30,0)" xlink:href="#Z"/></g><path fill="#333" d="M212-179c-10-28-35-45-73-45-59 0-87 40-87 99 0 60 29 101 89 101 43 0 62-24 78-52l27 14C228-24 195 4 139 4 59 4 22-46 18-125c-6-104 99-153 187-111 19 9 31 26 39 46" id="as"/><path fill="#333" d="M84 4C-5 8 30-112 23-190h32v120c0 31 7 50 39 49 72-2 45-101 50-169h31l1 190h-30c-1-10 1-25-2-33-11 22-28 36-60 37" id="at"/><path fill="#333" d="M233-177c-1 41-23 64-60 70L243 0h-38l-65-103H63V0H30v-248c88 3 205-21 203 71zM63-129c60-2 137 13 137-47 0-61-80-42-137-45v92" id="au"/><g id="s"><use transform="matrix(0.04999999999999991,0,0,0.04999999999999991,0,0)" xlink:href="#as"/><use transform="matrix(0.04999999999999991,0,0,0.04999999999999991,12.949999999999978,0)" xlink:href="#at"/><use transform="matrix(0.04999999999999991,0,0,0.04999999999999991,22.94999999999996,0)" xlink:href="#Q"/><use transform="matrix(0.04999999999999991,0,0,0.04999999999999991,28.89999999999995,0)" xlink:href="#T"/><use transform="matrix(0.04999999999999991,0,0,0.04999999999999991,38.899999999999935,0)" xlink:href="#N"/><use transform="matrix(0.04999999999999991,0,0,0.04999999999999991,43.89999999999993,0)" xlink:href="#D"/><use transform="matrix(0.04999999999999991,0,0,0.04999999999999991,53.899999999999906,0)" xlink:href="#Q"/><use transform="matrix(0.04999999999999991,0,0,0.04999999999999991,59.849999999999895,0)" xlink:href="#au"/><use transform="matrix(0.04999999999999991,0,0,0.04999999999999991,72.79999999999987,0)" xlink:href="#D"/><use transform="matrix(0.04999999999999991,0,0,0.04999999999999991,82.79999999999986,0)" xlink:href="#C"/><use transform="matrix(0.04999999999999991,0,0,0.04999999999999991,86.74999999999984,0)" xlink:href="#F"/><use transform="matrix(0.04999999999999991,0,0,0.04999999999999991,96.74999999999983,0)" xlink:href="#R"/></g><g id="t"><use transform="matrix(0.04999999999999991,0,0,0.04999999999999991,0,0)" xlink:href="#S"/><use transform="matrix(0.04999999999999991,0,0,0.04999999999999991,9.999999999999982,0)" xlink:href="#T"/><use transform="matrix(0.04999999999999991,0,0,0.04999999999999991,19.999999999999964,0)" xlink:href="#A"/><use transform="matrix(0.04999999999999991,0,0,0.04999999999999991,34.94999999999994,0)" xlink:href="#F"/></g><path fill="#333" d="M141 0L90-78 38 0H4l68-98-65-92h35l48 74 47-74h35l-64 92 68 98h-35" id="av"/><path fill="#333" d="M106-169C34-169 62-67 57 0H25v-261h32l-1 103c12-21 28-36 61-36 89 0 53 116 60 194h-32v-121c2-32-8-49-39-48" id="aw"/><g id="u"><use transform="matrix(0.04999999999999991,0,0,0.04999999999999991,0,0)" xlink:href="#F"/><use transform="matrix(0.04999999999999991,0,0,0.04999999999999991,9.999999999999982,0)" xlink:href="#av"/><use transform="matrix(0.04999999999999991,0,0,0.04999999999999991,18.999999999999964,0)" xlink:href="#aw"/><use transform="matrix(0.04999999999999991,0,0,0.04999999999999991,28.99999999999995,0)" xlink:href="#H"/><use transform="matrix(0.04999999999999991,0,0,0.04999999999999991,32.94999999999994,0)" xlink:href="#K"/><use transform="matrix(0.04999999999999991,0,0,0.04999999999999991,42.94999999999992,0)" xlink:href="#H"/><use transform="matrix(0.04999999999999991,0,0,0.04999999999999991,46.89999999999991,0)" xlink:href="#N"/><use transform="matrix(0.04999999999999991,0,0,0.04999999999999991,51.899999999999906,0)" xlink:href="#G"/><use transform="matrix(0.04999999999999991,0,0,0.04999999999999991,61.89999999999989,0)" xlink:href="#T"/><use transform="matrix(0.04999999999999991,0,0,0.04999999999999991,71.89999999999988,0)" xlink:href="#Q"/><use transform="matrix(0.04999999999999991,0,0,0.04999999999999991,77.84999999999987,0)" xlink:href="#F"/><use transform="matrix(0.04999999999999991,0,0,0.04999999999999991,87.84999999999985,0)" xlink:href="#T"/><use transform="matrix(0.04999999999999991,0,0,0.04999999999999991,97.84999999999984,0)" xlink:href="#G"/><use transform="matrix(0.04999999999999991,0,0,0.04999999999999991,107.84999999999984,0)" xlink:href="#H"/><use transform="matrix(0.04999999999999991,0,0,0.04999999999999991,111.7999999999998,0)" xlink:href="#I"/><use transform="matrix(0.04999999999999991,0,0,0.04999999999999991,121.79999999999978,0)" xlink:href="#R"/></g><path fill="#333" d="M127-220V0H93v-220H8v-28h204v28h-85" id="ax"/><g id="v"><use transform="matrix(0.04999999999999991,0,0,0.04999999999999991,0,0)" xlink:href="#ax"/><use transform="matrix(0.04999999999999991,0,0,0.04999999999999991,9.949999999999983,0)" xlink:href="#E"/><use transform="matrix(0.04999999999999991,0,0,0.04999999999999991,18.949999999999967,0)" xlink:href="#B"/><use transform="matrix(0.04999999999999991,0,0,0.04999999999999991,28.94999999999995,0)" xlink:href="#F"/></g><g id="w"><use transform="matrix(0.05,0,0,0.05,0,0)" xlink:href="#aa"/><use transform="matrix(0.05,0,0,0.05,9,0)" xlink:href="#ab"/><use transform="matrix(0.05,0,0,0.05,14,0)" xlink:href="#af"/><use transform="matrix(0.05,0,0,0.05,24,0)" xlink:href="#ac"/><use transform="matrix(0.05,0,0,0.05,29.950000000000003,0)" xlink:href="#X"/><use transform="matrix(0.05,0,0,0.05,39.95,0)" xlink:href="#ae"/><use transform="matrix(0.05,0,0,0.05,49.95,0)" xlink:href="#V"/><use transform="matrix(0.05,0,0,0.05,59.95,0)" xlink:href="#ah"/><use transform="matrix(0.05,0,0,0.05,69.95,0)" xlink:href="#aa"/><use transform="matrix(0.05,0,0,0.05,78.95,0)" xlink:href="#ar"/><use transform="matrix(0.05,0,0,0.05,88.95,0)" xlink:href="#X"/><use transform="matrix(0.05,0,0,0.05,98.95,0)" xlink:href="#am"/><use transform="matrix(0.05,0,0,0.05,107.95,0)" xlink:href="#V"/><use transform="matrix(0.05,0,0,0.05,117.95,0)" xlink:href="#ah"/><use transform="matrix(0.05,0,0,0.05,127.95,0)" xlink:href="#Y"/><use transform="matrix(0.05,0,0,0.05,131.9,0)" xlink:href="#ao"/><use transform="matrix(0.05,0,0,0.05,141.9,0)" xlink:href="#aa"/></g><path d="M127-220V0H93v-220H8v-28h204v28h-85" id="ay"/><g id="x"><use transform="matrix(0.05,0,0,0.05,0,0)" xlink:href="#ay"/><use transform="matrix(0.05,0,0,0.05,9.950000000000001,0)" xlink:href="#ai"/><use transform="matrix(0.05,0,0,0.05,18.950000000000003,0)" xlink:href="#ar"/><use transform="matrix(0.05,0,0,0.05,28.950000000000003,0)" xlink:href="#V"/></g><g id="y"><use transform="matrix(0.05,0,0,0.05,0,0)" xlink:href="#V"/><use transform="matrix(0.05,0,0,0.05,10,0)" xlink:href="#W"/><use transform="matrix(0.05,0,0,0.05,24.950000000000003,0)" xlink:href="#ar"/><use transform="matrix(0.05,0,0,0.05,34.95,0)" xlink:href="#Z"/><use transform="matrix(0.05,0,0,0.05,38.900000000000006,0)" xlink:href="#af"/><use transform="matrix(0.05,0,0,0.05,48.900000000000006,0)" xlink:href="#ai"/><use transform="matrix(0.05,0,0,0.05,57.900000000000006,0)" xlink:href="#V"/><use transform="matrix(0.05,0,0,0.05,67.9,0)" xlink:href="#V"/><use transform="matrix(0.05,0,0,0.05,77.9,0)" xlink:href="#ah"/><use transform="matrix(0.05,0,0,0.05,87.9,0)" xlink:href="#Y"/><use transform="matrix(0.05,0,0,0.05,91.85000000000001,0)" xlink:href="#ao"/><use transform="matrix(0.05,0,0,0.05,101.85000000000001,0)" xlink:href="#aa"/></g></defs></g></svg>