<svg xmlns="http://www.w3.org/2000/svg" xmlns:xlink="http://www.w3.org/1999/xlink" xmlns:lucid="lucid" width="1485.91" height="708.4"><g transform="translate(0 -92)" lucid:page-tab-id="K9dyNnIob7Fu"><path d="M0 0h1760v1360H0z" fill="#fff"/><path d="M1000 468a8 8 0 0 1 8-8h262.7a8 8 0 0 1 8 8v152a8 8 0 0 1-8 8H1008a8 8 0 0 1-8-8z" fill="#7ab648"/><path d="M1000 468a8 8 0 0 1 8-8h262.7a8 8 0 0 1 8 8v152a8 8 0 0 1-8 8H1008a8 8 0 0 1-8-8zM1000 500h278.7M1042.95 500v128M1188.8 500v128" stroke="#333" fill="none"/><use xlink:href="#a" transform="matrix(1,0,0,1,1010,460) translate(98.05 23.6)"/><use xlink:href="#b" transform="matrix(1,0,0,1,1005,502.5) translate(4.5 17.1)"/><use xlink:href="#c" transform="matrix(1,0,0,1,1047.95,502.5) translate(0 17.1)"/><use xlink:href="#d" transform="matrix(1,0,0,1,1193.8,502.5) translate(0 17.1)"/><use xlink:href="#e" transform="matrix(1,0,0,1,1047.95,534.5) translate(0 17.1)"/><use xlink:href="#f" transform="matrix(1,0,0,1,1193.8,534.5) translate(0 17.1)"/><use xlink:href="#g" transform="matrix(1,0,0,1,1005,566.5) translate(5.024999999999999 17.1)"/><use xlink:href="#h" transform="matrix(1,0,0,1,1047.95,566.5) translate(0 17.1)"/><use xlink:href="#d" transform="matrix(1,0,0,1,1193.8,566.5) translate(0 17.1)"/><use xlink:href="#g" transform="matrix(1,0,0,1,1005,598.5) translate(5.024999999999999 17.1)"/><use xlink:href="#i" transform="matrix(1,0,0,1,1047.95,598.5) translate(0 17.1)"/><use xlink:href="#d" transform="matrix(1,0,0,1,1193.8,598.5) translate(0 17.1)"/><path d="M442 512a8 8 0 0 1 8-8h263.75a8 8 0 0 1 8 8v88a8 8 0 0 1-8 8H450a8 8 0 0 1-8-8z" fill="#f9d2de"/><path d="M442 512a8 8 0 0 1 8-8h263.75a8 8 0 0 1 8 8v88a8 8 0 0 1-8 8H450a8 8 0 0 1-8-8zM442 544h279.75M486 544v64M631.85 544v64" stroke="#333" fill="none"/><use xlink:href="#j" transform="matrix(1,0,0,1,452.0000000000002,504) translate(70.07499999999999 23.6)"/><use xlink:href="#b" transform="matrix(1,0,0,1,447.0000000000002,546.5) translate(5 17.1)"/><use xlink:href="#h" transform="matrix(1,0,0,1,491.0000000000002,546.5) translate(0 17.1)"/><use xlink:href="#d" transform="matrix(1,0,0,1,636.8500000000003,546.5) translate(0 17.1)"/><use xlink:href="#e" transform="matrix(1,0,0,1,491.0000000000002,578.5) translate(0 17.1)"/><use xlink:href="#f" transform="matrix(1,0,0,1,636.8500000000003,578.5) translate(0 17.1)"/><path d="M742.25 560h108.63a10 10 0 0 1 10 10 10 10 0 0 0 10 10H979.5" stroke="#333" fill="none"/><path d="M742.25 570v-20M722.25 560h20" stroke="#333" fill="#fff"/><path d="M999.28 590l-20-10 20-10" stroke="#333" fill="#fff" fill-opacity="0"/><path d="M999.28 580h-20M979.28 570v20" stroke="#333" fill="#fff"/><path d="M920 120a8 8 0 0 1 8-8h233.75a8 8 0 0 1 8 8v152a8 8 0 0 1-8 8H928a8 8 0 0 1-8-8z" fill="#f9d2de"/><path d="M920 120a8 8 0 0 1 8-8h233.75a8 8 0 0 1 8 8v152a8 8 0 0 1-8 8H928a8 8 0 0 1-8-8zM920 152h249.75M964 152v128M1079.85 152v128" stroke="#333" fill="none"/><use xlink:href="#k" transform="matrix(1,0,0,1,930,112) translate(70.55 23.6)"/><use xlink:href="#b" transform="matrix(1,0,0,1,925,154.5) translate(5 17.1)"/><use xlink:href="#l" transform="matrix(1,0,0,1,969,154.5) translate(0 17.1)"/><use xlink:href="#d" transform="matrix(1,0,0,1,1084.85,154.5) translate(0 17.1)"/><use xlink:href="#m" transform="matrix(1,0,0,1,969,186.5) translate(0 17.1)"/><use xlink:href="#f" transform="matrix(1,0,0,1,1084.85,186.5) translate(0 17.1)"/><use xlink:href="#n" transform="matrix(1,0,0,1,969,218.5) translate(0 17.1)"/><use xlink:href="#f" transform="matrix(1,0,0,1,1084.85,218.5) translate(0 17.1)"/><use xlink:href="#o" transform="matrix(1,0,0,1,969,250.5) translate(0 17.1)"/><use xlink:href="#f" transform="matrix(1,0,0,1,1084.85,250.5) translate(0 17.1)"/><path d="M1452.43 320a2 2 0 0 1 2 2v67.16a2 2 0 0 0 2 2h7.48a.77.77 0 0 1 .52 1.33l-19.98 17.98a2.22 2.22 0 0 1-2.97 0l-19.98-18a.77.77 0 0 1 .5-1.32h7.48a2 2 0 0 0 2-2V322a2 2 0 0 1 2-2z" stroke="#333" fill="#ffbbb1"/><path d="M442 652.4a8 8 0 0 1 8-8h284a8 8 0 0 1 8 8v120a8 8 0 0 1-8 8H450a8 8 0 0 1-8-8z" fill="#f5b5c8"/><path d="M442 652.4a8 8 0 0 1 8-8h284a8 8 0 0 1 8 8v120a8 8 0 0 1-8 8H450a8 8 0 0 1-8-8zM442 684.4h300M493.23 684.4v96M684.35 684.4v96" stroke="#333" fill="none"/><use xlink:href="#p" transform="matrix(1,0,0,1,452.0000000000002,644.4) translate(87.55 23.6)"/><use xlink:href="#q" transform="matrix(1,0,0,1,447.0000000000002,686.9) translate(0 17.1)"/><use xlink:href="#r" transform="matrix(1,0,0,1,498.2343829333447,686.9) translate(0 17.1)"/><use xlink:href="#s" transform="matrix(1,0,0,1,689.3529269094677,686.9) translate(0 17.1)"/><use xlink:href="#t" transform="matrix(1,0,0,1,498.2343829333447,718.9) translate(0 17.1)"/><use xlink:href="#u" transform="matrix(1,0,0,1,689.3529269094677,718.9) translate(0 17.1)"/><use xlink:href="#v" transform="matrix(1,0,0,1,447.0000000000002,750.9) translate(0 17.1)"/><use xlink:href="#w" transform="matrix(1,0,0,1,498.2343829333447,750.9) translate(0 17.1)"/><use xlink:href="#s" transform="matrix(1,0,0,1,689.3529269094677,750.9) translate(0 17.1)"/><path d="M422.1 764.4h-8.6a12 12 0 0 1-12-12V572a12 12 0 0 1 12-12h8" stroke="#333" fill="none"/><path d="M441.28 774.4l-20-10 20-10" stroke="#333" fill="#fff" fill-opacity="0"/><path d="M441.28 764.4h-20M421.5 550v20M441.5 560h-20" stroke="#333" fill="#fff"/><path d="M979.5 612H806.12a12 12 0 0 0-12 12v128.4a12 12 0 0 1-12 12H762.5" stroke="#333" fill="none"/><path d="M999.28 622l-20-10 20-10" stroke="#333" fill="#fff" fill-opacity="0"/><path d="M999.28 612h-20M979.28 602v20M762.5 774.4v-20M742.5 764.4h20" stroke="#333" fill="#fff"/><path d="M20 288a8 8 0 0 1 8-8h244a8 8 0 0 1 8 8v120a8 8 0 0 1-8 8H28a8 8 0 0 1-8-8z" fill="#c1e4f7"/><path d="M20 288a8 8 0 0 1 8-8h244a8 8 0 0 1 8 8v120a8 8 0 0 1-8 8H28a8 8 0 0 1-8-8zM20 320h260M62.95 320v96M203.5 320v96" stroke="#333" fill="none"/><use xlink:href="#x" transform="matrix(1,0,0,1,30,280) translate(67.125 23.6)"/><use xlink:href="#b" transform="matrix(1,0,0,1,25,322.5) translate(4.5 17.1)"/><use xlink:href="#y" transform="matrix(1,0,0,1,67.95,322.5) translate(0 17.1)"/><use xlink:href="#d" transform="matrix(1,0,0,1,208.5030190849036,322.5) translate(0 17.1)"/><use xlink:href="#z" transform="matrix(1,0,0,1,67.95,354.5) translate(0 17.1)"/><use xlink:href="#f" transform="matrix(1,0,0,1,208.5030190849036,354.5) translate(0 17.1)"/><path d="M482 132a8 8 0 0 1 8-8h244a8 8 0 0 1 8 8v120a8 8 0 0 1-8 8H490a8 8 0 0 1-8-8z" fill="#c1e4f7"/><path d="M482 132a8 8 0 0 1 8-8h244a8 8 0 0 1 8 8v120a8 8 0 0 1-8 8H490a8 8 0 0 1-8-8zM482 164h260M524.95 164v96M665.5 164v96" stroke="#333" fill="none"/><use xlink:href="#A" transform="matrix(1,0,0,1,492.0000000000002,124) translate(57.099999999999994 23.6)"/><use xlink:href="#b" transform="matrix(1,0,0,1,487.0000000000002,166.5) translate(4.5 17.1)"/><use xlink:href="#B" transform="matrix(1,0,0,1,529.9500000000003,166.5) translate(0 17.1)"/><use xlink:href="#d" transform="matrix(1,0,0,1,670.5030190849038,166.5) translate(0 17.1)"/><use xlink:href="#g" transform="matrix(1,0,0,1,487.0000000000002,198.5) translate(5.024999999999999 17.1)"/><use xlink:href="#l" transform="matrix(1,0,0,1,529.9500000000003,198.5) translate(0 17.1)"/><use xlink:href="#d" transform="matrix(1,0,0,1,670.5030190849038,198.5) translate(0 17.1)"/><use xlink:href="#g" transform="matrix(1,0,0,1,487.0000000000002,230.5) translate(5.024999999999999 17.1)"/><use xlink:href="#y" transform="matrix(1,0,0,1,529.9500000000003,230.5) translate(0 17.1)"/><use xlink:href="#d" transform="matrix(1,0,0,1,670.5030190849038,230.5) translate(0 17.1)"/><path d="M782 212.08h37a12 12 0 0 0 12-12V180a12 12 0 0 1 12-12h57.1" stroke="#333" fill="none"/><path d="M742.72 202.08l20 10-20 10" stroke="#333" fill="#fff" fill-opacity="0"/><path d="M742.72 212.08h20M782.72 212.08c0 5.52-4.47 10-10 10-5.52 0-10-4.48-10-10 0-5.53 4.48-10 10-10 5.53 0 10 4.47 10 10" stroke="#333" fill="#fff"/><path d="M919.28 178l-20-10 20-10" stroke="#333" fill="#fff" fill-opacity="0"/><path d="M919.28 168h-20" stroke="#333" fill="#fff"/><path d="M442 244.2h-49a12 12 0 0 0-12 12V324a12 12 0 0 1-12 12h-69.1" stroke="#333" fill="none"/><path d="M481.28 254.2l-20-10 20-10" stroke="#333" fill="#fff" fill-opacity="0"/><path d="M481.28 244.2h-20M461.28 244.2c0 5.52-4.48 10-10 10-5.53 0-10-4.48-10-10s4.47-10 10-10c5.52 0 10 4.48 10 10" stroke="#333" fill="#fff"/><path d="M280.72 326l20 10-20 10" stroke="#333" fill="#fff" fill-opacity="0"/><path d="M280.72 336h20" stroke="#333" fill="#fff"/><path d="M300.5 336H349a12 12 0 0 1 12 12v164a12 12 0 0 0 12 12h49.1" stroke="#333" fill="none"/><path d="M300.5 346v-20M280.5 336h20" stroke="#333" fill="#fff"/><path d="M441.28 534l-20-10 20-10" stroke="#333" fill="#fff" fill-opacity="0"/><path d="M441.28 524h-20" stroke="#333" fill="#fff"/><path d="M762.5 244.2h8a12 12 0 0 1 12 12V548a12 12 0 0 1-12 12h-28.84" stroke="#333" fill="none"/><path d="M762.5 254.2v-20M742.5 244.2h20" stroke="#333" fill="#fff"/><path d="M722.47 550l20 10-20 10" stroke="#333" fill="#fff" fill-opacity="0"/><path d="M722.47 560h20" stroke="#333" fill="#fff"/><defs><path d="M30 0v-248h187v28H63v79h144v27H63v87h162V0H30" id="C"/><path d="M141 0L90-78 38 0H4l68-98-65-92h35l48 74 47-74h35l-64 92 68 98h-35" id="D"/><path d="M106-169C34-169 62-67 57 0H25v-261h32l-1 103c12-21 28-36 61-36 89 0 53 116 60 194h-32v-121c2-32-8-49-39-48" id="E"/><path d="M24-231v-30h32v30H24zM24 0v-190h32V0H24" id="F"/><path d="M115-194c53 0 69 39 70 98 0 66-23 100-70 100C84 3 66-7 56-30L54 0H23l1-261h32v101c10-23 28-34 59-34zm-8 174c40 0 45-34 45-75 0-40-5-75-45-74-42 0-51 32-51 76 0 43 10 73 51 73" id="G"/><path d="M59-47c-2 24 18 29 38 22v24C64 9 27 4 27-40v-127H5v-23h24l9-43h21v43h35v23H59v120" id="H"/><path d="M135-143c-3-34-86-38-87 0 15 53 115 12 119 90S17 21 10-45l28-5c4 36 97 45 98 0-10-56-113-15-118-90-4-57 82-63 122-42 12 7 21 19 24 35" id="I"/><g id="a"><use transform="matrix(0.05,0,0,0.05,0,0)" xlink:href="#C"/><use transform="matrix(0.05,0,0,0.05,12,0)" xlink:href="#D"/><use transform="matrix(0.05,0,0,0.05,21,0)" xlink:href="#E"/><use transform="matrix(0.05,0,0,0.05,31,0)" xlink:href="#F"/><use transform="matrix(0.05,0,0,0.05,34.95,0)" xlink:href="#G"/><use transform="matrix(0.05,0,0,0.05,44.95,0)" xlink:href="#F"/><use transform="matrix(0.05,0,0,0.05,48.900000000000006,0)" xlink:href="#H"/><use transform="matrix(0.05,0,0,0.05,53.900000000000006,0)" xlink:href="#I"/></g><path d="M30-248c87 1 191-15 191 75 0 78-77 80-158 76V0H30v-248zm33 125c57 0 124 11 124-50 0-59-68-47-124-48v98" id="J"/><path d="M194 0L95-120 63-95V0H30v-248h33v124l119-124h40L117-140 236 0h-42" id="K"/><g id="b"><use transform="matrix(0.05,0,0,0.05,0,0)" xlink:href="#J"/><use transform="matrix(0.05,0,0,0.05,12,0)" xlink:href="#K"/></g><path d="M33 0v-248h34V0H33" id="L"/><path d="M85-194c31 0 48 13 60 33l-1-100h32l1 261h-30c-2-10 0-23-3-31C134-8 116 4 85 4 32 4 16-35 15-94c0-66 23-100 70-100zm9 24c-40 0-46 34-46 75 0 40 6 74 45 74 42 0 51-32 51-76 0-42-9-74-50-73" id="M"/><g id="c"><use transform="matrix(0.05,0,0,0.05,0,0)" xlink:href="#C"/><use transform="matrix(0.05,0,0,0.05,12,0)" xlink:href="#D"/><use transform="matrix(0.05,0,0,0.05,21,0)" xlink:href="#E"/><use transform="matrix(0.05,0,0,0.05,31,0)" xlink:href="#F"/><use transform="matrix(0.05,0,0,0.05,34.95,0)" xlink:href="#G"/><use transform="matrix(0.05,0,0,0.05,44.95,0)" xlink:href="#F"/><use transform="matrix(0.05,0,0,0.05,48.900000000000006,0)" xlink:href="#H"/><use transform="matrix(0.05,0,0,0.05,53.900000000000006,0)" xlink:href="#L"/><use transform="matrix(0.05,0,0,0.05,58.900000000000006,0)" xlink:href="#M"/></g><path d="M117-194c89-4 53 116 60 194h-32v-121c0-31-8-49-39-48C34-167 62-67 57 0H25l-1-190h30c1 10-1 24 2 32 11-22 29-35 61-36" id="N"/><g id="d"><use transform="matrix(0.05,0,0,0.05,0,0)" xlink:href="#F"/><use transform="matrix(0.05,0,0,0.05,3.95,0)" xlink:href="#N"/><use transform="matrix(0.05,0,0,0.05,13.949999999999998,0)" xlink:href="#H"/></g><path d="M190 0L58-211 59 0H30v-248h39L202-35l-2-213h31V0h-41" id="O"/><path d="M141-36C126-15 110 5 73 4 37 3 15-17 15-53c-1-64 63-63 125-63 3-35-9-54-41-54-24 1-41 7-42 31l-33-3c5-37 33-52 76-52 45 0 72 20 72 64v82c-1 20 7 32 28 27v20c-31 9-61-2-59-35zM48-53c0 20 12 33 32 33 41-3 63-29 60-74-43 2-92-5-92 41" id="P"/><path d="M210-169c-67 3-38 105-44 169h-31v-121c0-29-5-50-35-48C34-165 62-65 56 0H25l-1-190h30c1 10-1 24 2 32 10-44 99-50 107 0 11-21 27-35 58-36 85-2 47 119 55 194h-31v-121c0-29-5-49-35-48" id="Q"/><path d="M100-194c63 0 86 42 84 106H49c0 40 14 67 53 68 26 1 43-12 49-29l28 8c-11 28-37 45-77 45C44 4 14-33 15-96c1-61 26-98 85-98zm52 81c6-60-76-77-97-28-3 7-6 17-6 28h103" id="R"/><g id="e"><use transform="matrix(0.05,0,0,0.05,0,0)" xlink:href="#O"/><use transform="matrix(0.05,0,0,0.05,12.950000000000001,0)" xlink:href="#P"/><use transform="matrix(0.05,0,0,0.05,22.950000000000003,0)" xlink:href="#Q"/><use transform="matrix(0.05,0,0,0.05,37.900000000000006,0)" xlink:href="#R"/></g><path d="M108 0H70L1-190h34L89-25l56-165h34" id="S"/><path d="M114-163C36-179 61-72 57 0H25l-1-190h30c1 12-1 29 2 39 6-27 23-49 58-41v29" id="T"/><path d="M96-169c-40 0-48 33-48 73s9 75 48 75c24 0 41-14 43-38l32 2c-6 37-31 61-74 61-59 0-76-41-82-99-10-93 101-131 147-64 4 7 5 14 7 22l-32 3c-4-21-16-35-41-35" id="U"/><g id="f"><use transform="matrix(0.05,0,0,0.05,0,0)" xlink:href="#N"/><use transform="matrix(0.05,0,0,0.05,10,0)" xlink:href="#S"/><use transform="matrix(0.05,0,0,0.05,19,0)" xlink:href="#P"/><use transform="matrix(0.05,0,0,0.05,29,0)" xlink:href="#T"/><use transform="matrix(0.05,0,0,0.05,34.95,0)" xlink:href="#U"/><use transform="matrix(0.05,0,0,0.05,43.95,0)" xlink:href="#E"/><use transform="matrix(0.05,0,0,0.05,53.95,0)" xlink:href="#P"/><use transform="matrix(0.05,0,0,0.05,63.95,0)" xlink:href="#T"/></g><path d="M63-220v92h138v28H63V0H30v-248h175v28H63" id="V"/><g id="g"><use transform="matrix(0.05,0,0,0.05,0,0)" xlink:href="#V"/><use transform="matrix(0.05,0,0,0.05,10.950000000000001,0)" xlink:href="#K"/></g><path d="M212-179c-10-28-35-45-73-45-59 0-87 40-87 99 0 60 29 101 89 101 43 0 62-24 78-52l27 14C228-24 195 4 139 4 59 4 22-46 18-125c-6-104 99-153 187-111 19 9 31 26 39 46" id="W"/><path d="M84 4C-5 8 30-112 23-190h32v120c0 31 7 50 39 49 72-2 45-101 50-169h31l1 190h-30c-1-10 1-25-2-33-11 22-28 36-60 37" id="X"/><path d="M100-194c62-1 85 37 85 99 1 63-27 99-86 99S16-35 15-95c0-66 28-99 85-99zM99-20c44 1 53-31 53-75 0-43-8-75-51-75s-53 32-53 75 10 74 51 75" id="Y"/><path d="M185-189c-5-48-123-54-124 2 14 75 158 14 163 119 3 78-121 87-175 55-17-10-28-26-33-46l33-7c5 56 141 63 141-1 0-78-155-14-162-118-5-82 145-84 179-34 5 7 8 16 11 25" id="Z"/><path d="M115-194c55 1 70 41 70 98S169 2 115 4C84 4 66-9 55-30l1 105H24l-1-265h31l2 30c10-21 28-34 59-34zm-8 174c40 0 45-34 45-75s-6-73-45-74c-42 0-51 32-51 76 0 43 10 73 51 73" id="aa"/><g id="h"><use transform="matrix(0.05,0,0,0.05,0,0)" xlink:href="#W"/><use transform="matrix(0.05,0,0,0.05,12.950000000000001,0)" xlink:href="#X"/><use transform="matrix(0.05,0,0,0.05,22.950000000000003,0)" xlink:href="#T"/><use transform="matrix(0.05,0,0,0.05,28.900000000000002,0)" xlink:href="#P"/><use transform="matrix(0.05,0,0,0.05,38.900000000000006,0)" xlink:href="#H"/><use transform="matrix(0.05,0,0,0.05,43.900000000000006,0)" xlink:href="#Y"/><use transform="matrix(0.05,0,0,0.05,53.900000000000006,0)" xlink:href="#T"/><use transform="matrix(0.05,0,0,0.05,59.85,0)" xlink:href="#Z"/><use transform="matrix(0.05,0,0,0.05,71.85000000000001,0)" xlink:href="#aa"/><use transform="matrix(0.05,0,0,0.05,81.85000000000001,0)" xlink:href="#P"/><use transform="matrix(0.05,0,0,0.05,91.85000000000001,0)" xlink:href="#U"/><use transform="matrix(0.05,0,0,0.05,100.85000000000001,0)" xlink:href="#R"/><use transform="matrix(0.05,0,0,0.05,110.85000000000001,0)" xlink:href="#L"/><use transform="matrix(0.05,0,0,0.05,115.85000000000001,0)" xlink:href="#M"/></g><g id="i"><use transform="matrix(0.05,0,0,0.05,0,0)" xlink:href="#C"/><use transform="matrix(0.05,0,0,0.05,12,0)" xlink:href="#D"/><use transform="matrix(0.05,0,0,0.05,21,0)" xlink:href="#E"/><use transform="matrix(0.05,0,0,0.05,31,0)" xlink:href="#F"/><use transform="matrix(0.05,0,0,0.05,34.95,0)" xlink:href="#G"/><use transform="matrix(0.05,0,0,0.05,44.95,0)" xlink:href="#F"/><use transform="matrix(0.05,0,0,0.05,48.900000000000006,0)" xlink:href="#H"/><use transform="matrix(0.05,0,0,0.05,53.900000000000006,0)" xlink:href="#Z"/><use transform="matrix(0.05,0,0,0.05,65.9,0)" xlink:href="#aa"/><use transform="matrix(0.05,0,0,0.05,75.9,0)" xlink:href="#P"/><use transform="matrix(0.05,0,0,0.05,85.9,0)" xlink:href="#U"/><use transform="matrix(0.05,0,0,0.05,94.9,0)" xlink:href="#R"/><use transform="matrix(0.05,0,0,0.05,104.9,0)" xlink:href="#L"/><use transform="matrix(0.05,0,0,0.05,109.9,0)" xlink:href="#M"/></g><g id="j"><use transform="matrix(0.05,0,0,0.05,0,0)" xlink:href="#W"/><use transform="matrix(0.05,0,0,0.05,12.950000000000001,0)" xlink:href="#X"/><use transform="matrix(0.05,0,0,0.05,22.950000000000003,0)" xlink:href="#T"/><use transform="matrix(0.05,0,0,0.05,28.900000000000002,0)" xlink:href="#P"/><use transform="matrix(0.05,0,0,0.05,38.900000000000006,0)" xlink:href="#H"/><use transform="matrix(0.05,0,0,0.05,43.900000000000006,0)" xlink:href="#Y"/><use transform="matrix(0.05,0,0,0.05,53.900000000000006,0)" xlink:href="#T"/><use transform="matrix(0.05,0,0,0.05,59.85,0)" xlink:href="#Z"/><use transform="matrix(0.05,0,0,0.05,71.85000000000001,0)" xlink:href="#aa"/><use transform="matrix(0.05,0,0,0.05,81.85000000000001,0)" xlink:href="#P"/><use transform="matrix(0.05,0,0,0.05,91.85000000000001,0)" xlink:href="#U"/><use transform="matrix(0.05,0,0,0.05,100.85000000000001,0)" xlink:href="#R"/><use transform="matrix(0.05,0,0,0.05,110.85000000000001,0)" xlink:href="#I"/></g><path d="M24 0v-261h32V0H24" id="ab"/><path d="M179-190L93 31C79 59 56 82 12 73V49c39 6 53-20 64-50L1-190h34L92-34l54-156h33" id="ac"/><g id="k"><use transform="matrix(0.05,0,0,0.05,0,0)" xlink:href="#C"/><use transform="matrix(0.05,0,0,0.05,12,0)" xlink:href="#Q"/><use transform="matrix(0.05,0,0,0.05,26.950000000000003,0)" xlink:href="#aa"/><use transform="matrix(0.05,0,0,0.05,36.95,0)" xlink:href="#ab"/><use transform="matrix(0.05,0,0,0.05,40.900000000000006,0)" xlink:href="#Y"/><use transform="matrix(0.05,0,0,0.05,50.900000000000006,0)" xlink:href="#ac"/><use transform="matrix(0.05,0,0,0.05,59.900000000000006,0)" xlink:href="#R"/><use transform="matrix(0.05,0,0,0.05,69.9,0)" xlink:href="#R"/><use transform="matrix(0.05,0,0,0.05,79.9,0)" xlink:href="#I"/></g><g id="l"><use transform="matrix(0.05,0,0,0.05,0,0)" xlink:href="#C"/><use transform="matrix(0.05,0,0,0.05,12,0)" xlink:href="#Q"/><use transform="matrix(0.05,0,0,0.05,26.950000000000003,0)" xlink:href="#aa"/><use transform="matrix(0.05,0,0,0.05,36.95,0)" xlink:href="#ab"/><use transform="matrix(0.05,0,0,0.05,40.900000000000006,0)" xlink:href="#Y"/><use transform="matrix(0.05,0,0,0.05,50.900000000000006,0)" xlink:href="#ac"/><use transform="matrix(0.05,0,0,0.05,59.900000000000006,0)" xlink:href="#R"/><use transform="matrix(0.05,0,0,0.05,69.9,0)" xlink:href="#R"/><use transform="matrix(0.05,0,0,0.05,79.9,0)" xlink:href="#L"/><use transform="matrix(0.05,0,0,0.05,84.9,0)" xlink:href="#M"/></g><g id="m"><use transform="matrix(0.05,0,0,0.05,0,0)" xlink:href="#V"/><use transform="matrix(0.05,0,0,0.05,10.950000000000001,0)" xlink:href="#F"/><use transform="matrix(0.05,0,0,0.05,14.9,0)" xlink:href="#T"/><use transform="matrix(0.05,0,0,0.05,20.85,0)" xlink:href="#I"/><use transform="matrix(0.05,0,0,0.05,29.85,0)" xlink:href="#H"/><use transform="matrix(0.05,0,0,0.05,34.85,0)" xlink:href="#O"/><use transform="matrix(0.05,0,0,0.05,47.800000000000004,0)" xlink:href="#P"/><use transform="matrix(0.05,0,0,0.05,57.800000000000004,0)" xlink:href="#Q"/><use transform="matrix(0.05,0,0,0.05,72.75,0)" xlink:href="#R"/></g><path d="M30 0v-248h33v221h125V0H30" id="ad"/><g id="n"><use transform="matrix(0.05,0,0,0.05,0,0)" xlink:href="#ad"/><use transform="matrix(0.05,0,0,0.05,10,0)" xlink:href="#P"/><use transform="matrix(0.05,0,0,0.05,20,0)" xlink:href="#I"/><use transform="matrix(0.05,0,0,0.05,29,0)" xlink:href="#H"/><use transform="matrix(0.05,0,0,0.05,34,0)" xlink:href="#O"/><use transform="matrix(0.05,0,0,0.05,46.95,0)" xlink:href="#P"/><use transform="matrix(0.05,0,0,0.05,56.95,0)" xlink:href="#Q"/><use transform="matrix(0.05,0,0,0.05,71.9,0)" xlink:href="#R"/></g><path d="M232-93c-1 65-40 97-104 97C67 4 28-28 28-90v-158h33c8 89-33 224 67 224 102 0 64-133 71-224h33v155" id="ae"/><g id="o"><use transform="matrix(0.05,0,0,0.05,0,0)" xlink:href="#L"/><use transform="matrix(0.05,0,0,0.05,5,0)" xlink:href="#M"/><use transform="matrix(0.05,0,0,0.05,15,0)" xlink:href="#R"/><use transform="matrix(0.05,0,0,0.05,25,0)" xlink:href="#N"/><use transform="matrix(0.05,0,0,0.05,35,0)" xlink:href="#H"/><use transform="matrix(0.05,0,0,0.05,40,0)" xlink:href="#F"/><use transform="matrix(0.05,0,0,0.05,43.95,0)" xlink:href="#H"/><use transform="matrix(0.05,0,0,0.05,48.95,0)" xlink:href="#ac"/><use transform="matrix(0.05,0,0,0.05,57.95,0)" xlink:href="#ae"/><use transform="matrix(0.05,0,0,0.05,70.9,0)" xlink:href="#I"/><use transform="matrix(0.05,0,0,0.05,79.9,0)" xlink:href="#R"/><use transform="matrix(0.05,0,0,0.05,89.9,0)" xlink:href="#T"/></g><path fill="#333" d="M30 0v-248h187v28H63v79h144v27H63v87h162V0H30" id="af"/><path fill="#333" d="M141 0L90-78 38 0H4l68-98-65-92h35l48 74 47-74h35l-64 92 68 98h-35" id="ag"/><path fill="#333" d="M106-169C34-169 62-67 57 0H25v-261h32l-1 103c12-21 28-36 61-36 89 0 53 116 60 194h-32v-121c2-32-8-49-39-48" id="ah"/><path fill="#333" d="M24-231v-30h32v30H24zM24 0v-190h32V0H24" id="ai"/><path fill="#333" d="M115-194c53 0 69 39 70 98 0 66-23 100-70 100C84 3 66-7 56-30L54 0H23l1-261h32v101c10-23 28-34 59-34zm-8 174c40 0 45-34 45-75 0-40-5-75-45-74-42 0-51 32-51 76 0 43 10 73 51 73" id="aj"/><path fill="#333" d="M59-47c-2 24 18 29 38 22v24C64 9 27 4 27-40v-127H5v-23h24l9-43h21v43h35v23H59v120" id="ak"/><path fill="#333" d="M185-189c-5-48-123-54-124 2 14 75 158 14 163 119 3 78-121 87-175 55-17-10-28-26-33-46l33-7c5 56 141 63 141-1 0-78-155-14-162-118-5-82 145-84 179-34 5 7 8 16 11 25" id="al"/><path fill="#333" d="M115-194c55 1 70 41 70 98S169 2 115 4C84 4 66-9 55-30l1 105H24l-1-265h31l2 30c10-21 28-34 59-34zm-8 174c40 0 45-34 45-75s-6-73-45-74c-42 0-51 32-51 76 0 43 10 73 51 73" id="am"/><path fill="#333" d="M141-36C126-15 110 5 73 4 37 3 15-17 15-53c-1-64 63-63 125-63 3-35-9-54-41-54-24 1-41 7-42 31l-33-3c5-37 33-52 76-52 45 0 72 20 72 64v82c-1 20 7 32 28 27v20c-31 9-61-2-59-35zM48-53c0 20 12 33 32 33 41-3 63-29 60-74-43 2-92-5-92 41" id="an"/><path fill="#333" d="M96-169c-40 0-48 33-48 73s9 75 48 75c24 0 41-14 43-38l32 2c-6 37-31 61-74 61-59 0-76-41-82-99-10-93 101-131 147-64 4 7 5 14 7 22l-32 3c-4-21-16-35-41-35" id="ao"/><path fill="#333" d="M100-194c63 0 86 42 84 106H49c0 40 14 67 53 68 26 1 43-12 49-29l28 8c-11 28-37 45-77 45C44 4 14-33 15-96c1-61 26-98 85-98zm52 81c6-60-76-77-97-28-3 7-6 17-6 28h103" id="ap"/><g id="p"><use transform="matrix(0.05,0,0,0.05,0,0)" xlink:href="#af"/><use transform="matrix(0.05,0,0,0.05,12,0)" xlink:href="#ag"/><use transform="matrix(0.05,0,0,0.05,21,0)" xlink:href="#ah"/><use transform="matrix(0.05,0,0,0.05,31,0)" xlink:href="#ai"/><use transform="matrix(0.05,0,0,0.05,34.95,0)" xlink:href="#aj"/><use transform="matrix(0.05,0,0,0.05,44.95,0)" xlink:href="#ai"/><use transform="matrix(0.05,0,0,0.05,48.900000000000006,0)" xlink:href="#ak"/><use transform="matrix(0.05,0,0,0.05,53.900000000000006,0)" xlink:href="#al"/><use transform="matrix(0.05,0,0,0.05,65.9,0)" xlink:href="#am"/><use transform="matrix(0.05,0,0,0.05,75.9,0)" xlink:href="#an"/><use transform="matrix(0.05,0,0,0.05,85.9,0)" xlink:href="#ao"/><use transform="matrix(0.05,0,0,0.05,94.9,0)" xlink:href="#ap"/></g><path fill="#333" d="M30-248c87 1 191-15 191 75 0 78-77 80-158 76V0H30v-248zm33 125c57 0 124 11 124-50 0-59-68-47-124-48v98" id="aq"/><path fill="#333" d="M194 0L95-120 63-95V0H30v-248h33v124l119-124h40L117-140 236 0h-42" id="ar"/><g id="q"><use transform="matrix(0.05,0,0,0.05,0,0)" xlink:href="#aq"/><use transform="matrix(0.05,0,0,0.05,12,0)" xlink:href="#ar"/></g><path fill="#333" d="M33 0v-248h34V0H33" id="as"/><path fill="#333" d="M85-194c31 0 48 13 60 33l-1-100h32l1 261h-30c-2-10 0-23-3-31C134-8 116 4 85 4 32 4 16-35 15-94c0-66 23-100 70-100zm9 24c-40 0-46 34-46 75 0 40 6 74 45 74 42 0 51-32 51-76 0-42-9-74-50-73" id="at"/><g id="r"><use transform="matrix(0.05,0,0,0.05,0,0)" xlink:href="#af"/><use transform="matrix(0.05,0,0,0.05,12,0)" xlink:href="#ag"/><use transform="matrix(0.05,0,0,0.05,21,0)" xlink:href="#ah"/><use transform="matrix(0.05,0,0,0.05,31,0)" xlink:href="#ai"/><use transform="matrix(0.05,0,0,0.05,34.95,0)" xlink:href="#aj"/><use transform="matrix(0.05,0,0,0.05,44.95,0)" xlink:href="#ai"/><use transform="matrix(0.05,0,0,0.05,48.900000000000006,0)" xlink:href="#ak"/><use transform="matrix(0.05,0,0,0.05,53.900000000000006,0)" xlink:href="#al"/><use transform="matrix(0.05,0,0,0.05,65.9,0)" xlink:href="#am"/><use transform="matrix(0.05,0,0,0.05,75.9,0)" xlink:href="#an"/><use transform="matrix(0.05,0,0,0.05,85.9,0)" xlink:href="#ao"/><use transform="matrix(0.05,0,0,0.05,94.9,0)" xlink:href="#ap"/><use transform="matrix(0.05,0,0,0.05,104.9,0)" xlink:href="#as"/><use transform="matrix(0.05,0,0,0.05,109.9,0)" xlink:href="#at"/></g><path fill="#333" d="M117-194c89-4 53 116 60 194h-32v-121c0-31-8-49-39-48C34-167 62-67 57 0H25l-1-190h30c1 10-1 24 2 32 11-22 29-35 61-36" id="au"/><g id="s"><use transform="matrix(0.05,0,0,0.05,0,0)" xlink:href="#ai"/><use transform="matrix(0.05,0,0,0.05,3.95,0)" xlink:href="#au"/><use transform="matrix(0.05,0,0,0.05,13.949999999999998,0)" xlink:href="#ak"/></g><path fill="#333" d="M190 0L58-211 59 0H30v-248h39L202-35l-2-213h31V0h-41" id="av"/><path fill="#333" d="M210-169c-67 3-38 105-44 169h-31v-121c0-29-5-50-35-48C34-165 62-65 56 0H25l-1-190h30c1 10-1 24 2 32 10-44 99-50 107 0 11-21 27-35 58-36 85-2 47 119 55 194h-31v-121c0-29-5-49-35-48" id="aw"/><g id="t"><use transform="matrix(0.05,0,0,0.05,0,0)" xlink:href="#af"/><use transform="matrix(0.05,0,0,0.05,12,0)" xlink:href="#ag"/><use transform="matrix(0.05,0,0,0.05,21,0)" xlink:href="#ah"/><use transform="matrix(0.05,0,0,0.05,31,0)" xlink:href="#ai"/><use transform="matrix(0.05,0,0,0.05,34.95,0)" xlink:href="#aj"/><use transform="matrix(0.05,0,0,0.05,44.95,0)" xlink:href="#ai"/><use transform="matrix(0.05,0,0,0.05,48.900000000000006,0)" xlink:href="#ak"/><use transform="matrix(0.05,0,0,0.05,53.900000000000006,0)" xlink:href="#al"/><use transform="matrix(0.05,0,0,0.05,65.9,0)" xlink:href="#am"/><use transform="matrix(0.05,0,0,0.05,75.9,0)" xlink:href="#an"/><use transform="matrix(0.05,0,0,0.05,85.9,0)" xlink:href="#ao"/><use transform="matrix(0.05,0,0,0.05,94.9,0)" xlink:href="#ap"/><use transform="matrix(0.05,0,0,0.05,104.9,0)" xlink:href="#av"/><use transform="matrix(0.05,0,0,0.05,117.85000000000001,0)" xlink:href="#an"/><use transform="matrix(0.05,0,0,0.05,127.85000000000001,0)" xlink:href="#aw"/><use transform="matrix(0.05,0,0,0.05,142.8,0)" xlink:href="#ap"/></g><path fill="#333" d="M135-143c-3-34-86-38-87 0 15 53 115 12 119 90S17 21 10-45l28-5c4 36 97 45 98 0-10-56-113-15-118-90-4-57 82-63 122-42 12 7 21 19 24 35" id="ax"/><path fill="#333" d="M114-163C36-179 61-72 57 0H25l-1-190h30c1 12-1 29 2 39 6-27 23-49 58-41v29" id="ay"/><path fill="#333" d="M177-190C167-65 218 103 67 71c-23-6-38-20-44-43l32-5c15 47 100 32 89-28v-30C133-14 115 1 83 1 29 1 15-40 15-95c0-56 16-97 71-98 29-1 48 16 59 35 1-10 0-23 2-32h30zM94-22c36 0 50-32 50-73 0-42-14-75-50-75-39 0-46 34-46 75s6 73 46 73" id="az"/><g id="u"><use transform="matrix(0.05,0,0,0.05,0,0)" xlink:href="#ax"/><use transform="matrix(0.05,0,0,0.05,9,0)" xlink:href="#ak"/><use transform="matrix(0.05,0,0,0.05,14,0)" xlink:href="#ay"/><use transform="matrix(0.05,0,0,0.05,19.95,0)" xlink:href="#ai"/><use transform="matrix(0.05,0,0,0.05,23.9,0)" xlink:href="#au"/><use transform="matrix(0.05,0,0,0.05,33.9,0)" xlink:href="#az"/></g><path fill="#333" d="M63-220v92h138v28H63V0H30v-248h175v28H63" id="aA"/><g id="v"><use transform="matrix(0.05,0,0,0.05,0,0)" xlink:href="#aA"/><use transform="matrix(0.05,0,0,0.05,10.950000000000001,0)" xlink:href="#ar"/></g><path fill="#333" d="M212-179c-10-28-35-45-73-45-59 0-87 40-87 99 0 60 29 101 89 101 43 0 62-24 78-52l27 14C228-24 195 4 139 4 59 4 22-46 18-125c-6-104 99-153 187-111 19 9 31 26 39 46" id="aB"/><path fill="#333" d="M84 4C-5 8 30-112 23-190h32v120c0 31 7 50 39 49 72-2 45-101 50-169h31l1 190h-30c-1-10 1-25-2-33-11 22-28 36-60 37" id="aC"/><path fill="#333" d="M100-194c62-1 85 37 85 99 1 63-27 99-86 99S16-35 15-95c0-66 28-99 85-99zM99-20c44 1 53-31 53-75 0-43-8-75-51-75s-53 32-53 75 10 74 51 75" id="aD"/><g id="w"><use transform="matrix(0.05,0,0,0.05,0,0)" xlink:href="#aB"/><use transform="matrix(0.05,0,0,0.05,12.950000000000001,0)" xlink:href="#aC"/><use transform="matrix(0.05,0,0,0.05,22.950000000000003,0)" xlink:href="#ay"/><use transform="matrix(0.05,0,0,0.05,28.900000000000002,0)" xlink:href="#an"/><use transform="matrix(0.05,0,0,0.05,38.900000000000006,0)" xlink:href="#ak"/><use transform="matrix(0.05,0,0,0.05,43.900000000000006,0)" xlink:href="#aD"/><use transform="matrix(0.05,0,0,0.05,53.900000000000006,0)" xlink:href="#ay"/><use transform="matrix(0.05,0,0,0.05,59.85,0)" xlink:href="#al"/><use transform="matrix(0.05,0,0,0.05,71.85000000000001,0)" xlink:href="#am"/><use transform="matrix(0.05,0,0,0.05,81.85000000000001,0)" xlink:href="#an"/><use transform="matrix(0.05,0,0,0.05,91.85000000000001,0)" xlink:href="#ao"/><use transform="matrix(0.05,0,0,0.05,100.85000000000001,0)" xlink:href="#ap"/><use transform="matrix(0.05,0,0,0.05,110.85000000000001,0)" xlink:href="#as"/><use transform="matrix(0.05,0,0,0.05,115.85000000000001,0)" xlink:href="#at"/></g><path d="M233-177c-1 41-23 64-60 70L243 0h-38l-65-103H63V0H30v-248c88 3 205-21 203 71zM63-129c60-2 137 13 137-47 0-61-80-42-137-45v92" id="aE"/><g id="x"><use transform="matrix(0.05,0,0,0.05,0,0)" xlink:href="#W"/><use transform="matrix(0.05,0,0,0.05,12.950000000000001,0)" xlink:href="#X"/><use transform="matrix(0.05,0,0,0.05,22.950000000000003,0)" xlink:href="#T"/><use transform="matrix(0.05,0,0,0.05,28.900000000000002,0)" xlink:href="#P"/><use transform="matrix(0.05,0,0,0.05,38.900000000000006,0)" xlink:href="#H"/><use transform="matrix(0.05,0,0,0.05,43.900000000000006,0)" xlink:href="#Y"/><use transform="matrix(0.05,0,0,0.05,53.900000000000006,0)" xlink:href="#T"/><use transform="matrix(0.05,0,0,0.05,59.85,0)" xlink:href="#aE"/><use transform="matrix(0.05,0,0,0.05,72.80000000000001,0)" xlink:href="#Y"/><use transform="matrix(0.05,0,0,0.05,82.80000000000001,0)" xlink:href="#ab"/><use transform="matrix(0.05,0,0,0.05,86.75000000000001,0)" xlink:href="#R"/><use transform="matrix(0.05,0,0,0.05,96.75000000000001,0)" xlink:href="#I"/></g><g id="y"><use transform="matrix(0.05,0,0,0.05,0,0)" xlink:href="#W"/><use transform="matrix(0.05,0,0,0.05,12.950000000000001,0)" xlink:href="#X"/><use transform="matrix(0.05,0,0,0.05,22.950000000000003,0)" xlink:href="#T"/><use transform="matrix(0.05,0,0,0.05,28.900000000000002,0)" xlink:href="#P"/><use transform="matrix(0.05,0,0,0.05,38.900000000000006,0)" xlink:href="#H"/><use transform="matrix(0.05,0,0,0.05,43.900000000000006,0)" xlink:href="#Y"/><use transform="matrix(0.05,0,0,0.05,53.900000000000006,0)" xlink:href="#T"/><use transform="matrix(0.05,0,0,0.05,59.85,0)" xlink:href="#aE"/><use transform="matrix(0.05,0,0,0.05,72.80000000000001,0)" xlink:href="#Y"/><use transform="matrix(0.05,0,0,0.05,82.80000000000001,0)" xlink:href="#ab"/><use transform="matrix(0.05,0,0,0.05,86.75000000000001,0)" xlink:href="#R"/><use transform="matrix(0.05,0,0,0.05,96.75000000000001,0)" xlink:href="#L"/><use transform="matrix(0.05,0,0,0.05,101.75000000000001,0)" xlink:href="#M"/></g><path d="M140-251c81 0 123 46 123 126C263-46 219 4 140 4 59 4 17-45 17-125s42-126 123-126zm0 227c63 0 89-41 89-101s-29-99-89-99c-61 0-89 39-89 99S79-25 140-24" id="aF"/><path d="M101-234c-31-9-42 10-38 44h38v23H63V0H32v-167H5v-23h27c-7-52 17-82 69-68v24" id="aG"/><g id="z"><use transform="matrix(0.05,0,0,0.05,0,0)" xlink:href="#O"/><use transform="matrix(0.05,0,0,0.05,12.950000000000001,0)" xlink:href="#P"/><use transform="matrix(0.05,0,0,0.05,22.950000000000003,0)" xlink:href="#Q"/><use transform="matrix(0.05,0,0,0.05,37.900000000000006,0)" xlink:href="#R"/><use transform="matrix(0.05,0,0,0.05,47.900000000000006,0)" xlink:href="#aF"/><use transform="matrix(0.05,0,0,0.05,61.900000000000006,0)" xlink:href="#aG"/><use transform="matrix(0.05,0,0,0.05,66.9,0)" xlink:href="#aE"/><use transform="matrix(0.05,0,0,0.05,79.85000000000001,0)" xlink:href="#Y"/><use transform="matrix(0.05,0,0,0.05,89.85000000000001,0)" xlink:href="#ab"/><use transform="matrix(0.05,0,0,0.05,93.80000000000001,0)" xlink:href="#R"/></g><g id="A"><use transform="matrix(0.05,0,0,0.05,0,0)" xlink:href="#C"/><use transform="matrix(0.05,0,0,0.05,12,0)" xlink:href="#Q"/><use transform="matrix(0.05,0,0,0.05,26.950000000000003,0)" xlink:href="#aa"/><use transform="matrix(0.05,0,0,0.05,36.95,0)" xlink:href="#ab"/><use transform="matrix(0.05,0,0,0.05,40.900000000000006,0)" xlink:href="#Y"/><use transform="matrix(0.05,0,0,0.05,50.900000000000006,0)" xlink:href="#ac"/><use transform="matrix(0.05,0,0,0.05,59.900000000000006,0)" xlink:href="#R"/><use transform="matrix(0.05,0,0,0.05,69.9,0)" xlink:href="#R"/><use transform="matrix(0.05,0,0,0.05,79.9,0)" xlink:href="#aE"/><use transform="matrix(0.05,0,0,0.05,92.85000000000001,0)" xlink:href="#Y"/><use transform="matrix(0.05,0,0,0.05,102.85000000000001,0)" xlink:href="#ab"/><use transform="matrix(0.05,0,0,0.05,106.80000000000001,0)" xlink:href="#R"/><use transform="matrix(0.05,0,0,0.05,116.80000000000001,0)" xlink:href="#I"/></g><g id="B"><use transform="matrix(0.05,0,0,0.05,0,0)" xlink:href="#C"/><use transform="matrix(0.05,0,0,0.05,12,0)" xlink:href="#Q"/><use transform="matrix(0.05,0,0,0.05,26.950000000000003,0)" xlink:href="#aa"/><use transform="matrix(0.05,0,0,0.05,36.95,0)" xlink:href="#ab"/><use transform="matrix(0.05,0,0,0.05,40.900000000000006,0)" xlink:href="#Y"/><use transform="matrix(0.05,0,0,0.05,50.900000000000006,0)" xlink:href="#ac"/><use transform="matrix(0.05,0,0,0.05,59.900000000000006,0)" xlink:href="#R"/><use transform="matrix(0.05,0,0,0.05,69.9,0)" xlink:href="#R"/><use transform="matrix(0.05,0,0,0.05,79.9,0)" xlink:href="#aE"/><use transform="matrix(0.05,0,0,0.05,92.85000000000001,0)" xlink:href="#Y"/><use transform="matrix(0.05,0,0,0.05,102.85000000000001,0)" xlink:href="#ab"/><use transform="matrix(0.05,0,0,0.05,106.80000000000001,0)" xlink:href="#R"/><use transform="matrix(0.05,0,0,0.05,116.80000000000001,0)" xlink:href="#L"/><use transform="matrix(0.05,0,0,0.05,121.80000000000001,0)" xlink:href="#M"/></g></defs></g></svg>