<svg xmlns="http://www.w3.org/2000/svg" xmlns:xlink="http://www.w3.org/1999/xlink" xmlns:lucid="lucid" width="1591.45" height="496"><g transform="translate(-120 -460)" lucid:page-tab-id="oxnyWyomFD0D"><path d="M0 0h1760v1360H0z" fill="#fff"/><path d="M140 604a8 8 0 0 1 8-8h233.75a8 8 0 0 1 8 8v152a8 8 0 0 1-8 8H148a8 8 0 0 1-8-8z" fill="#f9d2de"/><path d="M140 604a8 8 0 0 1 8-8h233.75a8 8 0 0 1 8 8v152a8 8 0 0 1-8 8H148a8 8 0 0 1-8-8zM140 636h249.75M184 636v128M299.85 636v128" stroke="#333" fill="none"/><use xlink:href="#a" transform="matrix(1,0,0,1,150,595.9999999999997) translate(70.55 23.6)"/><use xlink:href="#b" transform="matrix(1,0,0,1,145,638.4999999999997) translate(5 17.1)"/><use xlink:href="#c" transform="matrix(1,0,0,1,189,638.4999999999997) translate(0 17.1)"/><use xlink:href="#d" transform="matrix(1,0,0,1,304.85,638.4999999999997) translate(0 17.1)"/><use xlink:href="#e" transform="matrix(1,0,0,1,189,670.4999999999997) translate(0 17.1)"/><use xlink:href="#f" transform="matrix(1,0,0,1,304.85,670.4999999999997) translate(0 17.1)"/><use xlink:href="#g" transform="matrix(1,0,0,1,189,702.4999999999997) translate(0 17.1)"/><use xlink:href="#f" transform="matrix(1,0,0,1,304.85,702.4999999999997) translate(0 17.1)"/><use xlink:href="#h" transform="matrix(1,0,0,1,189,734.4999999999997) translate(0 17.1)"/><use xlink:href="#f" transform="matrix(1,0,0,1,304.85,734.4999999999997) translate(0 17.1)"/><path d="M1300 648a8 8 0 0 1 8-8h375.45a8 8 0 0 1 8 8v280a8 8 0 0 1-8 8H1308a8 8 0 0 1-8-8z" fill="#f9d2de"/><path d="M1300 648a8 8 0 0 1 8-8h375.45a8 8 0 0 1 8 8v280a8 8 0 0 1-8 8H1308a8 8 0 0 1-8-8zM1300 680h391.45M1344 680v256M1592.55 680v256" stroke="#333" fill="none"/><use xlink:href="#i" transform="matrix(1,0,0,1,1310,640) translate(164.025 23.6)"/><use xlink:href="#b" transform="matrix(1,0,0,1,1305,682.5) translate(5 17.1)"/><use xlink:href="#j" transform="matrix(1,0,0,1,1349,682.5) translate(0 17.1)"/><use xlink:href="#d" transform="matrix(1,0,0,1,1597.55,682.5) translate(0 17.1)"/><use xlink:href="#k" transform="matrix(1,0,0,1,1349,714.5) translate(0 17.1)"/><use xlink:href="#f" transform="matrix(1,0,0,1,1597.55,714.5) translate(0 17.1)"/><use xlink:href="#l" transform="matrix(1,0,0,1,1349,746.5) translate(0 17.1)"/><use xlink:href="#d" transform="matrix(1,0,0,1,1597.55,746.5) translate(0 17.1)"/><use xlink:href="#m" transform="matrix(1,0,0,1,1349,778.5) translate(0 17.1)"/><use xlink:href="#d" transform="matrix(1,0,0,1,1597.55,778.5) translate(0 17.1)"/><use xlink:href="#n" transform="matrix(1,0,0,1,1349,810.5) translate(0 17.1)"/><use xlink:href="#d" transform="matrix(1,0,0,1,1597.55,810.5) translate(0 17.1)"/><use xlink:href="#o" transform="matrix(1,0,0,1,1349,842.5) translate(0 17.1)"/><use xlink:href="#p" transform="matrix(1,0,0,1,1597.55,842.5) translate(0 17.1)"/><use xlink:href="#q" transform="matrix(1,0,0,1,1349,874.5) translate(0 17.1)"/><use xlink:href="#p" transform="matrix(1,0,0,1,1597.55,874.5) translate(0 17.1)"/><use xlink:href="#r" transform="matrix(1,0,0,1,1349,906.5) translate(0 17.1)"/><use xlink:href="#p" transform="matrix(1,0,0,1,1597.55,906.5) translate(0 17.1)"/><path d="M900 712a8 8 0 0 1 8-8h213.8a8 8 0 0 1 8 8v216a8 8 0 0 1-8 8H908a8 8 0 0 1-8-8z" fill="#f9d2de"/><path d="M900 712a8 8 0 0 1 8-8h213.8a8 8 0 0 1 8 8v216a8 8 0 0 1-8 8H908a8 8 0 0 1-8-8zM900 744h229.8M942.95 744v192M1090.85 744v192" stroke="#333" fill="none"/><use xlink:href="#s" transform="matrix(1,0,0,1,910,704) translate(44.05 23.6)"/><use xlink:href="#b" transform="matrix(1,0,0,1,905,746.5) translate(4.5 17.1)"/><use xlink:href="#t" transform="matrix(1,0,0,1,947.95,746.5) translate(0 17.1)"/><use xlink:href="#d" transform="matrix(1,0,0,1,1095.85,746.5) translate(0 17.1)"/><use xlink:href="#u" transform="matrix(1,0,0,1,947.95,778.5) translate(0 17.1)"/><use xlink:href="#d" transform="matrix(1,0,0,1,1095.85,778.5) translate(0 17.1)"/><use xlink:href="#v" transform="matrix(1,0,0,1,905,810.5) translate(5.024999999999999 17.1)"/><use xlink:href="#j" transform="matrix(1,0,0,1,947.95,810.5) translate(0 17.1)"/><use xlink:href="#d" transform="matrix(1,0,0,1,1095.85,810.5) translate(0 17.1)"/><use xlink:href="#v" transform="matrix(1,0,0,1,905,842.5) translate(5.024999999999999 17.1)"/><use xlink:href="#w" transform="matrix(1,0,0,1,947.95,842.5) translate(0 17.1)"/><use xlink:href="#d" transform="matrix(1,0,0,1,1095.85,842.5) translate(0 17.1)"/><use xlink:href="#v" transform="matrix(1,0,0,1,905,874.5) translate(5.024999999999999 17.1)"/><use xlink:href="#x" transform="matrix(1,0,0,1,947.95,874.5) translate(0 17.1)"/><use xlink:href="#d" transform="matrix(1,0,0,1,1095.85,874.5) translate(0 17.1)"/><use xlink:href="#v" transform="matrix(1,0,0,1,905,906.5) translate(5.024999999999999 17.1)"/><use xlink:href="#y" transform="matrix(1,0,0,1,947.95,906.5) translate(0 17.1)"/><use xlink:href="#d" transform="matrix(1,0,0,1,1095.85,906.5) translate(0 17.1)"/><path d="M1279.5 695.76h-52.6a12 12 0 0 0-12 12v104.26a12 12 0 0 1-12 12h-53.2" stroke="#333" fill="none"/><path d="M1279.5 685.76v20M1299.5 695.76h-20" stroke="#333" fill="#fff"/><path d="M1130.52 814.02l20 10-20 10" stroke="#333" fill="#fff" fill-opacity="0"/><path d="M1130.52 824.02h20" stroke="#333" fill="#fff"/><path d="M540 488a8 8 0 0 1 8-8h244a8 8 0 0 1 8 8v120a8 8 0 0 1-8 8H548a8 8 0 0 1-8-8z" fill="#c1e4f7"/><path d="M540 488a8 8 0 0 1 8-8h244a8 8 0 0 1 8 8v120a8 8 0 0 1-8 8H548a8 8 0 0 1-8-8zM540 520h260M582.95 520v96M723.5 520v96" stroke="#333" fill="none"/><use xlink:href="#z" transform="matrix(1,0,0,1,550,480) translate(57.099999999999994 23.6)"/><use xlink:href="#b" transform="matrix(1,0,0,1,545,522.5) translate(4.5 17.1)"/><use xlink:href="#A" transform="matrix(1,0,0,1,587.95,522.5) translate(0 17.1)"/><use xlink:href="#d" transform="matrix(1,0,0,1,728.5030190849036,522.5) translate(0 17.1)"/><use xlink:href="#v" transform="matrix(1,0,0,1,545,554.5) translate(5.024999999999999 17.1)"/><use xlink:href="#c" transform="matrix(1,0,0,1,587.95,554.5) translate(0 17.1)"/><use xlink:href="#d" transform="matrix(1,0,0,1,728.5030190849036,554.5) translate(0 17.1)"/><use xlink:href="#v" transform="matrix(1,0,0,1,545,586.5) translate(5.024999999999999 17.1)"/><use xlink:href="#B" transform="matrix(1,0,0,1,587.95,586.5) translate(0 17.1)"/><use xlink:href="#d" transform="matrix(1,0,0,1,728.5030190849036,586.5) translate(0 17.1)"/><path d="M519.5 568.08h-42.63a12 12 0 0 0-12 12v59.8a12 12 0 0 1-12 12h-43.2" stroke="#333" fill="none"/><path d="M519.5 558.08v20M539.5 568.08h-20" stroke="#333" fill="#fff"/><path d="M390.47 641.9l20 10-20 10" stroke="#333" fill="#fff" fill-opacity="0"/><path d="M390.47 651.9h20" stroke="#333" fill="#fff"/><path d="M545 808a8 8 0 0 1 8-8h263.75a8 8 0 0 1 8 8v88a8 8 0 0 1-8 8H553a8 8 0 0 1-8-8z" fill="#f9d2de"/><path d="M545 808a8 8 0 0 1 8-8h263.75a8 8 0 0 1 8 8v88a8 8 0 0 1-8 8H553a8 8 0 0 1-8-8zM545 840h279.75M589 840v64M731.67 840v64" stroke="#333" fill="none"/><use xlink:href="#C" transform="matrix(1,0,0,1,555,800) translate(70.07499999999999 23.6)"/><use xlink:href="#b" transform="matrix(1,0,0,1,550,842.5) translate(5 17.1)"/><use xlink:href="#x" transform="matrix(1,0,0,1,594,842.5) translate(0 17.1)"/><use xlink:href="#d" transform="matrix(1,0,0,1,736.6666666666666,842.5) translate(0 17.1)"/><use xlink:href="#k" transform="matrix(1,0,0,1,594,874.5) translate(0 17.1)"/><use xlink:href="#f" transform="matrix(1,0,0,1,736.6666666666666,874.5) translate(0 17.1)"/><path d="M845.25 856h5.13a12 12 0 0 1 12 12v8.3a12 12 0 0 0 12 12h5.7" stroke="#333" fill="none"/><path d="M845.25 866v-20M825.25 856h20" stroke="#333" fill="#fff"/><path d="M899.28 898.3l-20-10 20-10" stroke="#333" fill="#fff" fill-opacity="0"/><path d="M899.28 888.3h-20" stroke="#333" fill="#fff"/><path d="M820.5 600.2h8a12 12 0 0 1 12 12V696a12 12 0 0 1-12 12h-312a12 12 0 0 0-12 12v156a12 12 0 0 0 12 12h8.6" stroke="#333" fill="none"/><path d="M820.5 610.2v-20M800.5 600.2h20" stroke="#333" fill="#fff"/><path d="M544.28 898l-20-10 20-10" stroke="#333" fill="#fff" fill-opacity="0"/><path d="M544.28 888h-20" stroke="#333" fill="#fff"/><defs><path d="M30 0v-248h187v28H63v79h144v27H63v87h162V0H30" id="D"/><path d="M210-169c-67 3-38 105-44 169h-31v-121c0-29-5-50-35-48C34-165 62-65 56 0H25l-1-190h30c1 10-1 24 2 32 10-44 99-50 107 0 11-21 27-35 58-36 85-2 47 119 55 194h-31v-121c0-29-5-49-35-48" id="E"/><path d="M115-194c55 1 70 41 70 98S169 2 115 4C84 4 66-9 55-30l1 105H24l-1-265h31l2 30c10-21 28-34 59-34zm-8 174c40 0 45-34 45-75s-6-73-45-74c-42 0-51 32-51 76 0 43 10 73 51 73" id="F"/><path d="M24 0v-261h32V0H24" id="G"/><path d="M100-194c62-1 85 37 85 99 1 63-27 99-86 99S16-35 15-95c0-66 28-99 85-99zM99-20c44 1 53-31 53-75 0-43-8-75-51-75s-53 32-53 75 10 74 51 75" id="H"/><path d="M179-190L93 31C79 59 56 82 12 73V49c39 6 53-20 64-50L1-190h34L92-34l54-156h33" id="I"/><path d="M100-194c63 0 86 42 84 106H49c0 40 14 67 53 68 26 1 43-12 49-29l28 8c-11 28-37 45-77 45C44 4 14-33 15-96c1-61 26-98 85-98zm52 81c6-60-76-77-97-28-3 7-6 17-6 28h103" id="J"/><path d="M135-143c-3-34-86-38-87 0 15 53 115 12 119 90S17 21 10-45l28-5c4 36 97 45 98 0-10-56-113-15-118-90-4-57 82-63 122-42 12 7 21 19 24 35" id="K"/><g id="a"><use transform="matrix(0.05,0,0,0.05,0,0)" xlink:href="#D"/><use transform="matrix(0.05,0,0,0.05,12,0)" xlink:href="#E"/><use transform="matrix(0.05,0,0,0.05,26.950000000000003,0)" xlink:href="#F"/><use transform="matrix(0.05,0,0,0.05,36.95,0)" xlink:href="#G"/><use transform="matrix(0.05,0,0,0.05,40.900000000000006,0)" xlink:href="#H"/><use transform="matrix(0.05,0,0,0.05,50.900000000000006,0)" xlink:href="#I"/><use transform="matrix(0.05,0,0,0.05,59.900000000000006,0)" xlink:href="#J"/><use transform="matrix(0.05,0,0,0.05,69.9,0)" xlink:href="#J"/><use transform="matrix(0.05,0,0,0.05,79.9,0)" xlink:href="#K"/></g><path d="M30-248c87 1 191-15 191 75 0 78-77 80-158 76V0H30v-248zm33 125c57 0 124 11 124-50 0-59-68-47-124-48v98" id="L"/><path d="M194 0L95-120 63-95V0H30v-248h33v124l119-124h40L117-140 236 0h-42" id="M"/><g id="b"><use transform="matrix(0.05,0,0,0.05,0,0)" xlink:href="#L"/><use transform="matrix(0.05,0,0,0.05,12,0)" xlink:href="#M"/></g><path d="M33 0v-248h34V0H33" id="N"/><path d="M85-194c31 0 48 13 60 33l-1-100h32l1 261h-30c-2-10 0-23-3-31C134-8 116 4 85 4 32 4 16-35 15-94c0-66 23-100 70-100zm9 24c-40 0-46 34-46 75 0 40 6 74 45 74 42 0 51-32 51-76 0-42-9-74-50-73" id="O"/><g id="c"><use transform="matrix(0.05,0,0,0.05,0,0)" xlink:href="#D"/><use transform="matrix(0.05,0,0,0.05,12,0)" xlink:href="#E"/><use transform="matrix(0.05,0,0,0.05,26.950000000000003,0)" xlink:href="#F"/><use transform="matrix(0.05,0,0,0.05,36.95,0)" xlink:href="#G"/><use transform="matrix(0.05,0,0,0.05,40.900000000000006,0)" xlink:href="#H"/><use transform="matrix(0.05,0,0,0.05,50.900000000000006,0)" xlink:href="#I"/><use transform="matrix(0.05,0,0,0.05,59.900000000000006,0)" xlink:href="#J"/><use transform="matrix(0.05,0,0,0.05,69.9,0)" xlink:href="#J"/><use transform="matrix(0.05,0,0,0.05,79.9,0)" xlink:href="#N"/><use transform="matrix(0.05,0,0,0.05,84.9,0)" xlink:href="#O"/></g><path d="M24-231v-30h32v30H24zM24 0v-190h32V0H24" id="P"/><path d="M117-194c89-4 53 116 60 194h-32v-121c0-31-8-49-39-48C34-167 62-67 57 0H25l-1-190h30c1 10-1 24 2 32 11-22 29-35 61-36" id="Q"/><path d="M59-47c-2 24 18 29 38 22v24C64 9 27 4 27-40v-127H5v-23h24l9-43h21v43h35v23H59v120" id="R"/><g id="d"><use transform="matrix(0.05,0,0,0.05,0,0)" xlink:href="#P"/><use transform="matrix(0.05,0,0,0.05,3.95,0)" xlink:href="#Q"/><use transform="matrix(0.05,0,0,0.05,13.949999999999998,0)" xlink:href="#R"/></g><path d="M63-220v92h138v28H63V0H30v-248h175v28H63" id="S"/><path d="M114-163C36-179 61-72 57 0H25l-1-190h30c1 12-1 29 2 39 6-27 23-49 58-41v29" id="T"/><path d="M190 0L58-211 59 0H30v-248h39L202-35l-2-213h31V0h-41" id="U"/><path d="M141-36C126-15 110 5 73 4 37 3 15-17 15-53c-1-64 63-63 125-63 3-35-9-54-41-54-24 1-41 7-42 31l-33-3c5-37 33-52 76-52 45 0 72 20 72 64v82c-1 20 7 32 28 27v20c-31 9-61-2-59-35zM48-53c0 20 12 33 32 33 41-3 63-29 60-74-43 2-92-5-92 41" id="V"/><g id="e"><use transform="matrix(0.05,0,0,0.05,0,0)" xlink:href="#S"/><use transform="matrix(0.05,0,0,0.05,10.950000000000001,0)" xlink:href="#P"/><use transform="matrix(0.05,0,0,0.05,14.9,0)" xlink:href="#T"/><use transform="matrix(0.05,0,0,0.05,20.85,0)" xlink:href="#K"/><use transform="matrix(0.05,0,0,0.05,29.85,0)" xlink:href="#R"/><use transform="matrix(0.05,0,0,0.05,34.85,0)" xlink:href="#U"/><use transform="matrix(0.05,0,0,0.05,47.800000000000004,0)" xlink:href="#V"/><use transform="matrix(0.05,0,0,0.05,57.800000000000004,0)" xlink:href="#E"/><use transform="matrix(0.05,0,0,0.05,72.75,0)" xlink:href="#J"/></g><path d="M108 0H70L1-190h34L89-25l56-165h34" id="W"/><path d="M96-169c-40 0-48 33-48 73s9 75 48 75c24 0 41-14 43-38l32 2c-6 37-31 61-74 61-59 0-76-41-82-99-10-93 101-131 147-64 4 7 5 14 7 22l-32 3c-4-21-16-35-41-35" id="X"/><path d="M106-169C34-169 62-67 57 0H25v-261h32l-1 103c12-21 28-36 61-36 89 0 53 116 60 194h-32v-121c2-32-8-49-39-48" id="Y"/><g id="f"><use transform="matrix(0.05,0,0,0.05,0,0)" xlink:href="#Q"/><use transform="matrix(0.05,0,0,0.05,10,0)" xlink:href="#W"/><use transform="matrix(0.05,0,0,0.05,19,0)" xlink:href="#V"/><use transform="matrix(0.05,0,0,0.05,29,0)" xlink:href="#T"/><use transform="matrix(0.05,0,0,0.05,34.95,0)" xlink:href="#X"/><use transform="matrix(0.05,0,0,0.05,43.95,0)" xlink:href="#Y"/><use transform="matrix(0.05,0,0,0.05,53.95,0)" xlink:href="#V"/><use transform="matrix(0.05,0,0,0.05,63.95,0)" xlink:href="#T"/></g><path d="M30 0v-248h33v221h125V0H30" id="Z"/><g id="g"><use transform="matrix(0.05,0,0,0.05,0,0)" xlink:href="#Z"/><use transform="matrix(0.05,0,0,0.05,10,0)" xlink:href="#V"/><use transform="matrix(0.05,0,0,0.05,20,0)" xlink:href="#K"/><use transform="matrix(0.05,0,0,0.05,29,0)" xlink:href="#R"/><use transform="matrix(0.05,0,0,0.05,34,0)" xlink:href="#U"/><use transform="matrix(0.05,0,0,0.05,46.95,0)" xlink:href="#V"/><use transform="matrix(0.05,0,0,0.05,56.95,0)" xlink:href="#E"/><use transform="matrix(0.05,0,0,0.05,71.9,0)" xlink:href="#J"/></g><path d="M232-93c-1 65-40 97-104 97C67 4 28-28 28-90v-158h33c8 89-33 224 67 224 102 0 64-133 71-224h33v155" id="aa"/><g id="h"><use transform="matrix(0.05,0,0,0.05,0,0)" xlink:href="#N"/><use transform="matrix(0.05,0,0,0.05,5,0)" xlink:href="#O"/><use transform="matrix(0.05,0,0,0.05,15,0)" xlink:href="#J"/><use transform="matrix(0.05,0,0,0.05,25,0)" xlink:href="#Q"/><use transform="matrix(0.05,0,0,0.05,35,0)" xlink:href="#R"/><use transform="matrix(0.05,0,0,0.05,40,0)" xlink:href="#P"/><use transform="matrix(0.05,0,0,0.05,43.95,0)" xlink:href="#R"/><use transform="matrix(0.05,0,0,0.05,48.95,0)" xlink:href="#I"/><use transform="matrix(0.05,0,0,0.05,57.95,0)" xlink:href="#aa"/><use transform="matrix(0.05,0,0,0.05,70.9,0)" xlink:href="#K"/><use transform="matrix(0.05,0,0,0.05,79.9,0)" xlink:href="#J"/><use transform="matrix(0.05,0,0,0.05,89.9,0)" xlink:href="#T"/></g><g id="i"><use transform="matrix(0.05,0,0,0.05,0,0)" xlink:href="#N"/><use transform="matrix(0.05,0,0,0.05,5,0)" xlink:href="#R"/><use transform="matrix(0.05,0,0,0.05,10,0)" xlink:href="#J"/><use transform="matrix(0.05,0,0,0.05,20,0)" xlink:href="#E"/><use transform="matrix(0.05,0,0,0.05,34.95,0)" xlink:href="#K"/></g><g id="j"><use transform="matrix(0.05,0,0,0.05,0,0)" xlink:href="#N"/><use transform="matrix(0.05,0,0,0.05,5,0)" xlink:href="#R"/><use transform="matrix(0.05,0,0,0.05,10,0)" xlink:href="#J"/><use transform="matrix(0.05,0,0,0.05,20,0)" xlink:href="#E"/><use transform="matrix(0.05,0,0,0.05,34.95,0)" xlink:href="#N"/><use transform="matrix(0.05,0,0,0.05,39.95,0)" xlink:href="#O"/></g><g id="k"><use transform="matrix(0.05,0,0,0.05,0,0)" xlink:href="#U"/><use transform="matrix(0.05,0,0,0.05,12.950000000000001,0)" xlink:href="#V"/><use transform="matrix(0.05,0,0,0.05,22.950000000000003,0)" xlink:href="#E"/><use transform="matrix(0.05,0,0,0.05,37.900000000000006,0)" xlink:href="#J"/></g><path d="M240 0l2-218c-23 76-54 145-80 218h-23L58-218 59 0H30v-248h44l77 211c21-75 51-140 76-211h43V0h-30" id="ab"/><path d="M212-179c-10-28-35-45-73-45-59 0-87 40-87 99 0 60 29 101 89 101 43 0 62-24 78-52l27 14C228-24 195 4 139 4 59 4 22-46 18-125c-6-104 99-153 187-111 19 9 31 26 39 46" id="ac"/><path d="M84 4C-5 8 30-112 23-190h32v120c0 31 7 50 39 49 72-2 45-101 50-169h31l1 190h-30c-1-10 1-25-2-33-11 22-28 36-60 37" id="ad"/><g id="l"><use transform="matrix(0.05,0,0,0.05,0,0)" xlink:href="#ab"/><use transform="matrix(0.05,0,0,0.05,14.950000000000001,0)" xlink:href="#P"/><use transform="matrix(0.05,0,0,0.05,18.900000000000002,0)" xlink:href="#Q"/><use transform="matrix(0.05,0,0,0.05,28.900000000000002,0)" xlink:href="#ac"/><use transform="matrix(0.05,0,0,0.05,41.85,0)" xlink:href="#H"/><use transform="matrix(0.05,0,0,0.05,51.85,0)" xlink:href="#ad"/><use transform="matrix(0.05,0,0,0.05,61.85,0)" xlink:href="#Q"/><use transform="matrix(0.05,0,0,0.05,71.85,0)" xlink:href="#R"/></g><path d="M30-248c118-7 216 8 213 122C240-48 200 0 122 0H30v-248zM63-27c89 8 146-16 146-99s-60-101-146-95v194" id="ae"/><path d="M160-131c35 5 61 23 61 61C221 17 115-2 30 0v-248c76 3 177-17 177 60 0 33-19 50-47 57zm-97-11c50-1 110 9 110-42 0-47-63-36-110-37v79zm0 115c55-2 124 14 124-45 0-56-70-42-124-44v89" id="af"/><path d="M206 0h-36l-40-164L89 0H53L-1-190h32L70-26l43-164h34l41 164 42-164h31" id="ag"/><g id="m"><use transform="matrix(0.05,0,0,0.05,0,0)" xlink:href="#ae"/><use transform="matrix(0.05,0,0,0.05,12.950000000000001,0)" xlink:href="#V"/><use transform="matrix(0.05,0,0,0.05,22.950000000000003,0)" xlink:href="#I"/><use transform="matrix(0.05,0,0,0.05,31.950000000000003,0)" xlink:href="#K"/><use transform="matrix(0.05,0,0,0.05,40.95,0)" xlink:href="#af"/><use transform="matrix(0.05,0,0,0.05,52.95,0)" xlink:href="#J"/><use transform="matrix(0.05,0,0,0.05,62.95,0)" xlink:href="#R"/><use transform="matrix(0.05,0,0,0.05,67.95,0)" xlink:href="#ag"/><use transform="matrix(0.05,0,0,0.05,80.9,0)" xlink:href="#J"/><use transform="matrix(0.05,0,0,0.05,90.9,0)" xlink:href="#J"/><use transform="matrix(0.05,0,0,0.05,100.9,0)" xlink:href="#Q"/><use transform="matrix(0.05,0,0,0.05,110.9,0)" xlink:href="#aa"/><use transform="matrix(0.05,0,0,0.05,123.85000000000001,0)" xlink:href="#F"/><use transform="matrix(0.05,0,0,0.05,133.85000000000002,0)" xlink:href="#O"/><use transform="matrix(0.05,0,0,0.05,143.85000000000002,0)" xlink:href="#V"/><use transform="matrix(0.05,0,0,0.05,153.85000000000002,0)" xlink:href="#R"/><use transform="matrix(0.05,0,0,0.05,158.85000000000002,0)" xlink:href="#J"/><use transform="matrix(0.05,0,0,0.05,168.85000000000002,0)" xlink:href="#K"/></g><path d="M101-234c-31-9-42 10-38 44h38v23H63V0H32v-167H5v-23h27c-7-52 17-82 69-68v24" id="ah"/><path d="M205 0l-28-72H64L36 0H1l101-248h38L239 0h-34zm-38-99l-47-123c-12 45-31 82-46 123h93" id="ai"/><g id="n"><use transform="matrix(0.05,0,0,0.05,0,0)" xlink:href="#ae"/><use transform="matrix(0.05,0,0,0.05,12.950000000000001,0)" xlink:href="#V"/><use transform="matrix(0.05,0,0,0.05,22.950000000000003,0)" xlink:href="#I"/><use transform="matrix(0.05,0,0,0.05,31.950000000000003,0)" xlink:href="#K"/><use transform="matrix(0.05,0,0,0.05,40.95,0)" xlink:href="#af"/><use transform="matrix(0.05,0,0,0.05,52.95,0)" xlink:href="#J"/><use transform="matrix(0.05,0,0,0.05,62.95,0)" xlink:href="#ah"/><use transform="matrix(0.05,0,0,0.05,67.95,0)" xlink:href="#H"/><use transform="matrix(0.05,0,0,0.05,77.95,0)" xlink:href="#T"/><use transform="matrix(0.05,0,0,0.05,83.9,0)" xlink:href="#J"/><use transform="matrix(0.05,0,0,0.05,93.9,0)" xlink:href="#U"/><use transform="matrix(0.05,0,0,0.05,106.85000000000001,0)" xlink:href="#H"/><use transform="matrix(0.05,0,0,0.05,116.85000000000001,0)" xlink:href="#R"/><use transform="matrix(0.05,0,0,0.05,121.85000000000001,0)" xlink:href="#P"/><use transform="matrix(0.05,0,0,0.05,125.80000000000001,0)" xlink:href="#ah"/><use transform="matrix(0.05,0,0,0.05,130.8,0)" xlink:href="#I"/><use transform="matrix(0.05,0,0,0.05,139.8,0)" xlink:href="#ai"/><use transform="matrix(0.05,0,0,0.05,151.8,0)" xlink:href="#G"/><use transform="matrix(0.05,0,0,0.05,155.75,0)" xlink:href="#G"/><use transform="matrix(0.05,0,0,0.05,159.7,0)" xlink:href="#ac"/><use transform="matrix(0.05,0,0,0.05,172.64999999999998,0)" xlink:href="#ad"/><use transform="matrix(0.05,0,0,0.05,182.64999999999998,0)" xlink:href="#T"/><use transform="matrix(0.05,0,0,0.05,188.59999999999997,0)" xlink:href="#V"/><use transform="matrix(0.05,0,0,0.05,198.59999999999997,0)" xlink:href="#R"/><use transform="matrix(0.05,0,0,0.05,203.59999999999997,0)" xlink:href="#H"/><use transform="matrix(0.05,0,0,0.05,213.59999999999997,0)" xlink:href="#T"/><use transform="matrix(0.05,0,0,0.05,219.54999999999995,0)" xlink:href="#K"/></g><path d="M140-251c81 0 123 46 123 126C263-46 219 4 140 4 59 4 17-45 17-125s42-126 123-126zm0 227c63 0 89-41 89-101s-29-99-89-99c-61 0-89 39-89 99S79-25 140-24" id="aj"/><g id="o"><use transform="matrix(0.05,0,0,0.05,0,0)" xlink:href="#ae"/><use transform="matrix(0.05,0,0,0.05,12.950000000000001,0)" xlink:href="#V"/><use transform="matrix(0.05,0,0,0.05,22.950000000000003,0)" xlink:href="#R"/><use transform="matrix(0.05,0,0,0.05,27.950000000000003,0)" xlink:href="#J"/><use transform="matrix(0.05,0,0,0.05,37.95,0)" xlink:href="#aj"/><use transform="matrix(0.05,0,0,0.05,51.95,0)" xlink:href="#ah"/><use transform="matrix(0.05,0,0,0.05,56.95,0)" xlink:href="#Z"/><use transform="matrix(0.05,0,0,0.05,66.95,0)" xlink:href="#V"/><use transform="matrix(0.05,0,0,0.05,76.95,0)" xlink:href="#K"/><use transform="matrix(0.05,0,0,0.05,85.95,0)" xlink:href="#R"/><use transform="matrix(0.05,0,0,0.05,90.95,0)" xlink:href="#aa"/><use transform="matrix(0.05,0,0,0.05,103.9,0)" xlink:href="#F"/><use transform="matrix(0.05,0,0,0.05,113.9,0)" xlink:href="#O"/><use transform="matrix(0.05,0,0,0.05,123.9,0)" xlink:href="#V"/><use transform="matrix(0.05,0,0,0.05,133.9,0)" xlink:href="#R"/><use transform="matrix(0.05,0,0,0.05,138.9,0)" xlink:href="#J"/></g><path d="M101-251c82-7 93 87 43 132L82-64C71-53 59-42 53-27h129V0H18c2-99 128-94 128-182 0-28-16-43-45-43s-46 15-49 41l-32-3c6-41 34-60 81-64" id="ak"/><g id="p"><use transform="matrix(0.05,0,0,0.05,0,0)" xlink:href="#O"/><use transform="matrix(0.05,0,0,0.05,10,0)" xlink:href="#V"/><use transform="matrix(0.05,0,0,0.05,20,0)" xlink:href="#R"/><use transform="matrix(0.05,0,0,0.05,25,0)" xlink:href="#J"/><use transform="matrix(0.05,0,0,0.05,35,0)" xlink:href="#R"/><use transform="matrix(0.05,0,0,0.05,40,0)" xlink:href="#P"/><use transform="matrix(0.05,0,0,0.05,43.95,0)" xlink:href="#E"/><use transform="matrix(0.05,0,0,0.05,58.900000000000006,0)" xlink:href="#J"/><use transform="matrix(0.05,0,0,0.05,68.9,0)" xlink:href="#ak"/></g><g id="q"><use transform="matrix(0.05,0,0,0.05,0,0)" xlink:href="#aa"/><use transform="matrix(0.05,0,0,0.05,12.950000000000001,0)" xlink:href="#F"/><use transform="matrix(0.05,0,0,0.05,22.950000000000003,0)" xlink:href="#O"/><use transform="matrix(0.05,0,0,0.05,32.95,0)" xlink:href="#V"/><use transform="matrix(0.05,0,0,0.05,42.95,0)" xlink:href="#R"/><use transform="matrix(0.05,0,0,0.05,47.95,0)" xlink:href="#J"/><use transform="matrix(0.05,0,0,0.05,57.95,0)" xlink:href="#af"/><use transform="matrix(0.05,0,0,0.05,69.95,0)" xlink:href="#I"/><use transform="matrix(0.05,0,0,0.05,78.95,0)" xlink:href="#ae"/><use transform="matrix(0.05,0,0,0.05,91.9,0)" xlink:href="#V"/><use transform="matrix(0.05,0,0,0.05,101.9,0)" xlink:href="#R"/><use transform="matrix(0.05,0,0,0.05,106.9,0)" xlink:href="#J"/></g><g id="r"><use transform="matrix(0.05,0,0,0.05,0,0)" xlink:href="#ae"/><use transform="matrix(0.05,0,0,0.05,12.950000000000001,0)" xlink:href="#V"/><use transform="matrix(0.05,0,0,0.05,22.950000000000003,0)" xlink:href="#R"/><use transform="matrix(0.05,0,0,0.05,27.950000000000003,0)" xlink:href="#J"/><use transform="matrix(0.05,0,0,0.05,37.95,0)" xlink:href="#U"/><use transform="matrix(0.05,0,0,0.05,50.900000000000006,0)" xlink:href="#H"/><use transform="matrix(0.05,0,0,0.05,60.900000000000006,0)" xlink:href="#R"/><use transform="matrix(0.05,0,0,0.05,65.9,0)" xlink:href="#P"/><use transform="matrix(0.05,0,0,0.05,69.85000000000001,0)" xlink:href="#ah"/><use transform="matrix(0.05,0,0,0.05,74.85000000000001,0)" xlink:href="#I"/><use transform="matrix(0.05,0,0,0.05,83.85000000000001,0)" xlink:href="#ac"/><use transform="matrix(0.05,0,0,0.05,96.80000000000001,0)" xlink:href="#ad"/><use transform="matrix(0.05,0,0,0.05,106.80000000000001,0)" xlink:href="#T"/><use transform="matrix(0.05,0,0,0.05,112.75,0)" xlink:href="#V"/><use transform="matrix(0.05,0,0,0.05,122.75,0)" xlink:href="#R"/><use transform="matrix(0.05,0,0,0.05,127.75,0)" xlink:href="#H"/><use transform="matrix(0.05,0,0,0.05,137.75,0)" xlink:href="#T"/><use transform="matrix(0.05,0,0,0.05,143.7,0)" xlink:href="#K"/></g><path d="M185-189c-5-48-123-54-124 2 14 75 158 14 163 119 3 78-121 87-175 55-17-10-28-26-33-46l33-7c5 56 141 63 141-1 0-78-155-14-162-118-5-82 145-84 179-34 5 7 8 16 11 25" id="al"/><path d="M177-190C167-65 218 103 67 71c-23-6-38-20-44-43l32-5c15 47 100 32 89-28v-30C133-14 115 1 83 1 29 1 15-40 15-95c0-56 16-97 71-98 29-1 48 16 59 35 1-10 0-23 2-32h30zM94-22c36 0 50-32 50-73 0-42-14-75-50-75-39 0-46 34-46 75s6 73 46 73" id="am"/><g id="s"><use transform="matrix(0.05,0,0,0.05,0,0)" xlink:href="#N"/><use transform="matrix(0.05,0,0,0.05,5,0)" xlink:href="#R"/><use transform="matrix(0.05,0,0,0.05,10,0)" xlink:href="#J"/><use transform="matrix(0.05,0,0,0.05,20,0)" xlink:href="#E"/><use transform="matrix(0.05,0,0,0.05,34.95,0)" xlink:href="#N"/><use transform="matrix(0.05,0,0,0.05,39.95,0)" xlink:href="#Q"/><use transform="matrix(0.05,0,0,0.05,49.95,0)" xlink:href="#al"/><use transform="matrix(0.05,0,0,0.05,61.95,0)" xlink:href="#R"/><use transform="matrix(0.05,0,0,0.05,66.95,0)" xlink:href="#H"/><use transform="matrix(0.05,0,0,0.05,76.95,0)" xlink:href="#T"/><use transform="matrix(0.05,0,0,0.05,82.9,0)" xlink:href="#V"/><use transform="matrix(0.05,0,0,0.05,92.9,0)" xlink:href="#am"/><use transform="matrix(0.05,0,0,0.05,102.9,0)" xlink:href="#J"/><use transform="matrix(0.05,0,0,0.05,112.9,0)" xlink:href="#K"/></g><g id="t"><use transform="matrix(0.05,0,0,0.05,0,0)" xlink:href="#N"/><use transform="matrix(0.05,0,0,0.05,5,0)" xlink:href="#R"/><use transform="matrix(0.05,0,0,0.05,10,0)" xlink:href="#J"/><use transform="matrix(0.05,0,0,0.05,20,0)" xlink:href="#E"/><use transform="matrix(0.05,0,0,0.05,34.95,0)" xlink:href="#N"/><use transform="matrix(0.05,0,0,0.05,39.95,0)" xlink:href="#Q"/><use transform="matrix(0.05,0,0,0.05,49.95,0)" xlink:href="#al"/><use transform="matrix(0.05,0,0,0.05,61.95,0)" xlink:href="#R"/><use transform="matrix(0.05,0,0,0.05,66.95,0)" xlink:href="#H"/><use transform="matrix(0.05,0,0,0.05,76.95,0)" xlink:href="#T"/><use transform="matrix(0.05,0,0,0.05,82.9,0)" xlink:href="#V"/><use transform="matrix(0.05,0,0,0.05,92.9,0)" xlink:href="#am"/><use transform="matrix(0.05,0,0,0.05,102.9,0)" xlink:href="#J"/><use transform="matrix(0.05,0,0,0.05,112.9,0)" xlink:href="#N"/><use transform="matrix(0.05,0,0,0.05,117.9,0)" xlink:href="#O"/></g><g id="u"><use transform="matrix(0.05,0,0,0.05,0,0)" xlink:href="#al"/><use transform="matrix(0.05,0,0,0.05,12,0)" xlink:href="#R"/><use transform="matrix(0.05,0,0,0.05,17,0)" xlink:href="#H"/><use transform="matrix(0.05,0,0,0.05,27,0)" xlink:href="#T"/><use transform="matrix(0.05,0,0,0.05,32.95,0)" xlink:href="#V"/><use transform="matrix(0.05,0,0,0.05,42.95,0)" xlink:href="#am"/><use transform="matrix(0.05,0,0,0.05,52.95,0)" xlink:href="#J"/><use transform="matrix(0.05,0,0,0.05,62.95,0)" xlink:href="#ac"/><use transform="matrix(0.05,0,0,0.05,75.9,0)" xlink:href="#H"/><use transform="matrix(0.05,0,0,0.05,85.9,0)" xlink:href="#ad"/><use transform="matrix(0.05,0,0,0.05,95.9,0)" xlink:href="#Q"/><use transform="matrix(0.05,0,0,0.05,105.9,0)" xlink:href="#R"/></g><g id="v"><use transform="matrix(0.05,0,0,0.05,0,0)" xlink:href="#S"/><use transform="matrix(0.05,0,0,0.05,10.950000000000001,0)" xlink:href="#M"/></g><g id="w"><use transform="matrix(0.05,0,0,0.05,0,0)" xlink:href="#al"/><use transform="matrix(0.05,0,0,0.05,12,0)" xlink:href="#R"/><use transform="matrix(0.05,0,0,0.05,17,0)" xlink:href="#H"/><use transform="matrix(0.05,0,0,0.05,27,0)" xlink:href="#T"/><use transform="matrix(0.05,0,0,0.05,32.95,0)" xlink:href="#V"/><use transform="matrix(0.05,0,0,0.05,42.95,0)" xlink:href="#am"/><use transform="matrix(0.05,0,0,0.05,52.95,0)" xlink:href="#J"/><use transform="matrix(0.05,0,0,0.05,62.95,0)" xlink:href="#N"/><use transform="matrix(0.05,0,0,0.05,67.95,0)" xlink:href="#O"/></g><g id="x"><use transform="matrix(0.05,0,0,0.05,0,0)" xlink:href="#ac"/><use transform="matrix(0.05,0,0,0.05,12.950000000000001,0)" xlink:href="#ad"/><use transform="matrix(0.05,0,0,0.05,22.950000000000003,0)" xlink:href="#T"/><use transform="matrix(0.05,0,0,0.05,28.900000000000002,0)" xlink:href="#V"/><use transform="matrix(0.05,0,0,0.05,38.900000000000006,0)" xlink:href="#R"/><use transform="matrix(0.05,0,0,0.05,43.900000000000006,0)" xlink:href="#H"/><use transform="matrix(0.05,0,0,0.05,53.900000000000006,0)" xlink:href="#T"/><use transform="matrix(0.05,0,0,0.05,59.85,0)" xlink:href="#al"/><use transform="matrix(0.05,0,0,0.05,71.85000000000001,0)" xlink:href="#F"/><use transform="matrix(0.05,0,0,0.05,81.85000000000001,0)" xlink:href="#V"/><use transform="matrix(0.05,0,0,0.05,91.85000000000001,0)" xlink:href="#X"/><use transform="matrix(0.05,0,0,0.05,100.85000000000001,0)" xlink:href="#J"/><use transform="matrix(0.05,0,0,0.05,110.85000000000001,0)" xlink:href="#N"/><use transform="matrix(0.05,0,0,0.05,115.85000000000001,0)" xlink:href="#O"/></g><g id="y"><use transform="matrix(0.05,0,0,0.05,0,0)" xlink:href="#ac"/><use transform="matrix(0.05,0,0,0.05,12.950000000000001,0)" xlink:href="#ad"/><use transform="matrix(0.05,0,0,0.05,22.950000000000003,0)" xlink:href="#T"/><use transform="matrix(0.05,0,0,0.05,28.900000000000002,0)" xlink:href="#V"/><use transform="matrix(0.05,0,0,0.05,38.900000000000006,0)" xlink:href="#R"/><use transform="matrix(0.05,0,0,0.05,43.900000000000006,0)" xlink:href="#H"/><use transform="matrix(0.05,0,0,0.05,53.900000000000006,0)" xlink:href="#T"/><use transform="matrix(0.05,0,0,0.05,59.85,0)" xlink:href="#N"/><use transform="matrix(0.05,0,0,0.05,64.85000000000001,0)" xlink:href="#O"/></g><path d="M233-177c-1 41-23 64-60 70L243 0h-38l-65-103H63V0H30v-248c88 3 205-21 203 71zM63-129c60-2 137 13 137-47 0-61-80-42-137-45v92" id="an"/><g id="z"><use transform="matrix(0.05,0,0,0.05,0,0)" xlink:href="#D"/><use transform="matrix(0.05,0,0,0.05,12,0)" xlink:href="#E"/><use transform="matrix(0.05,0,0,0.05,26.950000000000003,0)" xlink:href="#F"/><use transform="matrix(0.05,0,0,0.05,36.95,0)" xlink:href="#G"/><use transform="matrix(0.05,0,0,0.05,40.900000000000006,0)" xlink:href="#H"/><use transform="matrix(0.05,0,0,0.05,50.900000000000006,0)" xlink:href="#I"/><use transform="matrix(0.05,0,0,0.05,59.900000000000006,0)" xlink:href="#J"/><use transform="matrix(0.05,0,0,0.05,69.9,0)" xlink:href="#J"/><use transform="matrix(0.05,0,0,0.05,79.9,0)" xlink:href="#an"/><use transform="matrix(0.05,0,0,0.05,92.85000000000001,0)" xlink:href="#H"/><use transform="matrix(0.05,0,0,0.05,102.85000000000001,0)" xlink:href="#G"/><use transform="matrix(0.05,0,0,0.05,106.80000000000001,0)" xlink:href="#J"/><use transform="matrix(0.05,0,0,0.05,116.80000000000001,0)" xlink:href="#K"/></g><g id="A"><use transform="matrix(0.05,0,0,0.05,0,0)" xlink:href="#D"/><use transform="matrix(0.05,0,0,0.05,12,0)" xlink:href="#E"/><use transform="matrix(0.05,0,0,0.05,26.950000000000003,0)" xlink:href="#F"/><use transform="matrix(0.05,0,0,0.05,36.95,0)" xlink:href="#G"/><use transform="matrix(0.05,0,0,0.05,40.900000000000006,0)" xlink:href="#H"/><use transform="matrix(0.05,0,0,0.05,50.900000000000006,0)" xlink:href="#I"/><use transform="matrix(0.05,0,0,0.05,59.900000000000006,0)" xlink:href="#J"/><use transform="matrix(0.05,0,0,0.05,69.9,0)" xlink:href="#J"/><use transform="matrix(0.05,0,0,0.05,79.9,0)" xlink:href="#an"/><use transform="matrix(0.05,0,0,0.05,92.85000000000001,0)" xlink:href="#H"/><use transform="matrix(0.05,0,0,0.05,102.85000000000001,0)" xlink:href="#G"/><use transform="matrix(0.05,0,0,0.05,106.80000000000001,0)" xlink:href="#J"/><use transform="matrix(0.05,0,0,0.05,116.80000000000001,0)" xlink:href="#N"/><use transform="matrix(0.05,0,0,0.05,121.80000000000001,0)" xlink:href="#O"/></g><g id="B"><use transform="matrix(0.05,0,0,0.05,0,0)" xlink:href="#ac"/><use transform="matrix(0.05,0,0,0.05,12.950000000000001,0)" xlink:href="#ad"/><use transform="matrix(0.05,0,0,0.05,22.950000000000003,0)" xlink:href="#T"/><use transform="matrix(0.05,0,0,0.05,28.900000000000002,0)" xlink:href="#V"/><use transform="matrix(0.05,0,0,0.05,38.900000000000006,0)" xlink:href="#R"/><use transform="matrix(0.05,0,0,0.05,43.900000000000006,0)" xlink:href="#H"/><use transform="matrix(0.05,0,0,0.05,53.900000000000006,0)" xlink:href="#T"/><use transform="matrix(0.05,0,0,0.05,59.85,0)" xlink:href="#an"/><use transform="matrix(0.05,0,0,0.05,72.80000000000001,0)" xlink:href="#H"/><use transform="matrix(0.05,0,0,0.05,82.80000000000001,0)" xlink:href="#G"/><use transform="matrix(0.05,0,0,0.05,86.75000000000001,0)" xlink:href="#J"/><use transform="matrix(0.05,0,0,0.05,96.75000000000001,0)" xlink:href="#N"/><use transform="matrix(0.05,0,0,0.05,101.75000000000001,0)" xlink:href="#O"/></g><g id="C"><use transform="matrix(0.05,0,0,0.05,0,0)" xlink:href="#ac"/><use transform="matrix(0.05,0,0,0.05,12.950000000000001,0)" xlink:href="#ad"/><use transform="matrix(0.05,0,0,0.05,22.950000000000003,0)" xlink:href="#T"/><use transform="matrix(0.05,0,0,0.05,28.900000000000002,0)" xlink:href="#V"/><use transform="matrix(0.05,0,0,0.05,38.900000000000006,0)" xlink:href="#R"/><use transform="matrix(0.05,0,0,0.05,43.900000000000006,0)" xlink:href="#H"/><use transform="matrix(0.05,0,0,0.05,53.900000000000006,0)" xlink:href="#T"/><use transform="matrix(0.05,0,0,0.05,59.85,0)" xlink:href="#al"/><use transform="matrix(0.05,0,0,0.05,71.85000000000001,0)" xlink:href="#F"/><use transform="matrix(0.05,0,0,0.05,81.85000000000001,0)" xlink:href="#V"/><use transform="matrix(0.05,0,0,0.05,91.85000000000001,0)" xlink:href="#X"/><use transform="matrix(0.05,0,0,0.05,100.85000000000001,0)" xlink:href="#J"/><use transform="matrix(0.05,0,0,0.05,110.85000000000001,0)" xlink:href="#K"/></g></defs></g></svg>